G04 #@! TF.GenerationSoftware,KiCad,Pcbnew,(5.1.2-1)-1*
G04 #@! TF.CreationDate,2019-06-23T15:45:01-04:00*
G04 #@! TF.ProjectId,GR_555_DEV1.0,47525f35-3535-45f4-9445-56312e302e6b,rev?*
G04 #@! TF.SameCoordinates,Original*
G04 #@! TF.FileFunction,Copper,L1,Top*
G04 #@! TF.FilePolarity,Positive*
%FSLAX46Y46*%
G04 Gerber Fmt 4.6, Leading zero omitted, Abs format (unit mm)*
G04 Created by KiCad (PCBNEW (5.1.2-1)-1) date 2019-06-23 15:45:01*
%MOMM*%
%LPD*%
G04 APERTURE LIST*
%ADD10C,2.000000*%
%ADD11R,2.000000X2.000000*%
%ADD12O,1.700000X1.700000*%
%ADD13R,1.700000X1.700000*%
%ADD14C,0.100000*%
%ADD15C,0.950000*%
%ADD16C,1.600000*%
%ADD17C,0.600000*%
%ADD18R,1.600000X1.600000*%
%ADD19C,1.150000*%
%ADD20O,1.500000X1.500000*%
%ADD21R,1.500000X1.500000*%
%ADD22O,1.900000X1.900000*%
%ADD23R,1.900000X1.900000*%
%ADD24C,0.800000*%
%ADD25C,0.609600*%
%ADD26C,0.406400*%
%ADD27C,0.254000*%
%ADD28C,0.250000*%
G04 APERTURE END LIST*
D10*
X191309000Y-75311000D03*
D11*
X186309000Y-75311000D03*
D12*
X177419000Y-84074000D03*
D13*
X179959000Y-84074000D03*
X177419000Y-88519000D03*
D12*
X179959000Y-88519000D03*
D13*
X186563000Y-84074000D03*
D12*
X189103000Y-84074000D03*
X198374000Y-84074000D03*
D13*
X195834000Y-84074000D03*
D12*
X192532000Y-112141000D03*
X189992000Y-112141000D03*
X187452000Y-112141000D03*
X184912000Y-112141000D03*
X182372000Y-112141000D03*
X179832000Y-112141000D03*
X177292000Y-112141000D03*
D13*
X174752000Y-112141000D03*
D14*
G36*
X198303779Y-87029144D02*
G01*
X198326834Y-87032563D01*
X198349443Y-87038227D01*
X198371387Y-87046079D01*
X198392457Y-87056044D01*
X198412448Y-87068026D01*
X198431168Y-87081910D01*
X198448438Y-87097562D01*
X198464090Y-87114832D01*
X198477974Y-87133552D01*
X198489956Y-87153543D01*
X198499921Y-87174613D01*
X198507773Y-87196557D01*
X198513437Y-87219166D01*
X198516856Y-87242221D01*
X198518000Y-87265500D01*
X198518000Y-87740500D01*
X198516856Y-87763779D01*
X198513437Y-87786834D01*
X198507773Y-87809443D01*
X198499921Y-87831387D01*
X198489956Y-87852457D01*
X198477974Y-87872448D01*
X198464090Y-87891168D01*
X198448438Y-87908438D01*
X198431168Y-87924090D01*
X198412448Y-87937974D01*
X198392457Y-87949956D01*
X198371387Y-87959921D01*
X198349443Y-87967773D01*
X198326834Y-87973437D01*
X198303779Y-87976856D01*
X198280500Y-87978000D01*
X197705500Y-87978000D01*
X197682221Y-87976856D01*
X197659166Y-87973437D01*
X197636557Y-87967773D01*
X197614613Y-87959921D01*
X197593543Y-87949956D01*
X197573552Y-87937974D01*
X197554832Y-87924090D01*
X197537562Y-87908438D01*
X197521910Y-87891168D01*
X197508026Y-87872448D01*
X197496044Y-87852457D01*
X197486079Y-87831387D01*
X197478227Y-87809443D01*
X197472563Y-87786834D01*
X197469144Y-87763779D01*
X197468000Y-87740500D01*
X197468000Y-87265500D01*
X197469144Y-87242221D01*
X197472563Y-87219166D01*
X197478227Y-87196557D01*
X197486079Y-87174613D01*
X197496044Y-87153543D01*
X197508026Y-87133552D01*
X197521910Y-87114832D01*
X197537562Y-87097562D01*
X197554832Y-87081910D01*
X197573552Y-87068026D01*
X197593543Y-87056044D01*
X197614613Y-87046079D01*
X197636557Y-87038227D01*
X197659166Y-87032563D01*
X197682221Y-87029144D01*
X197705500Y-87028000D01*
X198280500Y-87028000D01*
X198303779Y-87029144D01*
X198303779Y-87029144D01*
G37*
D15*
X197993000Y-87503000D03*
D14*
G36*
X196553779Y-87029144D02*
G01*
X196576834Y-87032563D01*
X196599443Y-87038227D01*
X196621387Y-87046079D01*
X196642457Y-87056044D01*
X196662448Y-87068026D01*
X196681168Y-87081910D01*
X196698438Y-87097562D01*
X196714090Y-87114832D01*
X196727974Y-87133552D01*
X196739956Y-87153543D01*
X196749921Y-87174613D01*
X196757773Y-87196557D01*
X196763437Y-87219166D01*
X196766856Y-87242221D01*
X196768000Y-87265500D01*
X196768000Y-87740500D01*
X196766856Y-87763779D01*
X196763437Y-87786834D01*
X196757773Y-87809443D01*
X196749921Y-87831387D01*
X196739956Y-87852457D01*
X196727974Y-87872448D01*
X196714090Y-87891168D01*
X196698438Y-87908438D01*
X196681168Y-87924090D01*
X196662448Y-87937974D01*
X196642457Y-87949956D01*
X196621387Y-87959921D01*
X196599443Y-87967773D01*
X196576834Y-87973437D01*
X196553779Y-87976856D01*
X196530500Y-87978000D01*
X195955500Y-87978000D01*
X195932221Y-87976856D01*
X195909166Y-87973437D01*
X195886557Y-87967773D01*
X195864613Y-87959921D01*
X195843543Y-87949956D01*
X195823552Y-87937974D01*
X195804832Y-87924090D01*
X195787562Y-87908438D01*
X195771910Y-87891168D01*
X195758026Y-87872448D01*
X195746044Y-87852457D01*
X195736079Y-87831387D01*
X195728227Y-87809443D01*
X195722563Y-87786834D01*
X195719144Y-87763779D01*
X195718000Y-87740500D01*
X195718000Y-87265500D01*
X195719144Y-87242221D01*
X195722563Y-87219166D01*
X195728227Y-87196557D01*
X195736079Y-87174613D01*
X195746044Y-87153543D01*
X195758026Y-87133552D01*
X195771910Y-87114832D01*
X195787562Y-87097562D01*
X195804832Y-87081910D01*
X195823552Y-87068026D01*
X195843543Y-87056044D01*
X195864613Y-87046079D01*
X195886557Y-87038227D01*
X195909166Y-87032563D01*
X195932221Y-87029144D01*
X195955500Y-87028000D01*
X196530500Y-87028000D01*
X196553779Y-87029144D01*
X196553779Y-87029144D01*
G37*
D15*
X196243000Y-87503000D03*
D14*
G36*
X196539779Y-90204144D02*
G01*
X196562834Y-90207563D01*
X196585443Y-90213227D01*
X196607387Y-90221079D01*
X196628457Y-90231044D01*
X196648448Y-90243026D01*
X196667168Y-90256910D01*
X196684438Y-90272562D01*
X196700090Y-90289832D01*
X196713974Y-90308552D01*
X196725956Y-90328543D01*
X196735921Y-90349613D01*
X196743773Y-90371557D01*
X196749437Y-90394166D01*
X196752856Y-90417221D01*
X196754000Y-90440500D01*
X196754000Y-90915500D01*
X196752856Y-90938779D01*
X196749437Y-90961834D01*
X196743773Y-90984443D01*
X196735921Y-91006387D01*
X196725956Y-91027457D01*
X196713974Y-91047448D01*
X196700090Y-91066168D01*
X196684438Y-91083438D01*
X196667168Y-91099090D01*
X196648448Y-91112974D01*
X196628457Y-91124956D01*
X196607387Y-91134921D01*
X196585443Y-91142773D01*
X196562834Y-91148437D01*
X196539779Y-91151856D01*
X196516500Y-91153000D01*
X195941500Y-91153000D01*
X195918221Y-91151856D01*
X195895166Y-91148437D01*
X195872557Y-91142773D01*
X195850613Y-91134921D01*
X195829543Y-91124956D01*
X195809552Y-91112974D01*
X195790832Y-91099090D01*
X195773562Y-91083438D01*
X195757910Y-91066168D01*
X195744026Y-91047448D01*
X195732044Y-91027457D01*
X195722079Y-91006387D01*
X195714227Y-90984443D01*
X195708563Y-90961834D01*
X195705144Y-90938779D01*
X195704000Y-90915500D01*
X195704000Y-90440500D01*
X195705144Y-90417221D01*
X195708563Y-90394166D01*
X195714227Y-90371557D01*
X195722079Y-90349613D01*
X195732044Y-90328543D01*
X195744026Y-90308552D01*
X195757910Y-90289832D01*
X195773562Y-90272562D01*
X195790832Y-90256910D01*
X195809552Y-90243026D01*
X195829543Y-90231044D01*
X195850613Y-90221079D01*
X195872557Y-90213227D01*
X195895166Y-90207563D01*
X195918221Y-90204144D01*
X195941500Y-90203000D01*
X196516500Y-90203000D01*
X196539779Y-90204144D01*
X196539779Y-90204144D01*
G37*
D15*
X196229000Y-90678000D03*
D14*
G36*
X198289779Y-90204144D02*
G01*
X198312834Y-90207563D01*
X198335443Y-90213227D01*
X198357387Y-90221079D01*
X198378457Y-90231044D01*
X198398448Y-90243026D01*
X198417168Y-90256910D01*
X198434438Y-90272562D01*
X198450090Y-90289832D01*
X198463974Y-90308552D01*
X198475956Y-90328543D01*
X198485921Y-90349613D01*
X198493773Y-90371557D01*
X198499437Y-90394166D01*
X198502856Y-90417221D01*
X198504000Y-90440500D01*
X198504000Y-90915500D01*
X198502856Y-90938779D01*
X198499437Y-90961834D01*
X198493773Y-90984443D01*
X198485921Y-91006387D01*
X198475956Y-91027457D01*
X198463974Y-91047448D01*
X198450090Y-91066168D01*
X198434438Y-91083438D01*
X198417168Y-91099090D01*
X198398448Y-91112974D01*
X198378457Y-91124956D01*
X198357387Y-91134921D01*
X198335443Y-91142773D01*
X198312834Y-91148437D01*
X198289779Y-91151856D01*
X198266500Y-91153000D01*
X197691500Y-91153000D01*
X197668221Y-91151856D01*
X197645166Y-91148437D01*
X197622557Y-91142773D01*
X197600613Y-91134921D01*
X197579543Y-91124956D01*
X197559552Y-91112974D01*
X197540832Y-91099090D01*
X197523562Y-91083438D01*
X197507910Y-91066168D01*
X197494026Y-91047448D01*
X197482044Y-91027457D01*
X197472079Y-91006387D01*
X197464227Y-90984443D01*
X197458563Y-90961834D01*
X197455144Y-90938779D01*
X197454000Y-90915500D01*
X197454000Y-90440500D01*
X197455144Y-90417221D01*
X197458563Y-90394166D01*
X197464227Y-90371557D01*
X197472079Y-90349613D01*
X197482044Y-90328543D01*
X197494026Y-90308552D01*
X197507910Y-90289832D01*
X197523562Y-90272562D01*
X197540832Y-90256910D01*
X197559552Y-90243026D01*
X197579543Y-90231044D01*
X197600613Y-90221079D01*
X197622557Y-90213227D01*
X197645166Y-90207563D01*
X197668221Y-90204144D01*
X197691500Y-90203000D01*
X198266500Y-90203000D01*
X198289779Y-90204144D01*
X198289779Y-90204144D01*
G37*
D15*
X197979000Y-90678000D03*
D14*
G36*
X191346779Y-87029144D02*
G01*
X191369834Y-87032563D01*
X191392443Y-87038227D01*
X191414387Y-87046079D01*
X191435457Y-87056044D01*
X191455448Y-87068026D01*
X191474168Y-87081910D01*
X191491438Y-87097562D01*
X191507090Y-87114832D01*
X191520974Y-87133552D01*
X191532956Y-87153543D01*
X191542921Y-87174613D01*
X191550773Y-87196557D01*
X191556437Y-87219166D01*
X191559856Y-87242221D01*
X191561000Y-87265500D01*
X191561000Y-87740500D01*
X191559856Y-87763779D01*
X191556437Y-87786834D01*
X191550773Y-87809443D01*
X191542921Y-87831387D01*
X191532956Y-87852457D01*
X191520974Y-87872448D01*
X191507090Y-87891168D01*
X191491438Y-87908438D01*
X191474168Y-87924090D01*
X191455448Y-87937974D01*
X191435457Y-87949956D01*
X191414387Y-87959921D01*
X191392443Y-87967773D01*
X191369834Y-87973437D01*
X191346779Y-87976856D01*
X191323500Y-87978000D01*
X190748500Y-87978000D01*
X190725221Y-87976856D01*
X190702166Y-87973437D01*
X190679557Y-87967773D01*
X190657613Y-87959921D01*
X190636543Y-87949956D01*
X190616552Y-87937974D01*
X190597832Y-87924090D01*
X190580562Y-87908438D01*
X190564910Y-87891168D01*
X190551026Y-87872448D01*
X190539044Y-87852457D01*
X190529079Y-87831387D01*
X190521227Y-87809443D01*
X190515563Y-87786834D01*
X190512144Y-87763779D01*
X190511000Y-87740500D01*
X190511000Y-87265500D01*
X190512144Y-87242221D01*
X190515563Y-87219166D01*
X190521227Y-87196557D01*
X190529079Y-87174613D01*
X190539044Y-87153543D01*
X190551026Y-87133552D01*
X190564910Y-87114832D01*
X190580562Y-87097562D01*
X190597832Y-87081910D01*
X190616552Y-87068026D01*
X190636543Y-87056044D01*
X190657613Y-87046079D01*
X190679557Y-87038227D01*
X190702166Y-87032563D01*
X190725221Y-87029144D01*
X190748500Y-87028000D01*
X191323500Y-87028000D01*
X191346779Y-87029144D01*
X191346779Y-87029144D01*
G37*
D15*
X191036000Y-87503000D03*
D14*
G36*
X193096779Y-87029144D02*
G01*
X193119834Y-87032563D01*
X193142443Y-87038227D01*
X193164387Y-87046079D01*
X193185457Y-87056044D01*
X193205448Y-87068026D01*
X193224168Y-87081910D01*
X193241438Y-87097562D01*
X193257090Y-87114832D01*
X193270974Y-87133552D01*
X193282956Y-87153543D01*
X193292921Y-87174613D01*
X193300773Y-87196557D01*
X193306437Y-87219166D01*
X193309856Y-87242221D01*
X193311000Y-87265500D01*
X193311000Y-87740500D01*
X193309856Y-87763779D01*
X193306437Y-87786834D01*
X193300773Y-87809443D01*
X193292921Y-87831387D01*
X193282956Y-87852457D01*
X193270974Y-87872448D01*
X193257090Y-87891168D01*
X193241438Y-87908438D01*
X193224168Y-87924090D01*
X193205448Y-87937974D01*
X193185457Y-87949956D01*
X193164387Y-87959921D01*
X193142443Y-87967773D01*
X193119834Y-87973437D01*
X193096779Y-87976856D01*
X193073500Y-87978000D01*
X192498500Y-87978000D01*
X192475221Y-87976856D01*
X192452166Y-87973437D01*
X192429557Y-87967773D01*
X192407613Y-87959921D01*
X192386543Y-87949956D01*
X192366552Y-87937974D01*
X192347832Y-87924090D01*
X192330562Y-87908438D01*
X192314910Y-87891168D01*
X192301026Y-87872448D01*
X192289044Y-87852457D01*
X192279079Y-87831387D01*
X192271227Y-87809443D01*
X192265563Y-87786834D01*
X192262144Y-87763779D01*
X192261000Y-87740500D01*
X192261000Y-87265500D01*
X192262144Y-87242221D01*
X192265563Y-87219166D01*
X192271227Y-87196557D01*
X192279079Y-87174613D01*
X192289044Y-87153543D01*
X192301026Y-87133552D01*
X192314910Y-87114832D01*
X192330562Y-87097562D01*
X192347832Y-87081910D01*
X192366552Y-87068026D01*
X192386543Y-87056044D01*
X192407613Y-87046079D01*
X192429557Y-87038227D01*
X192452166Y-87032563D01*
X192475221Y-87029144D01*
X192498500Y-87028000D01*
X193073500Y-87028000D01*
X193096779Y-87029144D01*
X193096779Y-87029144D01*
G37*
D15*
X192786000Y-87503000D03*
D16*
X181737000Y-100457000D03*
X176737000Y-100457000D03*
D14*
G36*
X193096779Y-90204144D02*
G01*
X193119834Y-90207563D01*
X193142443Y-90213227D01*
X193164387Y-90221079D01*
X193185457Y-90231044D01*
X193205448Y-90243026D01*
X193224168Y-90256910D01*
X193241438Y-90272562D01*
X193257090Y-90289832D01*
X193270974Y-90308552D01*
X193282956Y-90328543D01*
X193292921Y-90349613D01*
X193300773Y-90371557D01*
X193306437Y-90394166D01*
X193309856Y-90417221D01*
X193311000Y-90440500D01*
X193311000Y-90915500D01*
X193309856Y-90938779D01*
X193306437Y-90961834D01*
X193300773Y-90984443D01*
X193292921Y-91006387D01*
X193282956Y-91027457D01*
X193270974Y-91047448D01*
X193257090Y-91066168D01*
X193241438Y-91083438D01*
X193224168Y-91099090D01*
X193205448Y-91112974D01*
X193185457Y-91124956D01*
X193164387Y-91134921D01*
X193142443Y-91142773D01*
X193119834Y-91148437D01*
X193096779Y-91151856D01*
X193073500Y-91153000D01*
X192498500Y-91153000D01*
X192475221Y-91151856D01*
X192452166Y-91148437D01*
X192429557Y-91142773D01*
X192407613Y-91134921D01*
X192386543Y-91124956D01*
X192366552Y-91112974D01*
X192347832Y-91099090D01*
X192330562Y-91083438D01*
X192314910Y-91066168D01*
X192301026Y-91047448D01*
X192289044Y-91027457D01*
X192279079Y-91006387D01*
X192271227Y-90984443D01*
X192265563Y-90961834D01*
X192262144Y-90938779D01*
X192261000Y-90915500D01*
X192261000Y-90440500D01*
X192262144Y-90417221D01*
X192265563Y-90394166D01*
X192271227Y-90371557D01*
X192279079Y-90349613D01*
X192289044Y-90328543D01*
X192301026Y-90308552D01*
X192314910Y-90289832D01*
X192330562Y-90272562D01*
X192347832Y-90256910D01*
X192366552Y-90243026D01*
X192386543Y-90231044D01*
X192407613Y-90221079D01*
X192429557Y-90213227D01*
X192452166Y-90207563D01*
X192475221Y-90204144D01*
X192498500Y-90203000D01*
X193073500Y-90203000D01*
X193096779Y-90204144D01*
X193096779Y-90204144D01*
G37*
D15*
X192786000Y-90678000D03*
D14*
G36*
X191346779Y-90204144D02*
G01*
X191369834Y-90207563D01*
X191392443Y-90213227D01*
X191414387Y-90221079D01*
X191435457Y-90231044D01*
X191455448Y-90243026D01*
X191474168Y-90256910D01*
X191491438Y-90272562D01*
X191507090Y-90289832D01*
X191520974Y-90308552D01*
X191532956Y-90328543D01*
X191542921Y-90349613D01*
X191550773Y-90371557D01*
X191556437Y-90394166D01*
X191559856Y-90417221D01*
X191561000Y-90440500D01*
X191561000Y-90915500D01*
X191559856Y-90938779D01*
X191556437Y-90961834D01*
X191550773Y-90984443D01*
X191542921Y-91006387D01*
X191532956Y-91027457D01*
X191520974Y-91047448D01*
X191507090Y-91066168D01*
X191491438Y-91083438D01*
X191474168Y-91099090D01*
X191455448Y-91112974D01*
X191435457Y-91124956D01*
X191414387Y-91134921D01*
X191392443Y-91142773D01*
X191369834Y-91148437D01*
X191346779Y-91151856D01*
X191323500Y-91153000D01*
X190748500Y-91153000D01*
X190725221Y-91151856D01*
X190702166Y-91148437D01*
X190679557Y-91142773D01*
X190657613Y-91134921D01*
X190636543Y-91124956D01*
X190616552Y-91112974D01*
X190597832Y-91099090D01*
X190580562Y-91083438D01*
X190564910Y-91066168D01*
X190551026Y-91047448D01*
X190539044Y-91027457D01*
X190529079Y-91006387D01*
X190521227Y-90984443D01*
X190515563Y-90961834D01*
X190512144Y-90938779D01*
X190511000Y-90915500D01*
X190511000Y-90440500D01*
X190512144Y-90417221D01*
X190515563Y-90394166D01*
X190521227Y-90371557D01*
X190529079Y-90349613D01*
X190539044Y-90328543D01*
X190551026Y-90308552D01*
X190564910Y-90289832D01*
X190580562Y-90272562D01*
X190597832Y-90256910D01*
X190616552Y-90243026D01*
X190636543Y-90231044D01*
X190657613Y-90221079D01*
X190679557Y-90213227D01*
X190702166Y-90207563D01*
X190725221Y-90204144D01*
X190748500Y-90203000D01*
X191323500Y-90203000D01*
X191346779Y-90204144D01*
X191346779Y-90204144D01*
G37*
D15*
X191036000Y-90678000D03*
D14*
G36*
X177053703Y-92410722D02*
G01*
X177068264Y-92412882D01*
X177082543Y-92416459D01*
X177096403Y-92421418D01*
X177109710Y-92427712D01*
X177122336Y-92435280D01*
X177134159Y-92444048D01*
X177145066Y-92453934D01*
X177154952Y-92464841D01*
X177163720Y-92476664D01*
X177171288Y-92489290D01*
X177177582Y-92502597D01*
X177182541Y-92516457D01*
X177186118Y-92530736D01*
X177188278Y-92545297D01*
X177189000Y-92560000D01*
X177189000Y-92860000D01*
X177188278Y-92874703D01*
X177186118Y-92889264D01*
X177182541Y-92903543D01*
X177177582Y-92917403D01*
X177171288Y-92930710D01*
X177163720Y-92943336D01*
X177154952Y-92955159D01*
X177145066Y-92966066D01*
X177134159Y-92975952D01*
X177122336Y-92984720D01*
X177109710Y-92992288D01*
X177096403Y-92998582D01*
X177082543Y-93003541D01*
X177068264Y-93007118D01*
X177053703Y-93009278D01*
X177039000Y-93010000D01*
X175389000Y-93010000D01*
X175374297Y-93009278D01*
X175359736Y-93007118D01*
X175345457Y-93003541D01*
X175331597Y-92998582D01*
X175318290Y-92992288D01*
X175305664Y-92984720D01*
X175293841Y-92975952D01*
X175282934Y-92966066D01*
X175273048Y-92955159D01*
X175264280Y-92943336D01*
X175256712Y-92930710D01*
X175250418Y-92917403D01*
X175245459Y-92903543D01*
X175241882Y-92889264D01*
X175239722Y-92874703D01*
X175239000Y-92860000D01*
X175239000Y-92560000D01*
X175239722Y-92545297D01*
X175241882Y-92530736D01*
X175245459Y-92516457D01*
X175250418Y-92502597D01*
X175256712Y-92489290D01*
X175264280Y-92476664D01*
X175273048Y-92464841D01*
X175282934Y-92453934D01*
X175293841Y-92444048D01*
X175305664Y-92435280D01*
X175318290Y-92427712D01*
X175331597Y-92421418D01*
X175345457Y-92416459D01*
X175359736Y-92412882D01*
X175374297Y-92410722D01*
X175389000Y-92410000D01*
X177039000Y-92410000D01*
X177053703Y-92410722D01*
X177053703Y-92410722D01*
G37*
D17*
X176214000Y-92710000D03*
D14*
G36*
X177053703Y-93680722D02*
G01*
X177068264Y-93682882D01*
X177082543Y-93686459D01*
X177096403Y-93691418D01*
X177109710Y-93697712D01*
X177122336Y-93705280D01*
X177134159Y-93714048D01*
X177145066Y-93723934D01*
X177154952Y-93734841D01*
X177163720Y-93746664D01*
X177171288Y-93759290D01*
X177177582Y-93772597D01*
X177182541Y-93786457D01*
X177186118Y-93800736D01*
X177188278Y-93815297D01*
X177189000Y-93830000D01*
X177189000Y-94130000D01*
X177188278Y-94144703D01*
X177186118Y-94159264D01*
X177182541Y-94173543D01*
X177177582Y-94187403D01*
X177171288Y-94200710D01*
X177163720Y-94213336D01*
X177154952Y-94225159D01*
X177145066Y-94236066D01*
X177134159Y-94245952D01*
X177122336Y-94254720D01*
X177109710Y-94262288D01*
X177096403Y-94268582D01*
X177082543Y-94273541D01*
X177068264Y-94277118D01*
X177053703Y-94279278D01*
X177039000Y-94280000D01*
X175389000Y-94280000D01*
X175374297Y-94279278D01*
X175359736Y-94277118D01*
X175345457Y-94273541D01*
X175331597Y-94268582D01*
X175318290Y-94262288D01*
X175305664Y-94254720D01*
X175293841Y-94245952D01*
X175282934Y-94236066D01*
X175273048Y-94225159D01*
X175264280Y-94213336D01*
X175256712Y-94200710D01*
X175250418Y-94187403D01*
X175245459Y-94173543D01*
X175241882Y-94159264D01*
X175239722Y-94144703D01*
X175239000Y-94130000D01*
X175239000Y-93830000D01*
X175239722Y-93815297D01*
X175241882Y-93800736D01*
X175245459Y-93786457D01*
X175250418Y-93772597D01*
X175256712Y-93759290D01*
X175264280Y-93746664D01*
X175273048Y-93734841D01*
X175282934Y-93723934D01*
X175293841Y-93714048D01*
X175305664Y-93705280D01*
X175318290Y-93697712D01*
X175331597Y-93691418D01*
X175345457Y-93686459D01*
X175359736Y-93682882D01*
X175374297Y-93680722D01*
X175389000Y-93680000D01*
X177039000Y-93680000D01*
X177053703Y-93680722D01*
X177053703Y-93680722D01*
G37*
D17*
X176214000Y-93980000D03*
D14*
G36*
X177053703Y-94950722D02*
G01*
X177068264Y-94952882D01*
X177082543Y-94956459D01*
X177096403Y-94961418D01*
X177109710Y-94967712D01*
X177122336Y-94975280D01*
X177134159Y-94984048D01*
X177145066Y-94993934D01*
X177154952Y-95004841D01*
X177163720Y-95016664D01*
X177171288Y-95029290D01*
X177177582Y-95042597D01*
X177182541Y-95056457D01*
X177186118Y-95070736D01*
X177188278Y-95085297D01*
X177189000Y-95100000D01*
X177189000Y-95400000D01*
X177188278Y-95414703D01*
X177186118Y-95429264D01*
X177182541Y-95443543D01*
X177177582Y-95457403D01*
X177171288Y-95470710D01*
X177163720Y-95483336D01*
X177154952Y-95495159D01*
X177145066Y-95506066D01*
X177134159Y-95515952D01*
X177122336Y-95524720D01*
X177109710Y-95532288D01*
X177096403Y-95538582D01*
X177082543Y-95543541D01*
X177068264Y-95547118D01*
X177053703Y-95549278D01*
X177039000Y-95550000D01*
X175389000Y-95550000D01*
X175374297Y-95549278D01*
X175359736Y-95547118D01*
X175345457Y-95543541D01*
X175331597Y-95538582D01*
X175318290Y-95532288D01*
X175305664Y-95524720D01*
X175293841Y-95515952D01*
X175282934Y-95506066D01*
X175273048Y-95495159D01*
X175264280Y-95483336D01*
X175256712Y-95470710D01*
X175250418Y-95457403D01*
X175245459Y-95443543D01*
X175241882Y-95429264D01*
X175239722Y-95414703D01*
X175239000Y-95400000D01*
X175239000Y-95100000D01*
X175239722Y-95085297D01*
X175241882Y-95070736D01*
X175245459Y-95056457D01*
X175250418Y-95042597D01*
X175256712Y-95029290D01*
X175264280Y-95016664D01*
X175273048Y-95004841D01*
X175282934Y-94993934D01*
X175293841Y-94984048D01*
X175305664Y-94975280D01*
X175318290Y-94967712D01*
X175331597Y-94961418D01*
X175345457Y-94956459D01*
X175359736Y-94952882D01*
X175374297Y-94950722D01*
X175389000Y-94950000D01*
X177039000Y-94950000D01*
X177053703Y-94950722D01*
X177053703Y-94950722D01*
G37*
D17*
X176214000Y-95250000D03*
D14*
G36*
X177053703Y-96220722D02*
G01*
X177068264Y-96222882D01*
X177082543Y-96226459D01*
X177096403Y-96231418D01*
X177109710Y-96237712D01*
X177122336Y-96245280D01*
X177134159Y-96254048D01*
X177145066Y-96263934D01*
X177154952Y-96274841D01*
X177163720Y-96286664D01*
X177171288Y-96299290D01*
X177177582Y-96312597D01*
X177182541Y-96326457D01*
X177186118Y-96340736D01*
X177188278Y-96355297D01*
X177189000Y-96370000D01*
X177189000Y-96670000D01*
X177188278Y-96684703D01*
X177186118Y-96699264D01*
X177182541Y-96713543D01*
X177177582Y-96727403D01*
X177171288Y-96740710D01*
X177163720Y-96753336D01*
X177154952Y-96765159D01*
X177145066Y-96776066D01*
X177134159Y-96785952D01*
X177122336Y-96794720D01*
X177109710Y-96802288D01*
X177096403Y-96808582D01*
X177082543Y-96813541D01*
X177068264Y-96817118D01*
X177053703Y-96819278D01*
X177039000Y-96820000D01*
X175389000Y-96820000D01*
X175374297Y-96819278D01*
X175359736Y-96817118D01*
X175345457Y-96813541D01*
X175331597Y-96808582D01*
X175318290Y-96802288D01*
X175305664Y-96794720D01*
X175293841Y-96785952D01*
X175282934Y-96776066D01*
X175273048Y-96765159D01*
X175264280Y-96753336D01*
X175256712Y-96740710D01*
X175250418Y-96727403D01*
X175245459Y-96713543D01*
X175241882Y-96699264D01*
X175239722Y-96684703D01*
X175239000Y-96670000D01*
X175239000Y-96370000D01*
X175239722Y-96355297D01*
X175241882Y-96340736D01*
X175245459Y-96326457D01*
X175250418Y-96312597D01*
X175256712Y-96299290D01*
X175264280Y-96286664D01*
X175273048Y-96274841D01*
X175282934Y-96263934D01*
X175293841Y-96254048D01*
X175305664Y-96245280D01*
X175318290Y-96237712D01*
X175331597Y-96231418D01*
X175345457Y-96226459D01*
X175359736Y-96222882D01*
X175374297Y-96220722D01*
X175389000Y-96220000D01*
X177039000Y-96220000D01*
X177053703Y-96220722D01*
X177053703Y-96220722D01*
G37*
D17*
X176214000Y-96520000D03*
D14*
G36*
X182003703Y-96220722D02*
G01*
X182018264Y-96222882D01*
X182032543Y-96226459D01*
X182046403Y-96231418D01*
X182059710Y-96237712D01*
X182072336Y-96245280D01*
X182084159Y-96254048D01*
X182095066Y-96263934D01*
X182104952Y-96274841D01*
X182113720Y-96286664D01*
X182121288Y-96299290D01*
X182127582Y-96312597D01*
X182132541Y-96326457D01*
X182136118Y-96340736D01*
X182138278Y-96355297D01*
X182139000Y-96370000D01*
X182139000Y-96670000D01*
X182138278Y-96684703D01*
X182136118Y-96699264D01*
X182132541Y-96713543D01*
X182127582Y-96727403D01*
X182121288Y-96740710D01*
X182113720Y-96753336D01*
X182104952Y-96765159D01*
X182095066Y-96776066D01*
X182084159Y-96785952D01*
X182072336Y-96794720D01*
X182059710Y-96802288D01*
X182046403Y-96808582D01*
X182032543Y-96813541D01*
X182018264Y-96817118D01*
X182003703Y-96819278D01*
X181989000Y-96820000D01*
X180339000Y-96820000D01*
X180324297Y-96819278D01*
X180309736Y-96817118D01*
X180295457Y-96813541D01*
X180281597Y-96808582D01*
X180268290Y-96802288D01*
X180255664Y-96794720D01*
X180243841Y-96785952D01*
X180232934Y-96776066D01*
X180223048Y-96765159D01*
X180214280Y-96753336D01*
X180206712Y-96740710D01*
X180200418Y-96727403D01*
X180195459Y-96713543D01*
X180191882Y-96699264D01*
X180189722Y-96684703D01*
X180189000Y-96670000D01*
X180189000Y-96370000D01*
X180189722Y-96355297D01*
X180191882Y-96340736D01*
X180195459Y-96326457D01*
X180200418Y-96312597D01*
X180206712Y-96299290D01*
X180214280Y-96286664D01*
X180223048Y-96274841D01*
X180232934Y-96263934D01*
X180243841Y-96254048D01*
X180255664Y-96245280D01*
X180268290Y-96237712D01*
X180281597Y-96231418D01*
X180295457Y-96226459D01*
X180309736Y-96222882D01*
X180324297Y-96220722D01*
X180339000Y-96220000D01*
X181989000Y-96220000D01*
X182003703Y-96220722D01*
X182003703Y-96220722D01*
G37*
D17*
X181164000Y-96520000D03*
D14*
G36*
X182003703Y-94950722D02*
G01*
X182018264Y-94952882D01*
X182032543Y-94956459D01*
X182046403Y-94961418D01*
X182059710Y-94967712D01*
X182072336Y-94975280D01*
X182084159Y-94984048D01*
X182095066Y-94993934D01*
X182104952Y-95004841D01*
X182113720Y-95016664D01*
X182121288Y-95029290D01*
X182127582Y-95042597D01*
X182132541Y-95056457D01*
X182136118Y-95070736D01*
X182138278Y-95085297D01*
X182139000Y-95100000D01*
X182139000Y-95400000D01*
X182138278Y-95414703D01*
X182136118Y-95429264D01*
X182132541Y-95443543D01*
X182127582Y-95457403D01*
X182121288Y-95470710D01*
X182113720Y-95483336D01*
X182104952Y-95495159D01*
X182095066Y-95506066D01*
X182084159Y-95515952D01*
X182072336Y-95524720D01*
X182059710Y-95532288D01*
X182046403Y-95538582D01*
X182032543Y-95543541D01*
X182018264Y-95547118D01*
X182003703Y-95549278D01*
X181989000Y-95550000D01*
X180339000Y-95550000D01*
X180324297Y-95549278D01*
X180309736Y-95547118D01*
X180295457Y-95543541D01*
X180281597Y-95538582D01*
X180268290Y-95532288D01*
X180255664Y-95524720D01*
X180243841Y-95515952D01*
X180232934Y-95506066D01*
X180223048Y-95495159D01*
X180214280Y-95483336D01*
X180206712Y-95470710D01*
X180200418Y-95457403D01*
X180195459Y-95443543D01*
X180191882Y-95429264D01*
X180189722Y-95414703D01*
X180189000Y-95400000D01*
X180189000Y-95100000D01*
X180189722Y-95085297D01*
X180191882Y-95070736D01*
X180195459Y-95056457D01*
X180200418Y-95042597D01*
X180206712Y-95029290D01*
X180214280Y-95016664D01*
X180223048Y-95004841D01*
X180232934Y-94993934D01*
X180243841Y-94984048D01*
X180255664Y-94975280D01*
X180268290Y-94967712D01*
X180281597Y-94961418D01*
X180295457Y-94956459D01*
X180309736Y-94952882D01*
X180324297Y-94950722D01*
X180339000Y-94950000D01*
X181989000Y-94950000D01*
X182003703Y-94950722D01*
X182003703Y-94950722D01*
G37*
D17*
X181164000Y-95250000D03*
D14*
G36*
X182003703Y-93680722D02*
G01*
X182018264Y-93682882D01*
X182032543Y-93686459D01*
X182046403Y-93691418D01*
X182059710Y-93697712D01*
X182072336Y-93705280D01*
X182084159Y-93714048D01*
X182095066Y-93723934D01*
X182104952Y-93734841D01*
X182113720Y-93746664D01*
X182121288Y-93759290D01*
X182127582Y-93772597D01*
X182132541Y-93786457D01*
X182136118Y-93800736D01*
X182138278Y-93815297D01*
X182139000Y-93830000D01*
X182139000Y-94130000D01*
X182138278Y-94144703D01*
X182136118Y-94159264D01*
X182132541Y-94173543D01*
X182127582Y-94187403D01*
X182121288Y-94200710D01*
X182113720Y-94213336D01*
X182104952Y-94225159D01*
X182095066Y-94236066D01*
X182084159Y-94245952D01*
X182072336Y-94254720D01*
X182059710Y-94262288D01*
X182046403Y-94268582D01*
X182032543Y-94273541D01*
X182018264Y-94277118D01*
X182003703Y-94279278D01*
X181989000Y-94280000D01*
X180339000Y-94280000D01*
X180324297Y-94279278D01*
X180309736Y-94277118D01*
X180295457Y-94273541D01*
X180281597Y-94268582D01*
X180268290Y-94262288D01*
X180255664Y-94254720D01*
X180243841Y-94245952D01*
X180232934Y-94236066D01*
X180223048Y-94225159D01*
X180214280Y-94213336D01*
X180206712Y-94200710D01*
X180200418Y-94187403D01*
X180195459Y-94173543D01*
X180191882Y-94159264D01*
X180189722Y-94144703D01*
X180189000Y-94130000D01*
X180189000Y-93830000D01*
X180189722Y-93815297D01*
X180191882Y-93800736D01*
X180195459Y-93786457D01*
X180200418Y-93772597D01*
X180206712Y-93759290D01*
X180214280Y-93746664D01*
X180223048Y-93734841D01*
X180232934Y-93723934D01*
X180243841Y-93714048D01*
X180255664Y-93705280D01*
X180268290Y-93697712D01*
X180281597Y-93691418D01*
X180295457Y-93686459D01*
X180309736Y-93682882D01*
X180324297Y-93680722D01*
X180339000Y-93680000D01*
X181989000Y-93680000D01*
X182003703Y-93680722D01*
X182003703Y-93680722D01*
G37*
D17*
X181164000Y-93980000D03*
D14*
G36*
X182003703Y-92410722D02*
G01*
X182018264Y-92412882D01*
X182032543Y-92416459D01*
X182046403Y-92421418D01*
X182059710Y-92427712D01*
X182072336Y-92435280D01*
X182084159Y-92444048D01*
X182095066Y-92453934D01*
X182104952Y-92464841D01*
X182113720Y-92476664D01*
X182121288Y-92489290D01*
X182127582Y-92502597D01*
X182132541Y-92516457D01*
X182136118Y-92530736D01*
X182138278Y-92545297D01*
X182139000Y-92560000D01*
X182139000Y-92860000D01*
X182138278Y-92874703D01*
X182136118Y-92889264D01*
X182132541Y-92903543D01*
X182127582Y-92917403D01*
X182121288Y-92930710D01*
X182113720Y-92943336D01*
X182104952Y-92955159D01*
X182095066Y-92966066D01*
X182084159Y-92975952D01*
X182072336Y-92984720D01*
X182059710Y-92992288D01*
X182046403Y-92998582D01*
X182032543Y-93003541D01*
X182018264Y-93007118D01*
X182003703Y-93009278D01*
X181989000Y-93010000D01*
X180339000Y-93010000D01*
X180324297Y-93009278D01*
X180309736Y-93007118D01*
X180295457Y-93003541D01*
X180281597Y-92998582D01*
X180268290Y-92992288D01*
X180255664Y-92984720D01*
X180243841Y-92975952D01*
X180232934Y-92966066D01*
X180223048Y-92955159D01*
X180214280Y-92943336D01*
X180206712Y-92930710D01*
X180200418Y-92917403D01*
X180195459Y-92903543D01*
X180191882Y-92889264D01*
X180189722Y-92874703D01*
X180189000Y-92860000D01*
X180189000Y-92560000D01*
X180189722Y-92545297D01*
X180191882Y-92530736D01*
X180195459Y-92516457D01*
X180200418Y-92502597D01*
X180206712Y-92489290D01*
X180214280Y-92476664D01*
X180223048Y-92464841D01*
X180232934Y-92453934D01*
X180243841Y-92444048D01*
X180255664Y-92435280D01*
X180268290Y-92427712D01*
X180281597Y-92421418D01*
X180295457Y-92416459D01*
X180309736Y-92412882D01*
X180324297Y-92410722D01*
X180339000Y-92410000D01*
X181989000Y-92410000D01*
X182003703Y-92410722D01*
X182003703Y-92410722D01*
G37*
D17*
X181164000Y-92710000D03*
D18*
X196088000Y-77597000D03*
D16*
X198588000Y-77597000D03*
X194564000Y-96012000D03*
D18*
X192064000Y-96012000D03*
D13*
X192532000Y-104394000D03*
D12*
X192532000Y-101854000D03*
D14*
G36*
X184751505Y-92018204D02*
G01*
X184775773Y-92021804D01*
X184799572Y-92027765D01*
X184822671Y-92036030D01*
X184844850Y-92046520D01*
X184865893Y-92059132D01*
X184885599Y-92073747D01*
X184903777Y-92090223D01*
X184920253Y-92108401D01*
X184934868Y-92128107D01*
X184947480Y-92149150D01*
X184957970Y-92171329D01*
X184966235Y-92194428D01*
X184972196Y-92218227D01*
X184975796Y-92242495D01*
X184977000Y-92266999D01*
X184977000Y-92917001D01*
X184975796Y-92941505D01*
X184972196Y-92965773D01*
X184966235Y-92989572D01*
X184957970Y-93012671D01*
X184947480Y-93034850D01*
X184934868Y-93055893D01*
X184920253Y-93075599D01*
X184903777Y-93093777D01*
X184885599Y-93110253D01*
X184865893Y-93124868D01*
X184844850Y-93137480D01*
X184822671Y-93147970D01*
X184799572Y-93156235D01*
X184775773Y-93162196D01*
X184751505Y-93165796D01*
X184727001Y-93167000D01*
X183826999Y-93167000D01*
X183802495Y-93165796D01*
X183778227Y-93162196D01*
X183754428Y-93156235D01*
X183731329Y-93147970D01*
X183709150Y-93137480D01*
X183688107Y-93124868D01*
X183668401Y-93110253D01*
X183650223Y-93093777D01*
X183633747Y-93075599D01*
X183619132Y-93055893D01*
X183606520Y-93034850D01*
X183596030Y-93012671D01*
X183587765Y-92989572D01*
X183581804Y-92965773D01*
X183578204Y-92941505D01*
X183577000Y-92917001D01*
X183577000Y-92266999D01*
X183578204Y-92242495D01*
X183581804Y-92218227D01*
X183587765Y-92194428D01*
X183596030Y-92171329D01*
X183606520Y-92149150D01*
X183619132Y-92128107D01*
X183633747Y-92108401D01*
X183650223Y-92090223D01*
X183668401Y-92073747D01*
X183688107Y-92059132D01*
X183709150Y-92046520D01*
X183731329Y-92036030D01*
X183754428Y-92027765D01*
X183778227Y-92021804D01*
X183802495Y-92018204D01*
X183826999Y-92017000D01*
X184727001Y-92017000D01*
X184751505Y-92018204D01*
X184751505Y-92018204D01*
G37*
D19*
X184277000Y-92592000D03*
D14*
G36*
X184751505Y-89968204D02*
G01*
X184775773Y-89971804D01*
X184799572Y-89977765D01*
X184822671Y-89986030D01*
X184844850Y-89996520D01*
X184865893Y-90009132D01*
X184885599Y-90023747D01*
X184903777Y-90040223D01*
X184920253Y-90058401D01*
X184934868Y-90078107D01*
X184947480Y-90099150D01*
X184957970Y-90121329D01*
X184966235Y-90144428D01*
X184972196Y-90168227D01*
X184975796Y-90192495D01*
X184977000Y-90216999D01*
X184977000Y-90867001D01*
X184975796Y-90891505D01*
X184972196Y-90915773D01*
X184966235Y-90939572D01*
X184957970Y-90962671D01*
X184947480Y-90984850D01*
X184934868Y-91005893D01*
X184920253Y-91025599D01*
X184903777Y-91043777D01*
X184885599Y-91060253D01*
X184865893Y-91074868D01*
X184844850Y-91087480D01*
X184822671Y-91097970D01*
X184799572Y-91106235D01*
X184775773Y-91112196D01*
X184751505Y-91115796D01*
X184727001Y-91117000D01*
X183826999Y-91117000D01*
X183802495Y-91115796D01*
X183778227Y-91112196D01*
X183754428Y-91106235D01*
X183731329Y-91097970D01*
X183709150Y-91087480D01*
X183688107Y-91074868D01*
X183668401Y-91060253D01*
X183650223Y-91043777D01*
X183633747Y-91025599D01*
X183619132Y-91005893D01*
X183606520Y-90984850D01*
X183596030Y-90962671D01*
X183587765Y-90939572D01*
X183581804Y-90915773D01*
X183578204Y-90891505D01*
X183577000Y-90867001D01*
X183577000Y-90216999D01*
X183578204Y-90192495D01*
X183581804Y-90168227D01*
X183587765Y-90144428D01*
X183596030Y-90121329D01*
X183606520Y-90099150D01*
X183619132Y-90078107D01*
X183633747Y-90058401D01*
X183650223Y-90040223D01*
X183668401Y-90023747D01*
X183688107Y-90009132D01*
X183709150Y-89996520D01*
X183731329Y-89986030D01*
X183754428Y-89977765D01*
X183778227Y-89971804D01*
X183802495Y-89968204D01*
X183826999Y-89967000D01*
X184727001Y-89967000D01*
X184751505Y-89968204D01*
X184751505Y-89968204D01*
G37*
D19*
X184277000Y-90542000D03*
D14*
G36*
X185095779Y-69376144D02*
G01*
X185118834Y-69379563D01*
X185141443Y-69385227D01*
X185163387Y-69393079D01*
X185184457Y-69403044D01*
X185204448Y-69415026D01*
X185223168Y-69428910D01*
X185240438Y-69444562D01*
X185256090Y-69461832D01*
X185269974Y-69480552D01*
X185281956Y-69500543D01*
X185291921Y-69521613D01*
X185299773Y-69543557D01*
X185305437Y-69566166D01*
X185308856Y-69589221D01*
X185310000Y-69612500D01*
X185310000Y-70087500D01*
X185308856Y-70110779D01*
X185305437Y-70133834D01*
X185299773Y-70156443D01*
X185291921Y-70178387D01*
X185281956Y-70199457D01*
X185269974Y-70219448D01*
X185256090Y-70238168D01*
X185240438Y-70255438D01*
X185223168Y-70271090D01*
X185204448Y-70284974D01*
X185184457Y-70296956D01*
X185163387Y-70306921D01*
X185141443Y-70314773D01*
X185118834Y-70320437D01*
X185095779Y-70323856D01*
X185072500Y-70325000D01*
X184497500Y-70325000D01*
X184474221Y-70323856D01*
X184451166Y-70320437D01*
X184428557Y-70314773D01*
X184406613Y-70306921D01*
X184385543Y-70296956D01*
X184365552Y-70284974D01*
X184346832Y-70271090D01*
X184329562Y-70255438D01*
X184313910Y-70238168D01*
X184300026Y-70219448D01*
X184288044Y-70199457D01*
X184278079Y-70178387D01*
X184270227Y-70156443D01*
X184264563Y-70133834D01*
X184261144Y-70110779D01*
X184260000Y-70087500D01*
X184260000Y-69612500D01*
X184261144Y-69589221D01*
X184264563Y-69566166D01*
X184270227Y-69543557D01*
X184278079Y-69521613D01*
X184288044Y-69500543D01*
X184300026Y-69480552D01*
X184313910Y-69461832D01*
X184329562Y-69444562D01*
X184346832Y-69428910D01*
X184365552Y-69415026D01*
X184385543Y-69403044D01*
X184406613Y-69393079D01*
X184428557Y-69385227D01*
X184451166Y-69379563D01*
X184474221Y-69376144D01*
X184497500Y-69375000D01*
X185072500Y-69375000D01*
X185095779Y-69376144D01*
X185095779Y-69376144D01*
G37*
D15*
X184785000Y-69850000D03*
D14*
G36*
X183345779Y-69376144D02*
G01*
X183368834Y-69379563D01*
X183391443Y-69385227D01*
X183413387Y-69393079D01*
X183434457Y-69403044D01*
X183454448Y-69415026D01*
X183473168Y-69428910D01*
X183490438Y-69444562D01*
X183506090Y-69461832D01*
X183519974Y-69480552D01*
X183531956Y-69500543D01*
X183541921Y-69521613D01*
X183549773Y-69543557D01*
X183555437Y-69566166D01*
X183558856Y-69589221D01*
X183560000Y-69612500D01*
X183560000Y-70087500D01*
X183558856Y-70110779D01*
X183555437Y-70133834D01*
X183549773Y-70156443D01*
X183541921Y-70178387D01*
X183531956Y-70199457D01*
X183519974Y-70219448D01*
X183506090Y-70238168D01*
X183490438Y-70255438D01*
X183473168Y-70271090D01*
X183454448Y-70284974D01*
X183434457Y-70296956D01*
X183413387Y-70306921D01*
X183391443Y-70314773D01*
X183368834Y-70320437D01*
X183345779Y-70323856D01*
X183322500Y-70325000D01*
X182747500Y-70325000D01*
X182724221Y-70323856D01*
X182701166Y-70320437D01*
X182678557Y-70314773D01*
X182656613Y-70306921D01*
X182635543Y-70296956D01*
X182615552Y-70284974D01*
X182596832Y-70271090D01*
X182579562Y-70255438D01*
X182563910Y-70238168D01*
X182550026Y-70219448D01*
X182538044Y-70199457D01*
X182528079Y-70178387D01*
X182520227Y-70156443D01*
X182514563Y-70133834D01*
X182511144Y-70110779D01*
X182510000Y-70087500D01*
X182510000Y-69612500D01*
X182511144Y-69589221D01*
X182514563Y-69566166D01*
X182520227Y-69543557D01*
X182528079Y-69521613D01*
X182538044Y-69500543D01*
X182550026Y-69480552D01*
X182563910Y-69461832D01*
X182579562Y-69444562D01*
X182596832Y-69428910D01*
X182615552Y-69415026D01*
X182635543Y-69403044D01*
X182656613Y-69393079D01*
X182678557Y-69385227D01*
X182701166Y-69379563D01*
X182724221Y-69376144D01*
X182747500Y-69375000D01*
X183322500Y-69375000D01*
X183345779Y-69376144D01*
X183345779Y-69376144D01*
G37*
D15*
X183035000Y-69850000D03*
D14*
G36*
X179521779Y-69376144D02*
G01*
X179544834Y-69379563D01*
X179567443Y-69385227D01*
X179589387Y-69393079D01*
X179610457Y-69403044D01*
X179630448Y-69415026D01*
X179649168Y-69428910D01*
X179666438Y-69444562D01*
X179682090Y-69461832D01*
X179695974Y-69480552D01*
X179707956Y-69500543D01*
X179717921Y-69521613D01*
X179725773Y-69543557D01*
X179731437Y-69566166D01*
X179734856Y-69589221D01*
X179736000Y-69612500D01*
X179736000Y-70087500D01*
X179734856Y-70110779D01*
X179731437Y-70133834D01*
X179725773Y-70156443D01*
X179717921Y-70178387D01*
X179707956Y-70199457D01*
X179695974Y-70219448D01*
X179682090Y-70238168D01*
X179666438Y-70255438D01*
X179649168Y-70271090D01*
X179630448Y-70284974D01*
X179610457Y-70296956D01*
X179589387Y-70306921D01*
X179567443Y-70314773D01*
X179544834Y-70320437D01*
X179521779Y-70323856D01*
X179498500Y-70325000D01*
X178923500Y-70325000D01*
X178900221Y-70323856D01*
X178877166Y-70320437D01*
X178854557Y-70314773D01*
X178832613Y-70306921D01*
X178811543Y-70296956D01*
X178791552Y-70284974D01*
X178772832Y-70271090D01*
X178755562Y-70255438D01*
X178739910Y-70238168D01*
X178726026Y-70219448D01*
X178714044Y-70199457D01*
X178704079Y-70178387D01*
X178696227Y-70156443D01*
X178690563Y-70133834D01*
X178687144Y-70110779D01*
X178686000Y-70087500D01*
X178686000Y-69612500D01*
X178687144Y-69589221D01*
X178690563Y-69566166D01*
X178696227Y-69543557D01*
X178704079Y-69521613D01*
X178714044Y-69500543D01*
X178726026Y-69480552D01*
X178739910Y-69461832D01*
X178755562Y-69444562D01*
X178772832Y-69428910D01*
X178791552Y-69415026D01*
X178811543Y-69403044D01*
X178832613Y-69393079D01*
X178854557Y-69385227D01*
X178877166Y-69379563D01*
X178900221Y-69376144D01*
X178923500Y-69375000D01*
X179498500Y-69375000D01*
X179521779Y-69376144D01*
X179521779Y-69376144D01*
G37*
D15*
X179211000Y-69850000D03*
D14*
G36*
X181271779Y-69376144D02*
G01*
X181294834Y-69379563D01*
X181317443Y-69385227D01*
X181339387Y-69393079D01*
X181360457Y-69403044D01*
X181380448Y-69415026D01*
X181399168Y-69428910D01*
X181416438Y-69444562D01*
X181432090Y-69461832D01*
X181445974Y-69480552D01*
X181457956Y-69500543D01*
X181467921Y-69521613D01*
X181475773Y-69543557D01*
X181481437Y-69566166D01*
X181484856Y-69589221D01*
X181486000Y-69612500D01*
X181486000Y-70087500D01*
X181484856Y-70110779D01*
X181481437Y-70133834D01*
X181475773Y-70156443D01*
X181467921Y-70178387D01*
X181457956Y-70199457D01*
X181445974Y-70219448D01*
X181432090Y-70238168D01*
X181416438Y-70255438D01*
X181399168Y-70271090D01*
X181380448Y-70284974D01*
X181360457Y-70296956D01*
X181339387Y-70306921D01*
X181317443Y-70314773D01*
X181294834Y-70320437D01*
X181271779Y-70323856D01*
X181248500Y-70325000D01*
X180673500Y-70325000D01*
X180650221Y-70323856D01*
X180627166Y-70320437D01*
X180604557Y-70314773D01*
X180582613Y-70306921D01*
X180561543Y-70296956D01*
X180541552Y-70284974D01*
X180522832Y-70271090D01*
X180505562Y-70255438D01*
X180489910Y-70238168D01*
X180476026Y-70219448D01*
X180464044Y-70199457D01*
X180454079Y-70178387D01*
X180446227Y-70156443D01*
X180440563Y-70133834D01*
X180437144Y-70110779D01*
X180436000Y-70087500D01*
X180436000Y-69612500D01*
X180437144Y-69589221D01*
X180440563Y-69566166D01*
X180446227Y-69543557D01*
X180454079Y-69521613D01*
X180464044Y-69500543D01*
X180476026Y-69480552D01*
X180489910Y-69461832D01*
X180505562Y-69444562D01*
X180522832Y-69428910D01*
X180541552Y-69415026D01*
X180561543Y-69403044D01*
X180582613Y-69393079D01*
X180604557Y-69385227D01*
X180627166Y-69379563D01*
X180650221Y-69376144D01*
X180673500Y-69375000D01*
X181248500Y-69375000D01*
X181271779Y-69376144D01*
X181271779Y-69376144D01*
G37*
D15*
X180961000Y-69850000D03*
D20*
X174244000Y-81203800D03*
D21*
X174244000Y-68503800D03*
X176784000Y-81203800D03*
D20*
X176784000Y-68503800D03*
D13*
X186944000Y-96774000D03*
D12*
X186944000Y-99314000D03*
X186944000Y-101854000D03*
X186944000Y-104394000D03*
D13*
X179959000Y-79375000D03*
D12*
X179959000Y-76835000D03*
X179959000Y-74295000D03*
D22*
X168656000Y-84709000D03*
X168656000Y-82169000D03*
X168656000Y-79629000D03*
X168656000Y-77089000D03*
D23*
X168656000Y-74549000D03*
D22*
X168656000Y-101854000D03*
X168656000Y-99314000D03*
X168656000Y-96774000D03*
X168656000Y-94234000D03*
D23*
X168656000Y-91694000D03*
X178562000Y-65659000D03*
D22*
X181102000Y-65659000D03*
X183642000Y-65659000D03*
X186182000Y-65659000D03*
X188722000Y-65659000D03*
D24*
X189611000Y-87503000D03*
X186309000Y-90424000D03*
X184277000Y-88519000D03*
X182245000Y-90551000D03*
X196088000Y-97536000D03*
X196088000Y-94615000D03*
X193675000Y-94107000D03*
X193675000Y-97917000D03*
X178054000Y-102235000D03*
X175641000Y-102235000D03*
X176784000Y-102235000D03*
X174752000Y-109982000D03*
X172847000Y-112141000D03*
X193167000Y-71501000D03*
X194183000Y-73025000D03*
X193294000Y-79121000D03*
X192024000Y-80137000D03*
X199009000Y-74168000D03*
X200152000Y-75184000D03*
X200279000Y-80010000D03*
X200660000Y-78486000D03*
X178054000Y-95123000D03*
X189103000Y-90805000D03*
X178054000Y-96520000D03*
X184023000Y-98679000D03*
X180086000Y-91059000D03*
X190754000Y-98679000D03*
X197993000Y-93345000D03*
X197739000Y-98933000D03*
D25*
X192532000Y-101854000D02*
X192532000Y-100330000D01*
X192064000Y-99862000D02*
X192064000Y-96012000D01*
X192532000Y-100330000D02*
X192064000Y-99862000D01*
D26*
X184159000Y-92710000D02*
X184277000Y-92592000D01*
X181164000Y-92710000D02*
X184159000Y-92710000D01*
X189611000Y-87503000D02*
X191036000Y-87503000D01*
D27*
X189045315Y-87503000D02*
X189611000Y-87503000D01*
X185293000Y-87503000D02*
X189045315Y-87503000D01*
X181864000Y-84074000D02*
X185293000Y-87503000D01*
X179959000Y-84074000D02*
X181864000Y-84074000D01*
D25*
X185077000Y-92592000D02*
X184277000Y-92592000D01*
X186572000Y-92592000D02*
X185077000Y-92592000D01*
X189992000Y-96012000D02*
X186572000Y-92592000D01*
X192064000Y-96012000D02*
X189992000Y-96012000D01*
D27*
X168910000Y-76835000D02*
X168656000Y-77089000D01*
X184785000Y-69850000D02*
X184785000Y-71374000D01*
X184785000Y-71374000D02*
X183769000Y-72390000D01*
X183769000Y-72390000D02*
X183769000Y-80899000D01*
X183769000Y-80899000D02*
X182753000Y-81915000D01*
X182753000Y-81915000D02*
X180848000Y-81915000D01*
X179959000Y-82804000D02*
X179959000Y-84074000D01*
X180848000Y-81915000D02*
X179959000Y-82804000D01*
X176214000Y-93980000D02*
X177546000Y-93980000D01*
X177419000Y-89623000D02*
X177419000Y-88519000D01*
X177722410Y-89926410D02*
X177419000Y-89623000D01*
X177722410Y-93803590D02*
X177722410Y-89926410D01*
X177546000Y-93980000D02*
X177722410Y-93803590D01*
X175139000Y-93980000D02*
X176214000Y-93980000D01*
X173101000Y-96018000D02*
X175139000Y-93980000D01*
X173101000Y-102997000D02*
X173101000Y-96018000D01*
X177292000Y-107188000D02*
X173101000Y-102997000D01*
X177292000Y-112141000D02*
X177292000Y-107188000D01*
X192786000Y-87503000D02*
X196243000Y-87503000D01*
X193411000Y-90678000D02*
X196229000Y-90678000D01*
X192786000Y-90678000D02*
X193411000Y-90678000D01*
D26*
X186563000Y-75565000D02*
X186309000Y-75311000D01*
X186563000Y-84074000D02*
X186563000Y-75565000D01*
D27*
X183007000Y-99822000D02*
X182372000Y-100457000D01*
X183007000Y-96901000D02*
X183007000Y-99822000D01*
X182626000Y-96520000D02*
X183007000Y-96901000D01*
X182372000Y-100457000D02*
X181737000Y-100457000D01*
X181164000Y-96520000D02*
X182626000Y-96520000D01*
X184912000Y-103632000D02*
X181737000Y-100457000D01*
X184912000Y-112141000D02*
X184912000Y-103632000D01*
D28*
X195834000Y-77851000D02*
X196088000Y-77597000D01*
D26*
X195834000Y-84074000D02*
X195834000Y-77851000D01*
D27*
X191036000Y-90103000D02*
X191985000Y-89154000D01*
X191036000Y-90678000D02*
X191036000Y-90103000D01*
X191985000Y-89154000D02*
X197612000Y-89154000D01*
X197993000Y-88773000D02*
X197993000Y-87503000D01*
X197612000Y-89154000D02*
X197993000Y-88773000D01*
X179832000Y-112141000D02*
X179832000Y-108458000D01*
X179832000Y-108458000D02*
X173990000Y-102616000D01*
X175139000Y-95250000D02*
X176214000Y-95250000D01*
X173990000Y-96399000D02*
X175139000Y-95250000D01*
X173990000Y-102616000D02*
X173990000Y-96399000D01*
X176214000Y-95250000D02*
X177289000Y-95250000D01*
X177289000Y-95250000D02*
X177927000Y-95250000D01*
X177927000Y-95250000D02*
X178054000Y-95123000D01*
X190909000Y-90805000D02*
X191036000Y-90678000D01*
X189103000Y-90805000D02*
X190909000Y-90805000D01*
X178943000Y-97409000D02*
X178054000Y-96520000D01*
X178054000Y-96520000D02*
X176214000Y-96520000D01*
X182372000Y-104118566D02*
X178943000Y-100689566D01*
X178943000Y-100689566D02*
X178943000Y-97409000D01*
X182372000Y-112141000D02*
X182372000Y-104118566D01*
D26*
X198374000Y-85276081D02*
X197925081Y-85725000D01*
X198374000Y-84074000D02*
X198374000Y-85276081D01*
X190754000Y-85725000D02*
X189103000Y-84074000D01*
X197925081Y-85725000D02*
X190754000Y-85725000D01*
D27*
X183515000Y-95250000D02*
X184531000Y-96266000D01*
X181164000Y-95250000D02*
X183515000Y-95250000D01*
D26*
X181164000Y-95250000D02*
X179578000Y-95250000D01*
X179578000Y-95250000D02*
X178689000Y-94361000D01*
X178689000Y-89789000D02*
X179959000Y-88519000D01*
X178689000Y-94361000D02*
X178689000Y-89789000D01*
D28*
X187452000Y-104902000D02*
X186944000Y-104394000D01*
X187452000Y-112141000D02*
X187452000Y-104902000D01*
X184531000Y-98171000D02*
X184023000Y-98679000D01*
X184531000Y-96266000D02*
X184531000Y-98171000D01*
D27*
X187452000Y-102362000D02*
X186944000Y-101854000D01*
X181164000Y-93980000D02*
X183261000Y-93980000D01*
X183261000Y-93980000D02*
X185166000Y-95885000D01*
X185166000Y-95885000D02*
X185166000Y-97536000D01*
X181164000Y-93980000D02*
X179959000Y-93980000D01*
X179959000Y-93980000D02*
X179832000Y-93980000D01*
X179655590Y-93803590D02*
X179655590Y-91489410D01*
X179832000Y-93980000D02*
X179655590Y-93803590D01*
X179655590Y-91489410D02*
X180086000Y-91059000D01*
D28*
X185166000Y-100076000D02*
X186944000Y-101854000D01*
X185166000Y-97536000D02*
X185166000Y-100076000D01*
X189992000Y-104902000D02*
X186944000Y-101854000D01*
X189992000Y-112141000D02*
X189992000Y-104902000D01*
D25*
X192532000Y-112141000D02*
X192532000Y-104394000D01*
D28*
X183035000Y-69850000D02*
X180961000Y-69850000D01*
X180961000Y-73293000D02*
X180961000Y-69850000D01*
X179959000Y-74295000D02*
X180961000Y-73293000D01*
D27*
X174244000Y-69457000D02*
X174764000Y-69977000D01*
X174244000Y-68453000D02*
X174244000Y-69457000D01*
X174764000Y-69977000D02*
X177165000Y-69977000D01*
X177165000Y-69977000D02*
X179451000Y-67691000D01*
X184150000Y-67691000D02*
X186182000Y-65659000D01*
X179451000Y-67691000D02*
X184150000Y-67691000D01*
X179211000Y-71487000D02*
X179211000Y-69850000D01*
X176784000Y-73914000D02*
X179211000Y-71487000D01*
X176784000Y-81153000D02*
X176784000Y-73914000D01*
X179959000Y-80479000D02*
X178689000Y-81749000D01*
X179959000Y-79375000D02*
X179959000Y-80479000D01*
X178689000Y-81749000D02*
X178689000Y-85090000D01*
X169505999Y-85558999D02*
X168656000Y-84709000D01*
X178220001Y-85558999D02*
X169505999Y-85558999D01*
X178689000Y-85090000D02*
X178220001Y-85558999D01*
D28*
X188044000Y-96774000D02*
X189949000Y-98679000D01*
X186944000Y-96774000D02*
X188044000Y-96774000D01*
X189949000Y-98679000D02*
X190754000Y-98679000D01*
X197993000Y-93345000D02*
X197993000Y-98679000D01*
X197993000Y-98679000D02*
X197739000Y-98933000D01*
D27*
G36*
X201474001Y-113590000D02*
G01*
X192870954Y-113590000D01*
X193103034Y-113519599D01*
X193361014Y-113381706D01*
X193587134Y-113196134D01*
X193772706Y-112970014D01*
X193910599Y-112712034D01*
X193995513Y-112432111D01*
X194024185Y-112141000D01*
X193995513Y-111849889D01*
X193910599Y-111569966D01*
X193772706Y-111311986D01*
X193587134Y-111085866D01*
X193471800Y-110991214D01*
X193471800Y-110128098D01*
X195862000Y-110128098D01*
X195862000Y-110597902D01*
X195953654Y-111058679D01*
X196133440Y-111492721D01*
X196394450Y-111883349D01*
X196726651Y-112215550D01*
X197117279Y-112476560D01*
X197551321Y-112656346D01*
X198012098Y-112748000D01*
X198481902Y-112748000D01*
X198942679Y-112656346D01*
X199376721Y-112476560D01*
X199767349Y-112215550D01*
X200099550Y-111883349D01*
X200360560Y-111492721D01*
X200540346Y-111058679D01*
X200632000Y-110597902D01*
X200632000Y-110128098D01*
X200540346Y-109667321D01*
X200360560Y-109233279D01*
X200099550Y-108842651D01*
X199767349Y-108510450D01*
X199376721Y-108249440D01*
X198942679Y-108069654D01*
X198481902Y-107978000D01*
X198012098Y-107978000D01*
X197551321Y-108069654D01*
X197117279Y-108249440D01*
X196726651Y-108510450D01*
X196394450Y-108842651D01*
X196133440Y-109233279D01*
X195953654Y-109667321D01*
X195862000Y-110128098D01*
X193471800Y-110128098D01*
X193471800Y-105873228D01*
X193506482Y-105869812D01*
X193626180Y-105833502D01*
X193736494Y-105774537D01*
X193833185Y-105695185D01*
X193912537Y-105598494D01*
X193971502Y-105488180D01*
X194007812Y-105368482D01*
X194020072Y-105244000D01*
X194020072Y-103544000D01*
X194007812Y-103419518D01*
X193971502Y-103299820D01*
X193912537Y-103189506D01*
X193833185Y-103092815D01*
X193736494Y-103013463D01*
X193626180Y-102954498D01*
X193557313Y-102933607D01*
X193587134Y-102909134D01*
X193772706Y-102683014D01*
X193910599Y-102425034D01*
X193995513Y-102145111D01*
X194024185Y-101854000D01*
X193995513Y-101562889D01*
X193910599Y-101282966D01*
X193772706Y-101024986D01*
X193587134Y-100798866D01*
X193471800Y-100704214D01*
X193471800Y-100376157D01*
X193476346Y-100330000D01*
X193471800Y-100283843D01*
X193471800Y-100283833D01*
X193458202Y-100145767D01*
X193404463Y-99968614D01*
X193317196Y-99805349D01*
X193199754Y-99662246D01*
X193163885Y-99632809D01*
X193003800Y-99472724D01*
X193003800Y-98831061D01*
X196704000Y-98831061D01*
X196704000Y-99034939D01*
X196743774Y-99234898D01*
X196821795Y-99423256D01*
X196935063Y-99592774D01*
X197079226Y-99736937D01*
X197248744Y-99850205D01*
X197437102Y-99928226D01*
X197637061Y-99968000D01*
X197840939Y-99968000D01*
X198040898Y-99928226D01*
X198229256Y-99850205D01*
X198398774Y-99736937D01*
X198542937Y-99592774D01*
X198656205Y-99423256D01*
X198734226Y-99234898D01*
X198774000Y-99034939D01*
X198774000Y-98831061D01*
X198752397Y-98722455D01*
X198753000Y-98716333D01*
X198753000Y-98716324D01*
X198756676Y-98679001D01*
X198753000Y-98641678D01*
X198753000Y-94048711D01*
X198796937Y-94004774D01*
X198910205Y-93835256D01*
X198988226Y-93646898D01*
X199028000Y-93446939D01*
X199028000Y-93243061D01*
X198988226Y-93043102D01*
X198910205Y-92854744D01*
X198796937Y-92685226D01*
X198652774Y-92541063D01*
X198483256Y-92427795D01*
X198294898Y-92349774D01*
X198094939Y-92310000D01*
X197891061Y-92310000D01*
X197691102Y-92349774D01*
X197502744Y-92427795D01*
X197333226Y-92541063D01*
X197189063Y-92685226D01*
X197075795Y-92854744D01*
X196997774Y-93043102D01*
X196958000Y-93243061D01*
X196958000Y-93446939D01*
X196997774Y-93646898D01*
X197075795Y-93835256D01*
X197189063Y-94004774D01*
X197233000Y-94048711D01*
X197233001Y-98026314D01*
X197079226Y-98129063D01*
X196935063Y-98273226D01*
X196821795Y-98442744D01*
X196743774Y-98631102D01*
X196704000Y-98831061D01*
X193003800Y-98831061D01*
X193003800Y-97433165D01*
X193108180Y-97401502D01*
X193218494Y-97342537D01*
X193315185Y-97263185D01*
X193394537Y-97166494D01*
X193453502Y-97056180D01*
X193469117Y-97004702D01*
X193750903Y-97004702D01*
X193822486Y-97248671D01*
X194077996Y-97369571D01*
X194352184Y-97438300D01*
X194634512Y-97452217D01*
X194914130Y-97410787D01*
X195180292Y-97315603D01*
X195305514Y-97248671D01*
X195377097Y-97004702D01*
X194564000Y-96191605D01*
X193750903Y-97004702D01*
X193469117Y-97004702D01*
X193489812Y-96936482D01*
X193502072Y-96812000D01*
X193502072Y-96804785D01*
X193571298Y-96825097D01*
X194384395Y-96012000D01*
X194743605Y-96012000D01*
X195556702Y-96825097D01*
X195800671Y-96753514D01*
X195921571Y-96498004D01*
X195990300Y-96223816D01*
X196004217Y-95941488D01*
X195962787Y-95661870D01*
X195867603Y-95395708D01*
X195800671Y-95270486D01*
X195556702Y-95198903D01*
X194743605Y-96012000D01*
X194384395Y-96012000D01*
X193571298Y-95198903D01*
X193502072Y-95219215D01*
X193502072Y-95212000D01*
X193489812Y-95087518D01*
X193469118Y-95019298D01*
X193750903Y-95019298D01*
X194564000Y-95832395D01*
X195377097Y-95019298D01*
X195305514Y-94775329D01*
X195050004Y-94654429D01*
X194775816Y-94585700D01*
X194493488Y-94571783D01*
X194213870Y-94613213D01*
X193947708Y-94708397D01*
X193822486Y-94775329D01*
X193750903Y-95019298D01*
X193469118Y-95019298D01*
X193453502Y-94967820D01*
X193394537Y-94857506D01*
X193315185Y-94760815D01*
X193218494Y-94681463D01*
X193108180Y-94622498D01*
X192988482Y-94586188D01*
X192864000Y-94573928D01*
X191264000Y-94573928D01*
X191139518Y-94586188D01*
X191019820Y-94622498D01*
X190909506Y-94681463D01*
X190812815Y-94760815D01*
X190733463Y-94857506D01*
X190674498Y-94967820D01*
X190642835Y-95072200D01*
X190381278Y-95072200D01*
X187269191Y-91960115D01*
X187239754Y-91924246D01*
X187096651Y-91806804D01*
X186933386Y-91719537D01*
X186756233Y-91665798D01*
X186618167Y-91652200D01*
X186618157Y-91652200D01*
X186572000Y-91647654D01*
X186525843Y-91652200D01*
X185365764Y-91652200D01*
X185354962Y-91639038D01*
X185348406Y-91633658D01*
X185428185Y-91568185D01*
X185507537Y-91471494D01*
X185566502Y-91361180D01*
X185602812Y-91241482D01*
X185615072Y-91117000D01*
X185612000Y-90827750D01*
X185453250Y-90669000D01*
X184404000Y-90669000D01*
X184404000Y-90689000D01*
X184150000Y-90689000D01*
X184150000Y-90669000D01*
X183100750Y-90669000D01*
X182942000Y-90827750D01*
X182938928Y-91117000D01*
X182951188Y-91241482D01*
X182987498Y-91361180D01*
X183046463Y-91471494D01*
X183125815Y-91568185D01*
X183205594Y-91633658D01*
X183199038Y-91639038D01*
X183088595Y-91773613D01*
X183036113Y-91871800D01*
X182365199Y-91871800D01*
X182290582Y-91831916D01*
X182142745Y-91787071D01*
X181989000Y-91771928D01*
X180836783Y-91771928D01*
X180889937Y-91718774D01*
X181003205Y-91549256D01*
X181081226Y-91360898D01*
X181121000Y-91160939D01*
X181121000Y-90957061D01*
X181081226Y-90757102D01*
X181003205Y-90568744D01*
X180889937Y-90399226D01*
X180745774Y-90255063D01*
X180576256Y-90141795D01*
X180387898Y-90063774D01*
X180187939Y-90024000D01*
X179984061Y-90024000D01*
X179784102Y-90063774D01*
X179595744Y-90141795D01*
X179527200Y-90187595D01*
X179527200Y-90136193D01*
X179679716Y-89983678D01*
X179886050Y-90004000D01*
X180031950Y-90004000D01*
X180250111Y-89982513D01*
X180301250Y-89967000D01*
X182938928Y-89967000D01*
X182942000Y-90256250D01*
X183100750Y-90415000D01*
X184150000Y-90415000D01*
X184150000Y-89490750D01*
X184404000Y-89490750D01*
X184404000Y-90415000D01*
X185453250Y-90415000D01*
X185612000Y-90256250D01*
X185615072Y-89967000D01*
X185602812Y-89842518D01*
X185566502Y-89722820D01*
X185507537Y-89612506D01*
X185428185Y-89515815D01*
X185331494Y-89436463D01*
X185221180Y-89377498D01*
X185101482Y-89341188D01*
X184977000Y-89328928D01*
X184562750Y-89332000D01*
X184404000Y-89490750D01*
X184150000Y-89490750D01*
X183991250Y-89332000D01*
X183577000Y-89328928D01*
X183452518Y-89341188D01*
X183332820Y-89377498D01*
X183222506Y-89436463D01*
X183125815Y-89515815D01*
X183046463Y-89612506D01*
X182987498Y-89722820D01*
X182951188Y-89842518D01*
X182938928Y-89967000D01*
X180301250Y-89967000D01*
X180530034Y-89897599D01*
X180788014Y-89759706D01*
X181014134Y-89574134D01*
X181199706Y-89348014D01*
X181337599Y-89090034D01*
X181422513Y-88810111D01*
X181451185Y-88519000D01*
X181422513Y-88227889D01*
X181337599Y-87947966D01*
X181199706Y-87689986D01*
X181014134Y-87463866D01*
X180788014Y-87278294D01*
X180530034Y-87140401D01*
X180250111Y-87055487D01*
X180031950Y-87034000D01*
X179886050Y-87034000D01*
X179667889Y-87055487D01*
X179387966Y-87140401D01*
X179129986Y-87278294D01*
X178903866Y-87463866D01*
X178879393Y-87493687D01*
X178858502Y-87424820D01*
X178799537Y-87314506D01*
X178720185Y-87217815D01*
X178623494Y-87138463D01*
X178513180Y-87079498D01*
X178393482Y-87043188D01*
X178269000Y-87030928D01*
X176569000Y-87030928D01*
X176444518Y-87043188D01*
X176324820Y-87079498D01*
X176214506Y-87138463D01*
X176117815Y-87217815D01*
X176038463Y-87314506D01*
X175979498Y-87424820D01*
X175943188Y-87544518D01*
X175930928Y-87669000D01*
X175930928Y-89369000D01*
X175943188Y-89493482D01*
X175979498Y-89613180D01*
X176038463Y-89723494D01*
X176117815Y-89820185D01*
X176214506Y-89899537D01*
X176324820Y-89958502D01*
X176444518Y-89994812D01*
X176569000Y-90007072D01*
X176760269Y-90007072D01*
X176782355Y-90048392D01*
X176804839Y-90075788D01*
X176877578Y-90164422D01*
X176906655Y-90188284D01*
X176960411Y-90242041D01*
X176960411Y-91772947D01*
X176499750Y-91775000D01*
X176341000Y-91933750D01*
X176341000Y-92583000D01*
X176361000Y-92583000D01*
X176361000Y-92837000D01*
X176341000Y-92837000D01*
X176341000Y-92857000D01*
X176087000Y-92857000D01*
X176087000Y-92837000D01*
X174762750Y-92837000D01*
X174604000Y-92995750D01*
X174600928Y-93010000D01*
X174613188Y-93134482D01*
X174649498Y-93254180D01*
X174702178Y-93352735D01*
X174597578Y-93438578D01*
X174573721Y-93467648D01*
X172588649Y-95452721D01*
X172559579Y-95476578D01*
X172535722Y-95505648D01*
X172535721Y-95505649D01*
X172464355Y-95592608D01*
X172393599Y-95724985D01*
X172350027Y-95868622D01*
X172335314Y-96018000D01*
X172339001Y-96055433D01*
X172339000Y-102959577D01*
X172335314Y-102997000D01*
X172339000Y-103034423D01*
X172339000Y-103034425D01*
X172350026Y-103146377D01*
X172393598Y-103290014D01*
X172419710Y-103338866D01*
X172464355Y-103422392D01*
X172477985Y-103439000D01*
X172559578Y-103538422D01*
X172588654Y-103562284D01*
X176530001Y-107503632D01*
X176530000Y-110864474D01*
X176462986Y-110900294D01*
X176236866Y-111085866D01*
X176212393Y-111115687D01*
X176191502Y-111046820D01*
X176132537Y-110936506D01*
X176053185Y-110839815D01*
X175956494Y-110760463D01*
X175846180Y-110701498D01*
X175726482Y-110665188D01*
X175602000Y-110652928D01*
X175037750Y-110656000D01*
X174879000Y-110814750D01*
X174879000Y-112014000D01*
X174899000Y-112014000D01*
X174899000Y-112268000D01*
X174879000Y-112268000D01*
X174879000Y-112288000D01*
X174625000Y-112288000D01*
X174625000Y-112268000D01*
X173425750Y-112268000D01*
X173267000Y-112426750D01*
X173263928Y-112991000D01*
X173276188Y-113115482D01*
X173312498Y-113235180D01*
X173371463Y-113345494D01*
X173450815Y-113442185D01*
X173547506Y-113521537D01*
X173657820Y-113580502D01*
X173689131Y-113590000D01*
X165810000Y-113590000D01*
X165810000Y-110128098D01*
X166652000Y-110128098D01*
X166652000Y-110597902D01*
X166743654Y-111058679D01*
X166923440Y-111492721D01*
X167184450Y-111883349D01*
X167516651Y-112215550D01*
X167907279Y-112476560D01*
X168341321Y-112656346D01*
X168802098Y-112748000D01*
X169271902Y-112748000D01*
X169732679Y-112656346D01*
X170166721Y-112476560D01*
X170557349Y-112215550D01*
X170889550Y-111883349D01*
X171150560Y-111492721D01*
X171234115Y-111291000D01*
X173263928Y-111291000D01*
X173267000Y-111855250D01*
X173425750Y-112014000D01*
X174625000Y-112014000D01*
X174625000Y-110814750D01*
X174466250Y-110656000D01*
X173902000Y-110652928D01*
X173777518Y-110665188D01*
X173657820Y-110701498D01*
X173547506Y-110760463D01*
X173450815Y-110839815D01*
X173371463Y-110936506D01*
X173312498Y-111046820D01*
X173276188Y-111166518D01*
X173263928Y-111291000D01*
X171234115Y-111291000D01*
X171330346Y-111058679D01*
X171422000Y-110597902D01*
X171422000Y-110128098D01*
X171330346Y-109667321D01*
X171150560Y-109233279D01*
X170889550Y-108842651D01*
X170557349Y-108510450D01*
X170166721Y-108249440D01*
X169732679Y-108069654D01*
X169271902Y-107978000D01*
X168802098Y-107978000D01*
X168341321Y-108069654D01*
X167907279Y-108249440D01*
X167516651Y-108510450D01*
X167184450Y-108842651D01*
X166923440Y-109233279D01*
X166743654Y-109667321D01*
X166652000Y-110128098D01*
X165810000Y-110128098D01*
X165810000Y-94234000D01*
X167063331Y-94234000D01*
X167093934Y-94544714D01*
X167184566Y-94843488D01*
X167331744Y-95118839D01*
X167529813Y-95360187D01*
X167705050Y-95504000D01*
X167529813Y-95647813D01*
X167331744Y-95889161D01*
X167184566Y-96164512D01*
X167093934Y-96463286D01*
X167063331Y-96774000D01*
X167093934Y-97084714D01*
X167184566Y-97383488D01*
X167331744Y-97658839D01*
X167529813Y-97900187D01*
X167705050Y-98044000D01*
X167529813Y-98187813D01*
X167331744Y-98429161D01*
X167184566Y-98704512D01*
X167093934Y-99003286D01*
X167063331Y-99314000D01*
X167093934Y-99624714D01*
X167184566Y-99923488D01*
X167331744Y-100198839D01*
X167529813Y-100440187D01*
X167705050Y-100584000D01*
X167529813Y-100727813D01*
X167331744Y-100969161D01*
X167184566Y-101244512D01*
X167093934Y-101543286D01*
X167063331Y-101854000D01*
X167093934Y-102164714D01*
X167184566Y-102463488D01*
X167331744Y-102738839D01*
X167529813Y-102980187D01*
X167771161Y-103178256D01*
X168046512Y-103325434D01*
X168345286Y-103416066D01*
X168578136Y-103439000D01*
X168733864Y-103439000D01*
X168966714Y-103416066D01*
X169265488Y-103325434D01*
X169540839Y-103178256D01*
X169782187Y-102980187D01*
X169980256Y-102738839D01*
X170127434Y-102463488D01*
X170218066Y-102164714D01*
X170248669Y-101854000D01*
X170218066Y-101543286D01*
X170127434Y-101244512D01*
X169980256Y-100969161D01*
X169782187Y-100727813D01*
X169606950Y-100584000D01*
X169782187Y-100440187D01*
X169980256Y-100198839D01*
X170127434Y-99923488D01*
X170218066Y-99624714D01*
X170248669Y-99314000D01*
X170218066Y-99003286D01*
X170127434Y-98704512D01*
X169980256Y-98429161D01*
X169782187Y-98187813D01*
X169606950Y-98044000D01*
X169782187Y-97900187D01*
X169980256Y-97658839D01*
X170127434Y-97383488D01*
X170218066Y-97084714D01*
X170248669Y-96774000D01*
X170218066Y-96463286D01*
X170127434Y-96164512D01*
X169980256Y-95889161D01*
X169782187Y-95647813D01*
X169606950Y-95504000D01*
X169782187Y-95360187D01*
X169980256Y-95118839D01*
X170127434Y-94843488D01*
X170218066Y-94544714D01*
X170248669Y-94234000D01*
X170218066Y-93923286D01*
X170127434Y-93624512D01*
X169980256Y-93349161D01*
X169874617Y-93220440D01*
X169960494Y-93174537D01*
X170057185Y-93095185D01*
X170136537Y-92998494D01*
X170195502Y-92888180D01*
X170231812Y-92768482D01*
X170244072Y-92644000D01*
X170244072Y-92410000D01*
X174600928Y-92410000D01*
X174604000Y-92424250D01*
X174762750Y-92583000D01*
X176087000Y-92583000D01*
X176087000Y-91933750D01*
X175928250Y-91775000D01*
X175239000Y-91771928D01*
X175114518Y-91784188D01*
X174994820Y-91820498D01*
X174884506Y-91879463D01*
X174787815Y-91958815D01*
X174708463Y-92055506D01*
X174649498Y-92165820D01*
X174613188Y-92285518D01*
X174600928Y-92410000D01*
X170244072Y-92410000D01*
X170244072Y-90744000D01*
X170231812Y-90619518D01*
X170195502Y-90499820D01*
X170136537Y-90389506D01*
X170057185Y-90292815D01*
X169960494Y-90213463D01*
X169850180Y-90154498D01*
X169730482Y-90118188D01*
X169606000Y-90105928D01*
X167706000Y-90105928D01*
X167581518Y-90118188D01*
X167461820Y-90154498D01*
X167351506Y-90213463D01*
X167254815Y-90292815D01*
X167175463Y-90389506D01*
X167116498Y-90499820D01*
X167080188Y-90619518D01*
X167067928Y-90744000D01*
X167067928Y-92644000D01*
X167080188Y-92768482D01*
X167116498Y-92888180D01*
X167175463Y-92998494D01*
X167254815Y-93095185D01*
X167351506Y-93174537D01*
X167437383Y-93220440D01*
X167331744Y-93349161D01*
X167184566Y-93624512D01*
X167093934Y-93923286D01*
X167063331Y-94234000D01*
X165810000Y-94234000D01*
X165810000Y-77089000D01*
X167063331Y-77089000D01*
X167093934Y-77399714D01*
X167184566Y-77698488D01*
X167331744Y-77973839D01*
X167529813Y-78215187D01*
X167705050Y-78359000D01*
X167529813Y-78502813D01*
X167331744Y-78744161D01*
X167184566Y-79019512D01*
X167093934Y-79318286D01*
X167063331Y-79629000D01*
X167093934Y-79939714D01*
X167184566Y-80238488D01*
X167331744Y-80513839D01*
X167529813Y-80755187D01*
X167705050Y-80899000D01*
X167529813Y-81042813D01*
X167331744Y-81284161D01*
X167184566Y-81559512D01*
X167093934Y-81858286D01*
X167063331Y-82169000D01*
X167093934Y-82479714D01*
X167184566Y-82778488D01*
X167331744Y-83053839D01*
X167529813Y-83295187D01*
X167705050Y-83439000D01*
X167529813Y-83582813D01*
X167331744Y-83824161D01*
X167184566Y-84099512D01*
X167093934Y-84398286D01*
X167063331Y-84709000D01*
X167093934Y-85019714D01*
X167184566Y-85318488D01*
X167331744Y-85593839D01*
X167529813Y-85835187D01*
X167771161Y-86033256D01*
X168046512Y-86180434D01*
X168345286Y-86271066D01*
X168578136Y-86294000D01*
X168733864Y-86294000D01*
X168966714Y-86271066D01*
X169129390Y-86221719D01*
X169212984Y-86266401D01*
X169356621Y-86309973D01*
X169468573Y-86320999D01*
X169468575Y-86320999D01*
X169505998Y-86324685D01*
X169543421Y-86320999D01*
X178182578Y-86320999D01*
X178220001Y-86324685D01*
X178257424Y-86320999D01*
X178257427Y-86320999D01*
X178369379Y-86309973D01*
X178513016Y-86266401D01*
X178645393Y-86195644D01*
X178761423Y-86100421D01*
X178785285Y-86071345D01*
X179201346Y-85655284D01*
X179230422Y-85631422D01*
X179287336Y-85562072D01*
X180809000Y-85562072D01*
X180933482Y-85549812D01*
X181053180Y-85513502D01*
X181163494Y-85454537D01*
X181260185Y-85375185D01*
X181339537Y-85278494D01*
X181398502Y-85168180D01*
X181434812Y-85048482D01*
X181447072Y-84924000D01*
X181447072Y-84836000D01*
X181548370Y-84836000D01*
X184727721Y-88015352D01*
X184751578Y-88044422D01*
X184867608Y-88139645D01*
X184999985Y-88210402D01*
X185143622Y-88253974D01*
X185255574Y-88265000D01*
X185255576Y-88265000D01*
X185292999Y-88268686D01*
X185330422Y-88265000D01*
X188909289Y-88265000D01*
X188951226Y-88306937D01*
X189120744Y-88420205D01*
X189309102Y-88498226D01*
X189509061Y-88538000D01*
X189712939Y-88538000D01*
X189912898Y-88498226D01*
X190101256Y-88420205D01*
X190157447Y-88382660D01*
X190262058Y-88468512D01*
X190413433Y-88549423D01*
X190577684Y-88599248D01*
X190748500Y-88616072D01*
X191323500Y-88616072D01*
X191455116Y-88603109D01*
X191443578Y-88612578D01*
X191419716Y-88641654D01*
X190523649Y-89537721D01*
X190494579Y-89561578D01*
X190470722Y-89590648D01*
X190470721Y-89590649D01*
X190444988Y-89622005D01*
X190413433Y-89631577D01*
X190262058Y-89712488D01*
X190129377Y-89821377D01*
X190020488Y-89954058D01*
X189972948Y-90043000D01*
X189804711Y-90043000D01*
X189762774Y-90001063D01*
X189593256Y-89887795D01*
X189404898Y-89809774D01*
X189204939Y-89770000D01*
X189001061Y-89770000D01*
X188801102Y-89809774D01*
X188612744Y-89887795D01*
X188443226Y-90001063D01*
X188299063Y-90145226D01*
X188185795Y-90314744D01*
X188107774Y-90503102D01*
X188068000Y-90703061D01*
X188068000Y-90906939D01*
X188107774Y-91106898D01*
X188185795Y-91295256D01*
X188299063Y-91464774D01*
X188443226Y-91608937D01*
X188612744Y-91722205D01*
X188801102Y-91800226D01*
X189001061Y-91840000D01*
X189204939Y-91840000D01*
X189404898Y-91800226D01*
X189593256Y-91722205D01*
X189762774Y-91608937D01*
X189804711Y-91567000D01*
X190168828Y-91567000D01*
X190262058Y-91643512D01*
X190413433Y-91724423D01*
X190577684Y-91774248D01*
X190748500Y-91791072D01*
X191323500Y-91791072D01*
X191494316Y-91774248D01*
X191658567Y-91724423D01*
X191809942Y-91643512D01*
X191911000Y-91560575D01*
X192012058Y-91643512D01*
X192163433Y-91724423D01*
X192327684Y-91774248D01*
X192498500Y-91791072D01*
X193073500Y-91791072D01*
X193244316Y-91774248D01*
X193408567Y-91724423D01*
X193559942Y-91643512D01*
X193692623Y-91534623D01*
X193770278Y-91440000D01*
X195244722Y-91440000D01*
X195322377Y-91534623D01*
X195455058Y-91643512D01*
X195606433Y-91724423D01*
X195770684Y-91774248D01*
X195941500Y-91791072D01*
X196516500Y-91791072D01*
X196687316Y-91774248D01*
X196851567Y-91724423D01*
X197002942Y-91643512D01*
X197026839Y-91623901D01*
X197099506Y-91683537D01*
X197209820Y-91742502D01*
X197329518Y-91778812D01*
X197454000Y-91791072D01*
X197693250Y-91788000D01*
X197852000Y-91629250D01*
X197852000Y-90805000D01*
X198106000Y-90805000D01*
X198106000Y-91629250D01*
X198264750Y-91788000D01*
X198504000Y-91791072D01*
X198628482Y-91778812D01*
X198748180Y-91742502D01*
X198858494Y-91683537D01*
X198955185Y-91604185D01*
X199034537Y-91507494D01*
X199093502Y-91397180D01*
X199129812Y-91277482D01*
X199142072Y-91153000D01*
X199139000Y-90963750D01*
X198980250Y-90805000D01*
X198106000Y-90805000D01*
X197852000Y-90805000D01*
X197832000Y-90805000D01*
X197832000Y-90551000D01*
X197852000Y-90551000D01*
X197852000Y-90531000D01*
X198106000Y-90531000D01*
X198106000Y-90551000D01*
X198980250Y-90551000D01*
X199139000Y-90392250D01*
X199142072Y-90203000D01*
X199129812Y-90078518D01*
X199093502Y-89958820D01*
X199034537Y-89848506D01*
X198955185Y-89751815D01*
X198858494Y-89672463D01*
X198748180Y-89613498D01*
X198628482Y-89577188D01*
X198504000Y-89564928D01*
X198275772Y-89567858D01*
X198505347Y-89338283D01*
X198534422Y-89314422D01*
X198629645Y-89198392D01*
X198700402Y-89066015D01*
X198743974Y-88922378D01*
X198755000Y-88810426D01*
X198755000Y-88810424D01*
X198758686Y-88773001D01*
X198755000Y-88735578D01*
X198755000Y-88474895D01*
X198766942Y-88468512D01*
X198899623Y-88359623D01*
X199008512Y-88226942D01*
X199089423Y-88075567D01*
X199139248Y-87911316D01*
X199156072Y-87740500D01*
X199156072Y-87265500D01*
X199139248Y-87094684D01*
X199089423Y-86930433D01*
X199008512Y-86779058D01*
X198899623Y-86646377D01*
X198766942Y-86537488D01*
X198615567Y-86456577D01*
X198451316Y-86406752D01*
X198419449Y-86403613D01*
X198520645Y-86320564D01*
X198546892Y-86288582D01*
X198937582Y-85897892D01*
X198969564Y-85871645D01*
X199074309Y-85744013D01*
X199152142Y-85598398D01*
X199200071Y-85440397D01*
X199212200Y-85317251D01*
X199212200Y-85317242D01*
X199213280Y-85306281D01*
X199429134Y-85129134D01*
X199614706Y-84903014D01*
X199752599Y-84645034D01*
X199837513Y-84365111D01*
X199866185Y-84074000D01*
X199837513Y-83782889D01*
X199752599Y-83502966D01*
X199614706Y-83244986D01*
X199429134Y-83018866D01*
X199203014Y-82833294D01*
X198945034Y-82695401D01*
X198665111Y-82610487D01*
X198446950Y-82589000D01*
X198301050Y-82589000D01*
X198082889Y-82610487D01*
X197802966Y-82695401D01*
X197544986Y-82833294D01*
X197318866Y-83018866D01*
X197294393Y-83048687D01*
X197273502Y-82979820D01*
X197214537Y-82869506D01*
X197135185Y-82772815D01*
X197038494Y-82693463D01*
X196928180Y-82634498D01*
X196808482Y-82598188D01*
X196684000Y-82585928D01*
X196672200Y-82585928D01*
X196672200Y-79035072D01*
X196888000Y-79035072D01*
X197012482Y-79022812D01*
X197132180Y-78986502D01*
X197242494Y-78927537D01*
X197339185Y-78848185D01*
X197418537Y-78751494D01*
X197477502Y-78641180D01*
X197493117Y-78589702D01*
X197774903Y-78589702D01*
X197846486Y-78833671D01*
X198101996Y-78954571D01*
X198376184Y-79023300D01*
X198658512Y-79037217D01*
X198938130Y-78995787D01*
X199204292Y-78900603D01*
X199329514Y-78833671D01*
X199401097Y-78589702D01*
X198588000Y-77776605D01*
X197774903Y-78589702D01*
X197493117Y-78589702D01*
X197513812Y-78521482D01*
X197526072Y-78397000D01*
X197526072Y-78389785D01*
X197595298Y-78410097D01*
X198408395Y-77597000D01*
X198767605Y-77597000D01*
X199580702Y-78410097D01*
X199824671Y-78338514D01*
X199945571Y-78083004D01*
X200014300Y-77808816D01*
X200028217Y-77526488D01*
X199986787Y-77246870D01*
X199891603Y-76980708D01*
X199824671Y-76855486D01*
X199580702Y-76783903D01*
X198767605Y-77597000D01*
X198408395Y-77597000D01*
X197595298Y-76783903D01*
X197526072Y-76804215D01*
X197526072Y-76797000D01*
X197513812Y-76672518D01*
X197493118Y-76604298D01*
X197774903Y-76604298D01*
X198588000Y-77417395D01*
X199401097Y-76604298D01*
X199329514Y-76360329D01*
X199074004Y-76239429D01*
X198799816Y-76170700D01*
X198517488Y-76156783D01*
X198237870Y-76198213D01*
X197971708Y-76293397D01*
X197846486Y-76360329D01*
X197774903Y-76604298D01*
X197493118Y-76604298D01*
X197477502Y-76552820D01*
X197418537Y-76442506D01*
X197339185Y-76345815D01*
X197242494Y-76266463D01*
X197132180Y-76207498D01*
X197012482Y-76171188D01*
X196888000Y-76158928D01*
X195288000Y-76158928D01*
X195163518Y-76171188D01*
X195043820Y-76207498D01*
X194933506Y-76266463D01*
X194836815Y-76345815D01*
X194757463Y-76442506D01*
X194698498Y-76552820D01*
X194662188Y-76672518D01*
X194649928Y-76797000D01*
X194649928Y-78397000D01*
X194662188Y-78521482D01*
X194698498Y-78641180D01*
X194757463Y-78751494D01*
X194836815Y-78848185D01*
X194933506Y-78927537D01*
X194995801Y-78960835D01*
X194995800Y-82585928D01*
X194984000Y-82585928D01*
X194859518Y-82598188D01*
X194739820Y-82634498D01*
X194629506Y-82693463D01*
X194532815Y-82772815D01*
X194453463Y-82869506D01*
X194394498Y-82979820D01*
X194358188Y-83099518D01*
X194345928Y-83224000D01*
X194345928Y-84886800D01*
X191101194Y-84886800D01*
X190567678Y-84353284D01*
X190595185Y-84074000D01*
X190566513Y-83782889D01*
X190481599Y-83502966D01*
X190343706Y-83244986D01*
X190158134Y-83018866D01*
X189932014Y-82833294D01*
X189674034Y-82695401D01*
X189394111Y-82610487D01*
X189175950Y-82589000D01*
X189030050Y-82589000D01*
X188811889Y-82610487D01*
X188531966Y-82695401D01*
X188273986Y-82833294D01*
X188047866Y-83018866D01*
X188023393Y-83048687D01*
X188002502Y-82979820D01*
X187943537Y-82869506D01*
X187864185Y-82772815D01*
X187767494Y-82693463D01*
X187657180Y-82634498D01*
X187537482Y-82598188D01*
X187413000Y-82585928D01*
X187401200Y-82585928D01*
X187401200Y-76939991D01*
X187433482Y-76936812D01*
X187553180Y-76900502D01*
X187663494Y-76841537D01*
X187760185Y-76762185D01*
X187839537Y-76665494D01*
X187898502Y-76555180D01*
X187931496Y-76446413D01*
X190353192Y-76446413D01*
X190448956Y-76710814D01*
X190738571Y-76851704D01*
X191050108Y-76933384D01*
X191371595Y-76952718D01*
X191690675Y-76908961D01*
X191995088Y-76803795D01*
X192169044Y-76710814D01*
X192264808Y-76446413D01*
X191309000Y-75490605D01*
X190353192Y-76446413D01*
X187931496Y-76446413D01*
X187934812Y-76435482D01*
X187947072Y-76311000D01*
X187947072Y-75373595D01*
X189667282Y-75373595D01*
X189711039Y-75692675D01*
X189816205Y-75997088D01*
X189909186Y-76171044D01*
X190173587Y-76266808D01*
X191129395Y-75311000D01*
X191488605Y-75311000D01*
X192444413Y-76266808D01*
X192708814Y-76171044D01*
X192849704Y-75881429D01*
X192931384Y-75569892D01*
X192950718Y-75248405D01*
X192906961Y-74929325D01*
X192801795Y-74624912D01*
X192708814Y-74450956D01*
X192444413Y-74355192D01*
X191488605Y-75311000D01*
X191129395Y-75311000D01*
X190173587Y-74355192D01*
X189909186Y-74450956D01*
X189768296Y-74740571D01*
X189686616Y-75052108D01*
X189667282Y-75373595D01*
X187947072Y-75373595D01*
X187947072Y-74311000D01*
X187934812Y-74186518D01*
X187931497Y-74175587D01*
X190353192Y-74175587D01*
X191309000Y-75131395D01*
X192264808Y-74175587D01*
X192169044Y-73911186D01*
X191879429Y-73770296D01*
X191567892Y-73688616D01*
X191246405Y-73669282D01*
X190927325Y-73713039D01*
X190622912Y-73818205D01*
X190448956Y-73911186D01*
X190353192Y-74175587D01*
X187931497Y-74175587D01*
X187898502Y-74066820D01*
X187839537Y-73956506D01*
X187760185Y-73859815D01*
X187663494Y-73780463D01*
X187553180Y-73721498D01*
X187433482Y-73685188D01*
X187309000Y-73672928D01*
X185309000Y-73672928D01*
X185184518Y-73685188D01*
X185064820Y-73721498D01*
X184954506Y-73780463D01*
X184857815Y-73859815D01*
X184778463Y-73956506D01*
X184719498Y-74066820D01*
X184683188Y-74186518D01*
X184670928Y-74311000D01*
X184670928Y-76311000D01*
X184683188Y-76435482D01*
X184719498Y-76555180D01*
X184778463Y-76665494D01*
X184857815Y-76762185D01*
X184954506Y-76841537D01*
X185064820Y-76900502D01*
X185184518Y-76936812D01*
X185309000Y-76949072D01*
X185724801Y-76949072D01*
X185724800Y-82585928D01*
X185713000Y-82585928D01*
X185588518Y-82598188D01*
X185468820Y-82634498D01*
X185358506Y-82693463D01*
X185261815Y-82772815D01*
X185182463Y-82869506D01*
X185123498Y-82979820D01*
X185087188Y-83099518D01*
X185074928Y-83224000D01*
X185074928Y-84924000D01*
X185087188Y-85048482D01*
X185123498Y-85168180D01*
X185182463Y-85278494D01*
X185261815Y-85375185D01*
X185358506Y-85454537D01*
X185468820Y-85513502D01*
X185588518Y-85549812D01*
X185713000Y-85562072D01*
X187413000Y-85562072D01*
X187537482Y-85549812D01*
X187657180Y-85513502D01*
X187767494Y-85454537D01*
X187864185Y-85375185D01*
X187943537Y-85278494D01*
X188002502Y-85168180D01*
X188023393Y-85099313D01*
X188047866Y-85129134D01*
X188273986Y-85314706D01*
X188531966Y-85452599D01*
X188811889Y-85537513D01*
X189030050Y-85559000D01*
X189175950Y-85559000D01*
X189382284Y-85538678D01*
X190132194Y-86288587D01*
X190158436Y-86320564D01*
X190286068Y-86425309D01*
X190378999Y-86474982D01*
X190262058Y-86537488D01*
X190157447Y-86623340D01*
X190101256Y-86585795D01*
X189912898Y-86507774D01*
X189712939Y-86468000D01*
X189509061Y-86468000D01*
X189309102Y-86507774D01*
X189120744Y-86585795D01*
X188951226Y-86699063D01*
X188909289Y-86741000D01*
X185608631Y-86741000D01*
X182429284Y-83561654D01*
X182405422Y-83532578D01*
X182289392Y-83437355D01*
X182157015Y-83366598D01*
X182013378Y-83323026D01*
X181901426Y-83312000D01*
X181901423Y-83312000D01*
X181864000Y-83308314D01*
X181826577Y-83312000D01*
X181447072Y-83312000D01*
X181447072Y-83224000D01*
X181434812Y-83099518D01*
X181398502Y-82979820D01*
X181339537Y-82869506D01*
X181260185Y-82772815D01*
X181163494Y-82693463D01*
X181152855Y-82687776D01*
X181163631Y-82677000D01*
X182715577Y-82677000D01*
X182753000Y-82680686D01*
X182790423Y-82677000D01*
X182790426Y-82677000D01*
X182902378Y-82665974D01*
X183046015Y-82622402D01*
X183178392Y-82551645D01*
X183294422Y-82456422D01*
X183318284Y-82427346D01*
X184281351Y-81464279D01*
X184310422Y-81440422D01*
X184341421Y-81402649D01*
X184405645Y-81324393D01*
X184448249Y-81244686D01*
X184476402Y-81192015D01*
X184519974Y-81048378D01*
X184531000Y-80936426D01*
X184531000Y-80936423D01*
X184534686Y-80899000D01*
X184531000Y-80861577D01*
X184531000Y-72705630D01*
X185297351Y-71939279D01*
X185326422Y-71915422D01*
X185357421Y-71877649D01*
X185421645Y-71799393D01*
X185459465Y-71728636D01*
X185492402Y-71667015D01*
X185535974Y-71523378D01*
X185547000Y-71411426D01*
X185547000Y-71411423D01*
X185550686Y-71374000D01*
X185547000Y-71336577D01*
X185547000Y-70821895D01*
X185558942Y-70815512D01*
X185691623Y-70706623D01*
X185800512Y-70573942D01*
X185881423Y-70422567D01*
X185931248Y-70258316D01*
X185948072Y-70087500D01*
X185948072Y-69612500D01*
X185931248Y-69441684D01*
X185881423Y-69277433D01*
X185800512Y-69126058D01*
X185691623Y-68993377D01*
X185558942Y-68884488D01*
X185407567Y-68803577D01*
X185243316Y-68753752D01*
X185072500Y-68736928D01*
X184497500Y-68736928D01*
X184326684Y-68753752D01*
X184162433Y-68803577D01*
X184011058Y-68884488D01*
X183910000Y-68967425D01*
X183808942Y-68884488D01*
X183657567Y-68803577D01*
X183493316Y-68753752D01*
X183322500Y-68736928D01*
X182747500Y-68736928D01*
X182576684Y-68753752D01*
X182412433Y-68803577D01*
X182261058Y-68884488D01*
X182128377Y-68993377D01*
X182049080Y-69090000D01*
X181946920Y-69090000D01*
X181867623Y-68993377D01*
X181734942Y-68884488D01*
X181583567Y-68803577D01*
X181419316Y-68753752D01*
X181248500Y-68736928D01*
X180673500Y-68736928D01*
X180502684Y-68753752D01*
X180338433Y-68803577D01*
X180187058Y-68884488D01*
X180086000Y-68967425D01*
X179984942Y-68884488D01*
X179833567Y-68803577D01*
X179669316Y-68753752D01*
X179498500Y-68736928D01*
X179482703Y-68736928D01*
X179766631Y-68453000D01*
X184112577Y-68453000D01*
X184150000Y-68456686D01*
X184187423Y-68453000D01*
X184187426Y-68453000D01*
X184299378Y-68441974D01*
X184443015Y-68398402D01*
X184575392Y-68327645D01*
X184691422Y-68232422D01*
X184715284Y-68203346D01*
X185737997Y-67180633D01*
X185871286Y-67221066D01*
X186104136Y-67244000D01*
X186259864Y-67244000D01*
X186492714Y-67221066D01*
X186791488Y-67130434D01*
X187066839Y-66983256D01*
X187308187Y-66785187D01*
X187452000Y-66609950D01*
X187595813Y-66785187D01*
X187837161Y-66983256D01*
X188112512Y-67130434D01*
X188411286Y-67221066D01*
X188644136Y-67244000D01*
X188799864Y-67244000D01*
X189032714Y-67221066D01*
X189331488Y-67130434D01*
X189606839Y-66983256D01*
X189848187Y-66785187D01*
X190046256Y-66543839D01*
X190193434Y-66268488D01*
X190284066Y-65969714D01*
X190300279Y-65805098D01*
X195862000Y-65805098D01*
X195862000Y-66274902D01*
X195953654Y-66735679D01*
X196133440Y-67169721D01*
X196394450Y-67560349D01*
X196726651Y-67892550D01*
X197117279Y-68153560D01*
X197551321Y-68333346D01*
X198012098Y-68425000D01*
X198481902Y-68425000D01*
X198942679Y-68333346D01*
X199376721Y-68153560D01*
X199767349Y-67892550D01*
X200099550Y-67560349D01*
X200360560Y-67169721D01*
X200540346Y-66735679D01*
X200632000Y-66274902D01*
X200632000Y-65805098D01*
X200540346Y-65344321D01*
X200360560Y-64910279D01*
X200099550Y-64519651D01*
X199767349Y-64187450D01*
X199376721Y-63926440D01*
X198942679Y-63746654D01*
X198481902Y-63655000D01*
X198012098Y-63655000D01*
X197551321Y-63746654D01*
X197117279Y-63926440D01*
X196726651Y-64187450D01*
X196394450Y-64519651D01*
X196133440Y-64910279D01*
X195953654Y-65344321D01*
X195862000Y-65805098D01*
X190300279Y-65805098D01*
X190314669Y-65659000D01*
X190284066Y-65348286D01*
X190193434Y-65049512D01*
X190046256Y-64774161D01*
X189848187Y-64532813D01*
X189606839Y-64334744D01*
X189331488Y-64187566D01*
X189032714Y-64096934D01*
X188799864Y-64074000D01*
X188644136Y-64074000D01*
X188411286Y-64096934D01*
X188112512Y-64187566D01*
X187837161Y-64334744D01*
X187595813Y-64532813D01*
X187452000Y-64708050D01*
X187308187Y-64532813D01*
X187066839Y-64334744D01*
X186791488Y-64187566D01*
X186492714Y-64096934D01*
X186259864Y-64074000D01*
X186104136Y-64074000D01*
X185871286Y-64096934D01*
X185572512Y-64187566D01*
X185297161Y-64334744D01*
X185055813Y-64532813D01*
X184912000Y-64708050D01*
X184768187Y-64532813D01*
X184526839Y-64334744D01*
X184251488Y-64187566D01*
X183952714Y-64096934D01*
X183719864Y-64074000D01*
X183564136Y-64074000D01*
X183331286Y-64096934D01*
X183032512Y-64187566D01*
X182757161Y-64334744D01*
X182515813Y-64532813D01*
X182372000Y-64708050D01*
X182228187Y-64532813D01*
X181986839Y-64334744D01*
X181711488Y-64187566D01*
X181412714Y-64096934D01*
X181179864Y-64074000D01*
X181024136Y-64074000D01*
X180791286Y-64096934D01*
X180492512Y-64187566D01*
X180217161Y-64334744D01*
X180088440Y-64440383D01*
X180042537Y-64354506D01*
X179963185Y-64257815D01*
X179866494Y-64178463D01*
X179756180Y-64119498D01*
X179636482Y-64083188D01*
X179512000Y-64070928D01*
X177612000Y-64070928D01*
X177487518Y-64083188D01*
X177367820Y-64119498D01*
X177257506Y-64178463D01*
X177160815Y-64257815D01*
X177081463Y-64354506D01*
X177022498Y-64464820D01*
X176986188Y-64584518D01*
X176973928Y-64709000D01*
X176973928Y-66609000D01*
X176986188Y-66733482D01*
X177022498Y-66853180D01*
X177081463Y-66963494D01*
X177160815Y-67060185D01*
X177257506Y-67139537D01*
X177367820Y-67198502D01*
X177487518Y-67234812D01*
X177612000Y-67247072D01*
X178817297Y-67247072D01*
X178075207Y-67989162D01*
X178069764Y-67971219D01*
X177941157Y-67730612D01*
X177768081Y-67519719D01*
X177557188Y-67346643D01*
X177316581Y-67218036D01*
X177055507Y-67138840D01*
X176852037Y-67118800D01*
X176715963Y-67118800D01*
X176512493Y-67138840D01*
X176251419Y-67218036D01*
X176010812Y-67346643D01*
X175799919Y-67519719D01*
X175629473Y-67727408D01*
X175619812Y-67629318D01*
X175583502Y-67509620D01*
X175524537Y-67399306D01*
X175445185Y-67302615D01*
X175348494Y-67223263D01*
X175238180Y-67164298D01*
X175118482Y-67127988D01*
X174994000Y-67115728D01*
X173494000Y-67115728D01*
X173369518Y-67127988D01*
X173249820Y-67164298D01*
X173139506Y-67223263D01*
X173042815Y-67302615D01*
X172963463Y-67399306D01*
X172904498Y-67509620D01*
X172868188Y-67629318D01*
X172855928Y-67753800D01*
X172855928Y-69253800D01*
X172868188Y-69378282D01*
X172904498Y-69497980D01*
X172963463Y-69608294D01*
X173042815Y-69704985D01*
X173139506Y-69784337D01*
X173249820Y-69843302D01*
X173369518Y-69879612D01*
X173494000Y-69891872D01*
X173615135Y-69891872D01*
X173678721Y-69969351D01*
X173702579Y-69998422D01*
X173731649Y-70022279D01*
X174198720Y-70489351D01*
X174222578Y-70518422D01*
X174338608Y-70613645D01*
X174470985Y-70684402D01*
X174614622Y-70727974D01*
X174726574Y-70739000D01*
X174726576Y-70739000D01*
X174763999Y-70742686D01*
X174801422Y-70739000D01*
X177127577Y-70739000D01*
X177165000Y-70742686D01*
X177202423Y-70739000D01*
X177202426Y-70739000D01*
X177314378Y-70727974D01*
X177458015Y-70684402D01*
X177590392Y-70613645D01*
X177706422Y-70518422D01*
X177730284Y-70489346D01*
X178055478Y-70164153D01*
X178064752Y-70258316D01*
X178114577Y-70422567D01*
X178195488Y-70573942D01*
X178304377Y-70706623D01*
X178437058Y-70815512D01*
X178449000Y-70821895D01*
X178449000Y-71171369D01*
X176271649Y-73348721D01*
X176242579Y-73372578D01*
X176218722Y-73401648D01*
X176218721Y-73401649D01*
X176147355Y-73488608D01*
X176076599Y-73620985D01*
X176033027Y-73764622D01*
X176018314Y-73914000D01*
X176022001Y-73951433D01*
X176022000Y-79816910D01*
X175909518Y-79827988D01*
X175789820Y-79864298D01*
X175679506Y-79923263D01*
X175582815Y-80002615D01*
X175503463Y-80099306D01*
X175444498Y-80209620D01*
X175408188Y-80329318D01*
X175398527Y-80427408D01*
X175228081Y-80219719D01*
X175017188Y-80046643D01*
X174776581Y-79918036D01*
X174515507Y-79838840D01*
X174312037Y-79818800D01*
X174175963Y-79818800D01*
X173972493Y-79838840D01*
X173711419Y-79918036D01*
X173470812Y-80046643D01*
X173259919Y-80219719D01*
X173086843Y-80430612D01*
X172958236Y-80671219D01*
X172879040Y-80932293D01*
X172852299Y-81203800D01*
X172879040Y-81475307D01*
X172958236Y-81736381D01*
X173086843Y-81976988D01*
X173259919Y-82187881D01*
X173470812Y-82360957D01*
X173711419Y-82489564D01*
X173972493Y-82568760D01*
X174175963Y-82588800D01*
X174312037Y-82588800D01*
X174515507Y-82568760D01*
X174776581Y-82489564D01*
X175017188Y-82360957D01*
X175228081Y-82187881D01*
X175398527Y-81980192D01*
X175408188Y-82078282D01*
X175444498Y-82197980D01*
X175503463Y-82308294D01*
X175582815Y-82404985D01*
X175679506Y-82484337D01*
X175789820Y-82543302D01*
X175909518Y-82579612D01*
X176034000Y-82591872D01*
X177316890Y-82591872D01*
X177127889Y-82610487D01*
X176847966Y-82695401D01*
X176589986Y-82833294D01*
X176363866Y-83018866D01*
X176178294Y-83244986D01*
X176040401Y-83502966D01*
X175955487Y-83782889D01*
X175926815Y-84074000D01*
X175955487Y-84365111D01*
X176040401Y-84645034D01*
X176121628Y-84796999D01*
X170240002Y-84796999D01*
X170248669Y-84709000D01*
X170218066Y-84398286D01*
X170127434Y-84099512D01*
X169980256Y-83824161D01*
X169782187Y-83582813D01*
X169606950Y-83439000D01*
X169782187Y-83295187D01*
X169980256Y-83053839D01*
X170127434Y-82778488D01*
X170218066Y-82479714D01*
X170248669Y-82169000D01*
X170218066Y-81858286D01*
X170127434Y-81559512D01*
X169980256Y-81284161D01*
X169782187Y-81042813D01*
X169606950Y-80899000D01*
X169782187Y-80755187D01*
X169980256Y-80513839D01*
X170127434Y-80238488D01*
X170218066Y-79939714D01*
X170248669Y-79629000D01*
X170218066Y-79318286D01*
X170127434Y-79019512D01*
X169980256Y-78744161D01*
X169782187Y-78502813D01*
X169606950Y-78359000D01*
X169782187Y-78215187D01*
X169980256Y-77973839D01*
X170127434Y-77698488D01*
X170218066Y-77399714D01*
X170248669Y-77089000D01*
X170218066Y-76778286D01*
X170127434Y-76479512D01*
X169980256Y-76204161D01*
X169874617Y-76075440D01*
X169960494Y-76029537D01*
X170057185Y-75950185D01*
X170136537Y-75853494D01*
X170195502Y-75743180D01*
X170231812Y-75623482D01*
X170244072Y-75499000D01*
X170244072Y-73599000D01*
X170231812Y-73474518D01*
X170195502Y-73354820D01*
X170136537Y-73244506D01*
X170057185Y-73147815D01*
X169960494Y-73068463D01*
X169850180Y-73009498D01*
X169730482Y-72973188D01*
X169606000Y-72960928D01*
X167706000Y-72960928D01*
X167581518Y-72973188D01*
X167461820Y-73009498D01*
X167351506Y-73068463D01*
X167254815Y-73147815D01*
X167175463Y-73244506D01*
X167116498Y-73354820D01*
X167080188Y-73474518D01*
X167067928Y-73599000D01*
X167067928Y-75499000D01*
X167080188Y-75623482D01*
X167116498Y-75743180D01*
X167175463Y-75853494D01*
X167254815Y-75950185D01*
X167351506Y-76029537D01*
X167437383Y-76075440D01*
X167331744Y-76204161D01*
X167184566Y-76479512D01*
X167093934Y-76778286D01*
X167063331Y-77089000D01*
X165810000Y-77089000D01*
X165810000Y-65805098D01*
X166652000Y-65805098D01*
X166652000Y-66274902D01*
X166743654Y-66735679D01*
X166923440Y-67169721D01*
X167184450Y-67560349D01*
X167516651Y-67892550D01*
X167907279Y-68153560D01*
X168341321Y-68333346D01*
X168802098Y-68425000D01*
X169271902Y-68425000D01*
X169732679Y-68333346D01*
X170166721Y-68153560D01*
X170557349Y-67892550D01*
X170889550Y-67560349D01*
X171150560Y-67169721D01*
X171330346Y-66735679D01*
X171422000Y-66274902D01*
X171422000Y-65805098D01*
X171330346Y-65344321D01*
X171150560Y-64910279D01*
X170889550Y-64519651D01*
X170557349Y-64187450D01*
X170166721Y-63926440D01*
X169732679Y-63746654D01*
X169271902Y-63655000D01*
X168802098Y-63655000D01*
X168341321Y-63746654D01*
X167907279Y-63926440D01*
X167516651Y-64187450D01*
X167184450Y-64519651D01*
X166923440Y-64910279D01*
X166743654Y-65344321D01*
X166652000Y-65805098D01*
X165810000Y-65805098D01*
X165810000Y-62813000D01*
X201474000Y-62813000D01*
X201474001Y-113590000D01*
X201474001Y-113590000D01*
G37*
X201474001Y-113590000D02*
X192870954Y-113590000D01*
X193103034Y-113519599D01*
X193361014Y-113381706D01*
X193587134Y-113196134D01*
X193772706Y-112970014D01*
X193910599Y-112712034D01*
X193995513Y-112432111D01*
X194024185Y-112141000D01*
X193995513Y-111849889D01*
X193910599Y-111569966D01*
X193772706Y-111311986D01*
X193587134Y-111085866D01*
X193471800Y-110991214D01*
X193471800Y-110128098D01*
X195862000Y-110128098D01*
X195862000Y-110597902D01*
X195953654Y-111058679D01*
X196133440Y-111492721D01*
X196394450Y-111883349D01*
X196726651Y-112215550D01*
X197117279Y-112476560D01*
X197551321Y-112656346D01*
X198012098Y-112748000D01*
X198481902Y-112748000D01*
X198942679Y-112656346D01*
X199376721Y-112476560D01*
X199767349Y-112215550D01*
X200099550Y-111883349D01*
X200360560Y-111492721D01*
X200540346Y-111058679D01*
X200632000Y-110597902D01*
X200632000Y-110128098D01*
X200540346Y-109667321D01*
X200360560Y-109233279D01*
X200099550Y-108842651D01*
X199767349Y-108510450D01*
X199376721Y-108249440D01*
X198942679Y-108069654D01*
X198481902Y-107978000D01*
X198012098Y-107978000D01*
X197551321Y-108069654D01*
X197117279Y-108249440D01*
X196726651Y-108510450D01*
X196394450Y-108842651D01*
X196133440Y-109233279D01*
X195953654Y-109667321D01*
X195862000Y-110128098D01*
X193471800Y-110128098D01*
X193471800Y-105873228D01*
X193506482Y-105869812D01*
X193626180Y-105833502D01*
X193736494Y-105774537D01*
X193833185Y-105695185D01*
X193912537Y-105598494D01*
X193971502Y-105488180D01*
X194007812Y-105368482D01*
X194020072Y-105244000D01*
X194020072Y-103544000D01*
X194007812Y-103419518D01*
X193971502Y-103299820D01*
X193912537Y-103189506D01*
X193833185Y-103092815D01*
X193736494Y-103013463D01*
X193626180Y-102954498D01*
X193557313Y-102933607D01*
X193587134Y-102909134D01*
X193772706Y-102683014D01*
X193910599Y-102425034D01*
X193995513Y-102145111D01*
X194024185Y-101854000D01*
X193995513Y-101562889D01*
X193910599Y-101282966D01*
X193772706Y-101024986D01*
X193587134Y-100798866D01*
X193471800Y-100704214D01*
X193471800Y-100376157D01*
X193476346Y-100330000D01*
X193471800Y-100283843D01*
X193471800Y-100283833D01*
X193458202Y-100145767D01*
X193404463Y-99968614D01*
X193317196Y-99805349D01*
X193199754Y-99662246D01*
X193163885Y-99632809D01*
X193003800Y-99472724D01*
X193003800Y-98831061D01*
X196704000Y-98831061D01*
X196704000Y-99034939D01*
X196743774Y-99234898D01*
X196821795Y-99423256D01*
X196935063Y-99592774D01*
X197079226Y-99736937D01*
X197248744Y-99850205D01*
X197437102Y-99928226D01*
X197637061Y-99968000D01*
X197840939Y-99968000D01*
X198040898Y-99928226D01*
X198229256Y-99850205D01*
X198398774Y-99736937D01*
X198542937Y-99592774D01*
X198656205Y-99423256D01*
X198734226Y-99234898D01*
X198774000Y-99034939D01*
X198774000Y-98831061D01*
X198752397Y-98722455D01*
X198753000Y-98716333D01*
X198753000Y-98716324D01*
X198756676Y-98679001D01*
X198753000Y-98641678D01*
X198753000Y-94048711D01*
X198796937Y-94004774D01*
X198910205Y-93835256D01*
X198988226Y-93646898D01*
X199028000Y-93446939D01*
X199028000Y-93243061D01*
X198988226Y-93043102D01*
X198910205Y-92854744D01*
X198796937Y-92685226D01*
X198652774Y-92541063D01*
X198483256Y-92427795D01*
X198294898Y-92349774D01*
X198094939Y-92310000D01*
X197891061Y-92310000D01*
X197691102Y-92349774D01*
X197502744Y-92427795D01*
X197333226Y-92541063D01*
X197189063Y-92685226D01*
X197075795Y-92854744D01*
X196997774Y-93043102D01*
X196958000Y-93243061D01*
X196958000Y-93446939D01*
X196997774Y-93646898D01*
X197075795Y-93835256D01*
X197189063Y-94004774D01*
X197233000Y-94048711D01*
X197233001Y-98026314D01*
X197079226Y-98129063D01*
X196935063Y-98273226D01*
X196821795Y-98442744D01*
X196743774Y-98631102D01*
X196704000Y-98831061D01*
X193003800Y-98831061D01*
X193003800Y-97433165D01*
X193108180Y-97401502D01*
X193218494Y-97342537D01*
X193315185Y-97263185D01*
X193394537Y-97166494D01*
X193453502Y-97056180D01*
X193469117Y-97004702D01*
X193750903Y-97004702D01*
X193822486Y-97248671D01*
X194077996Y-97369571D01*
X194352184Y-97438300D01*
X194634512Y-97452217D01*
X194914130Y-97410787D01*
X195180292Y-97315603D01*
X195305514Y-97248671D01*
X195377097Y-97004702D01*
X194564000Y-96191605D01*
X193750903Y-97004702D01*
X193469117Y-97004702D01*
X193489812Y-96936482D01*
X193502072Y-96812000D01*
X193502072Y-96804785D01*
X193571298Y-96825097D01*
X194384395Y-96012000D01*
X194743605Y-96012000D01*
X195556702Y-96825097D01*
X195800671Y-96753514D01*
X195921571Y-96498004D01*
X195990300Y-96223816D01*
X196004217Y-95941488D01*
X195962787Y-95661870D01*
X195867603Y-95395708D01*
X195800671Y-95270486D01*
X195556702Y-95198903D01*
X194743605Y-96012000D01*
X194384395Y-96012000D01*
X193571298Y-95198903D01*
X193502072Y-95219215D01*
X193502072Y-95212000D01*
X193489812Y-95087518D01*
X193469118Y-95019298D01*
X193750903Y-95019298D01*
X194564000Y-95832395D01*
X195377097Y-95019298D01*
X195305514Y-94775329D01*
X195050004Y-94654429D01*
X194775816Y-94585700D01*
X194493488Y-94571783D01*
X194213870Y-94613213D01*
X193947708Y-94708397D01*
X193822486Y-94775329D01*
X193750903Y-95019298D01*
X193469118Y-95019298D01*
X193453502Y-94967820D01*
X193394537Y-94857506D01*
X193315185Y-94760815D01*
X193218494Y-94681463D01*
X193108180Y-94622498D01*
X192988482Y-94586188D01*
X192864000Y-94573928D01*
X191264000Y-94573928D01*
X191139518Y-94586188D01*
X191019820Y-94622498D01*
X190909506Y-94681463D01*
X190812815Y-94760815D01*
X190733463Y-94857506D01*
X190674498Y-94967820D01*
X190642835Y-95072200D01*
X190381278Y-95072200D01*
X187269191Y-91960115D01*
X187239754Y-91924246D01*
X187096651Y-91806804D01*
X186933386Y-91719537D01*
X186756233Y-91665798D01*
X186618167Y-91652200D01*
X186618157Y-91652200D01*
X186572000Y-91647654D01*
X186525843Y-91652200D01*
X185365764Y-91652200D01*
X185354962Y-91639038D01*
X185348406Y-91633658D01*
X185428185Y-91568185D01*
X185507537Y-91471494D01*
X185566502Y-91361180D01*
X185602812Y-91241482D01*
X185615072Y-91117000D01*
X185612000Y-90827750D01*
X185453250Y-90669000D01*
X184404000Y-90669000D01*
X184404000Y-90689000D01*
X184150000Y-90689000D01*
X184150000Y-90669000D01*
X183100750Y-90669000D01*
X182942000Y-90827750D01*
X182938928Y-91117000D01*
X182951188Y-91241482D01*
X182987498Y-91361180D01*
X183046463Y-91471494D01*
X183125815Y-91568185D01*
X183205594Y-91633658D01*
X183199038Y-91639038D01*
X183088595Y-91773613D01*
X183036113Y-91871800D01*
X182365199Y-91871800D01*
X182290582Y-91831916D01*
X182142745Y-91787071D01*
X181989000Y-91771928D01*
X180836783Y-91771928D01*
X180889937Y-91718774D01*
X181003205Y-91549256D01*
X181081226Y-91360898D01*
X181121000Y-91160939D01*
X181121000Y-90957061D01*
X181081226Y-90757102D01*
X181003205Y-90568744D01*
X180889937Y-90399226D01*
X180745774Y-90255063D01*
X180576256Y-90141795D01*
X180387898Y-90063774D01*
X180187939Y-90024000D01*
X179984061Y-90024000D01*
X179784102Y-90063774D01*
X179595744Y-90141795D01*
X179527200Y-90187595D01*
X179527200Y-90136193D01*
X179679716Y-89983678D01*
X179886050Y-90004000D01*
X180031950Y-90004000D01*
X180250111Y-89982513D01*
X180301250Y-89967000D01*
X182938928Y-89967000D01*
X182942000Y-90256250D01*
X183100750Y-90415000D01*
X184150000Y-90415000D01*
X184150000Y-89490750D01*
X184404000Y-89490750D01*
X184404000Y-90415000D01*
X185453250Y-90415000D01*
X185612000Y-90256250D01*
X185615072Y-89967000D01*
X185602812Y-89842518D01*
X185566502Y-89722820D01*
X185507537Y-89612506D01*
X185428185Y-89515815D01*
X185331494Y-89436463D01*
X185221180Y-89377498D01*
X185101482Y-89341188D01*
X184977000Y-89328928D01*
X184562750Y-89332000D01*
X184404000Y-89490750D01*
X184150000Y-89490750D01*
X183991250Y-89332000D01*
X183577000Y-89328928D01*
X183452518Y-89341188D01*
X183332820Y-89377498D01*
X183222506Y-89436463D01*
X183125815Y-89515815D01*
X183046463Y-89612506D01*
X182987498Y-89722820D01*
X182951188Y-89842518D01*
X182938928Y-89967000D01*
X180301250Y-89967000D01*
X180530034Y-89897599D01*
X180788014Y-89759706D01*
X181014134Y-89574134D01*
X181199706Y-89348014D01*
X181337599Y-89090034D01*
X181422513Y-88810111D01*
X181451185Y-88519000D01*
X181422513Y-88227889D01*
X181337599Y-87947966D01*
X181199706Y-87689986D01*
X181014134Y-87463866D01*
X180788014Y-87278294D01*
X180530034Y-87140401D01*
X180250111Y-87055487D01*
X180031950Y-87034000D01*
X179886050Y-87034000D01*
X179667889Y-87055487D01*
X179387966Y-87140401D01*
X179129986Y-87278294D01*
X178903866Y-87463866D01*
X178879393Y-87493687D01*
X178858502Y-87424820D01*
X178799537Y-87314506D01*
X178720185Y-87217815D01*
X178623494Y-87138463D01*
X178513180Y-87079498D01*
X178393482Y-87043188D01*
X178269000Y-87030928D01*
X176569000Y-87030928D01*
X176444518Y-87043188D01*
X176324820Y-87079498D01*
X176214506Y-87138463D01*
X176117815Y-87217815D01*
X176038463Y-87314506D01*
X175979498Y-87424820D01*
X175943188Y-87544518D01*
X175930928Y-87669000D01*
X175930928Y-89369000D01*
X175943188Y-89493482D01*
X175979498Y-89613180D01*
X176038463Y-89723494D01*
X176117815Y-89820185D01*
X176214506Y-89899537D01*
X176324820Y-89958502D01*
X176444518Y-89994812D01*
X176569000Y-90007072D01*
X176760269Y-90007072D01*
X176782355Y-90048392D01*
X176804839Y-90075788D01*
X176877578Y-90164422D01*
X176906655Y-90188284D01*
X176960411Y-90242041D01*
X176960411Y-91772947D01*
X176499750Y-91775000D01*
X176341000Y-91933750D01*
X176341000Y-92583000D01*
X176361000Y-92583000D01*
X176361000Y-92837000D01*
X176341000Y-92837000D01*
X176341000Y-92857000D01*
X176087000Y-92857000D01*
X176087000Y-92837000D01*
X174762750Y-92837000D01*
X174604000Y-92995750D01*
X174600928Y-93010000D01*
X174613188Y-93134482D01*
X174649498Y-93254180D01*
X174702178Y-93352735D01*
X174597578Y-93438578D01*
X174573721Y-93467648D01*
X172588649Y-95452721D01*
X172559579Y-95476578D01*
X172535722Y-95505648D01*
X172535721Y-95505649D01*
X172464355Y-95592608D01*
X172393599Y-95724985D01*
X172350027Y-95868622D01*
X172335314Y-96018000D01*
X172339001Y-96055433D01*
X172339000Y-102959577D01*
X172335314Y-102997000D01*
X172339000Y-103034423D01*
X172339000Y-103034425D01*
X172350026Y-103146377D01*
X172393598Y-103290014D01*
X172419710Y-103338866D01*
X172464355Y-103422392D01*
X172477985Y-103439000D01*
X172559578Y-103538422D01*
X172588654Y-103562284D01*
X176530001Y-107503632D01*
X176530000Y-110864474D01*
X176462986Y-110900294D01*
X176236866Y-111085866D01*
X176212393Y-111115687D01*
X176191502Y-111046820D01*
X176132537Y-110936506D01*
X176053185Y-110839815D01*
X175956494Y-110760463D01*
X175846180Y-110701498D01*
X175726482Y-110665188D01*
X175602000Y-110652928D01*
X175037750Y-110656000D01*
X174879000Y-110814750D01*
X174879000Y-112014000D01*
X174899000Y-112014000D01*
X174899000Y-112268000D01*
X174879000Y-112268000D01*
X174879000Y-112288000D01*
X174625000Y-112288000D01*
X174625000Y-112268000D01*
X173425750Y-112268000D01*
X173267000Y-112426750D01*
X173263928Y-112991000D01*
X173276188Y-113115482D01*
X173312498Y-113235180D01*
X173371463Y-113345494D01*
X173450815Y-113442185D01*
X173547506Y-113521537D01*
X173657820Y-113580502D01*
X173689131Y-113590000D01*
X165810000Y-113590000D01*
X165810000Y-110128098D01*
X166652000Y-110128098D01*
X166652000Y-110597902D01*
X166743654Y-111058679D01*
X166923440Y-111492721D01*
X167184450Y-111883349D01*
X167516651Y-112215550D01*
X167907279Y-112476560D01*
X168341321Y-112656346D01*
X168802098Y-112748000D01*
X169271902Y-112748000D01*
X169732679Y-112656346D01*
X170166721Y-112476560D01*
X170557349Y-112215550D01*
X170889550Y-111883349D01*
X171150560Y-111492721D01*
X171234115Y-111291000D01*
X173263928Y-111291000D01*
X173267000Y-111855250D01*
X173425750Y-112014000D01*
X174625000Y-112014000D01*
X174625000Y-110814750D01*
X174466250Y-110656000D01*
X173902000Y-110652928D01*
X173777518Y-110665188D01*
X173657820Y-110701498D01*
X173547506Y-110760463D01*
X173450815Y-110839815D01*
X173371463Y-110936506D01*
X173312498Y-111046820D01*
X173276188Y-111166518D01*
X173263928Y-111291000D01*
X171234115Y-111291000D01*
X171330346Y-111058679D01*
X171422000Y-110597902D01*
X171422000Y-110128098D01*
X171330346Y-109667321D01*
X171150560Y-109233279D01*
X170889550Y-108842651D01*
X170557349Y-108510450D01*
X170166721Y-108249440D01*
X169732679Y-108069654D01*
X169271902Y-107978000D01*
X168802098Y-107978000D01*
X168341321Y-108069654D01*
X167907279Y-108249440D01*
X167516651Y-108510450D01*
X167184450Y-108842651D01*
X166923440Y-109233279D01*
X166743654Y-109667321D01*
X166652000Y-110128098D01*
X165810000Y-110128098D01*
X165810000Y-94234000D01*
X167063331Y-94234000D01*
X167093934Y-94544714D01*
X167184566Y-94843488D01*
X167331744Y-95118839D01*
X167529813Y-95360187D01*
X167705050Y-95504000D01*
X167529813Y-95647813D01*
X167331744Y-95889161D01*
X167184566Y-96164512D01*
X167093934Y-96463286D01*
X167063331Y-96774000D01*
X167093934Y-97084714D01*
X167184566Y-97383488D01*
X167331744Y-97658839D01*
X167529813Y-97900187D01*
X167705050Y-98044000D01*
X167529813Y-98187813D01*
X167331744Y-98429161D01*
X167184566Y-98704512D01*
X167093934Y-99003286D01*
X167063331Y-99314000D01*
X167093934Y-99624714D01*
X167184566Y-99923488D01*
X167331744Y-100198839D01*
X167529813Y-100440187D01*
X167705050Y-100584000D01*
X167529813Y-100727813D01*
X167331744Y-100969161D01*
X167184566Y-101244512D01*
X167093934Y-101543286D01*
X167063331Y-101854000D01*
X167093934Y-102164714D01*
X167184566Y-102463488D01*
X167331744Y-102738839D01*
X167529813Y-102980187D01*
X167771161Y-103178256D01*
X168046512Y-103325434D01*
X168345286Y-103416066D01*
X168578136Y-103439000D01*
X168733864Y-103439000D01*
X168966714Y-103416066D01*
X169265488Y-103325434D01*
X169540839Y-103178256D01*
X169782187Y-102980187D01*
X169980256Y-102738839D01*
X170127434Y-102463488D01*
X170218066Y-102164714D01*
X170248669Y-101854000D01*
X170218066Y-101543286D01*
X170127434Y-101244512D01*
X169980256Y-100969161D01*
X169782187Y-100727813D01*
X169606950Y-100584000D01*
X169782187Y-100440187D01*
X169980256Y-100198839D01*
X170127434Y-99923488D01*
X170218066Y-99624714D01*
X170248669Y-99314000D01*
X170218066Y-99003286D01*
X170127434Y-98704512D01*
X169980256Y-98429161D01*
X169782187Y-98187813D01*
X169606950Y-98044000D01*
X169782187Y-97900187D01*
X169980256Y-97658839D01*
X170127434Y-97383488D01*
X170218066Y-97084714D01*
X170248669Y-96774000D01*
X170218066Y-96463286D01*
X170127434Y-96164512D01*
X169980256Y-95889161D01*
X169782187Y-95647813D01*
X169606950Y-95504000D01*
X169782187Y-95360187D01*
X169980256Y-95118839D01*
X170127434Y-94843488D01*
X170218066Y-94544714D01*
X170248669Y-94234000D01*
X170218066Y-93923286D01*
X170127434Y-93624512D01*
X169980256Y-93349161D01*
X169874617Y-93220440D01*
X169960494Y-93174537D01*
X170057185Y-93095185D01*
X170136537Y-92998494D01*
X170195502Y-92888180D01*
X170231812Y-92768482D01*
X170244072Y-92644000D01*
X170244072Y-92410000D01*
X174600928Y-92410000D01*
X174604000Y-92424250D01*
X174762750Y-92583000D01*
X176087000Y-92583000D01*
X176087000Y-91933750D01*
X175928250Y-91775000D01*
X175239000Y-91771928D01*
X175114518Y-91784188D01*
X174994820Y-91820498D01*
X174884506Y-91879463D01*
X174787815Y-91958815D01*
X174708463Y-92055506D01*
X174649498Y-92165820D01*
X174613188Y-92285518D01*
X174600928Y-92410000D01*
X170244072Y-92410000D01*
X170244072Y-90744000D01*
X170231812Y-90619518D01*
X170195502Y-90499820D01*
X170136537Y-90389506D01*
X170057185Y-90292815D01*
X169960494Y-90213463D01*
X169850180Y-90154498D01*
X169730482Y-90118188D01*
X169606000Y-90105928D01*
X167706000Y-90105928D01*
X167581518Y-90118188D01*
X167461820Y-90154498D01*
X167351506Y-90213463D01*
X167254815Y-90292815D01*
X167175463Y-90389506D01*
X167116498Y-90499820D01*
X167080188Y-90619518D01*
X167067928Y-90744000D01*
X167067928Y-92644000D01*
X167080188Y-92768482D01*
X167116498Y-92888180D01*
X167175463Y-92998494D01*
X167254815Y-93095185D01*
X167351506Y-93174537D01*
X167437383Y-93220440D01*
X167331744Y-93349161D01*
X167184566Y-93624512D01*
X167093934Y-93923286D01*
X167063331Y-94234000D01*
X165810000Y-94234000D01*
X165810000Y-77089000D01*
X167063331Y-77089000D01*
X167093934Y-77399714D01*
X167184566Y-77698488D01*
X167331744Y-77973839D01*
X167529813Y-78215187D01*
X167705050Y-78359000D01*
X167529813Y-78502813D01*
X167331744Y-78744161D01*
X167184566Y-79019512D01*
X167093934Y-79318286D01*
X167063331Y-79629000D01*
X167093934Y-79939714D01*
X167184566Y-80238488D01*
X167331744Y-80513839D01*
X167529813Y-80755187D01*
X167705050Y-80899000D01*
X167529813Y-81042813D01*
X167331744Y-81284161D01*
X167184566Y-81559512D01*
X167093934Y-81858286D01*
X167063331Y-82169000D01*
X167093934Y-82479714D01*
X167184566Y-82778488D01*
X167331744Y-83053839D01*
X167529813Y-83295187D01*
X167705050Y-83439000D01*
X167529813Y-83582813D01*
X167331744Y-83824161D01*
X167184566Y-84099512D01*
X167093934Y-84398286D01*
X167063331Y-84709000D01*
X167093934Y-85019714D01*
X167184566Y-85318488D01*
X167331744Y-85593839D01*
X167529813Y-85835187D01*
X167771161Y-86033256D01*
X168046512Y-86180434D01*
X168345286Y-86271066D01*
X168578136Y-86294000D01*
X168733864Y-86294000D01*
X168966714Y-86271066D01*
X169129390Y-86221719D01*
X169212984Y-86266401D01*
X169356621Y-86309973D01*
X169468573Y-86320999D01*
X169468575Y-86320999D01*
X169505998Y-86324685D01*
X169543421Y-86320999D01*
X178182578Y-86320999D01*
X178220001Y-86324685D01*
X178257424Y-86320999D01*
X178257427Y-86320999D01*
X178369379Y-86309973D01*
X178513016Y-86266401D01*
X178645393Y-86195644D01*
X178761423Y-86100421D01*
X178785285Y-86071345D01*
X179201346Y-85655284D01*
X179230422Y-85631422D01*
X179287336Y-85562072D01*
X180809000Y-85562072D01*
X180933482Y-85549812D01*
X181053180Y-85513502D01*
X181163494Y-85454537D01*
X181260185Y-85375185D01*
X181339537Y-85278494D01*
X181398502Y-85168180D01*
X181434812Y-85048482D01*
X181447072Y-84924000D01*
X181447072Y-84836000D01*
X181548370Y-84836000D01*
X184727721Y-88015352D01*
X184751578Y-88044422D01*
X184867608Y-88139645D01*
X184999985Y-88210402D01*
X185143622Y-88253974D01*
X185255574Y-88265000D01*
X185255576Y-88265000D01*
X185292999Y-88268686D01*
X185330422Y-88265000D01*
X188909289Y-88265000D01*
X188951226Y-88306937D01*
X189120744Y-88420205D01*
X189309102Y-88498226D01*
X189509061Y-88538000D01*
X189712939Y-88538000D01*
X189912898Y-88498226D01*
X190101256Y-88420205D01*
X190157447Y-88382660D01*
X190262058Y-88468512D01*
X190413433Y-88549423D01*
X190577684Y-88599248D01*
X190748500Y-88616072D01*
X191323500Y-88616072D01*
X191455116Y-88603109D01*
X191443578Y-88612578D01*
X191419716Y-88641654D01*
X190523649Y-89537721D01*
X190494579Y-89561578D01*
X190470722Y-89590648D01*
X190470721Y-89590649D01*
X190444988Y-89622005D01*
X190413433Y-89631577D01*
X190262058Y-89712488D01*
X190129377Y-89821377D01*
X190020488Y-89954058D01*
X189972948Y-90043000D01*
X189804711Y-90043000D01*
X189762774Y-90001063D01*
X189593256Y-89887795D01*
X189404898Y-89809774D01*
X189204939Y-89770000D01*
X189001061Y-89770000D01*
X188801102Y-89809774D01*
X188612744Y-89887795D01*
X188443226Y-90001063D01*
X188299063Y-90145226D01*
X188185795Y-90314744D01*
X188107774Y-90503102D01*
X188068000Y-90703061D01*
X188068000Y-90906939D01*
X188107774Y-91106898D01*
X188185795Y-91295256D01*
X188299063Y-91464774D01*
X188443226Y-91608937D01*
X188612744Y-91722205D01*
X188801102Y-91800226D01*
X189001061Y-91840000D01*
X189204939Y-91840000D01*
X189404898Y-91800226D01*
X189593256Y-91722205D01*
X189762774Y-91608937D01*
X189804711Y-91567000D01*
X190168828Y-91567000D01*
X190262058Y-91643512D01*
X190413433Y-91724423D01*
X190577684Y-91774248D01*
X190748500Y-91791072D01*
X191323500Y-91791072D01*
X191494316Y-91774248D01*
X191658567Y-91724423D01*
X191809942Y-91643512D01*
X191911000Y-91560575D01*
X192012058Y-91643512D01*
X192163433Y-91724423D01*
X192327684Y-91774248D01*
X192498500Y-91791072D01*
X193073500Y-91791072D01*
X193244316Y-91774248D01*
X193408567Y-91724423D01*
X193559942Y-91643512D01*
X193692623Y-91534623D01*
X193770278Y-91440000D01*
X195244722Y-91440000D01*
X195322377Y-91534623D01*
X195455058Y-91643512D01*
X195606433Y-91724423D01*
X195770684Y-91774248D01*
X195941500Y-91791072D01*
X196516500Y-91791072D01*
X196687316Y-91774248D01*
X196851567Y-91724423D01*
X197002942Y-91643512D01*
X197026839Y-91623901D01*
X197099506Y-91683537D01*
X197209820Y-91742502D01*
X197329518Y-91778812D01*
X197454000Y-91791072D01*
X197693250Y-91788000D01*
X197852000Y-91629250D01*
X197852000Y-90805000D01*
X198106000Y-90805000D01*
X198106000Y-91629250D01*
X198264750Y-91788000D01*
X198504000Y-91791072D01*
X198628482Y-91778812D01*
X198748180Y-91742502D01*
X198858494Y-91683537D01*
X198955185Y-91604185D01*
X199034537Y-91507494D01*
X199093502Y-91397180D01*
X199129812Y-91277482D01*
X199142072Y-91153000D01*
X199139000Y-90963750D01*
X198980250Y-90805000D01*
X198106000Y-90805000D01*
X197852000Y-90805000D01*
X197832000Y-90805000D01*
X197832000Y-90551000D01*
X197852000Y-90551000D01*
X197852000Y-90531000D01*
X198106000Y-90531000D01*
X198106000Y-90551000D01*
X198980250Y-90551000D01*
X199139000Y-90392250D01*
X199142072Y-90203000D01*
X199129812Y-90078518D01*
X199093502Y-89958820D01*
X199034537Y-89848506D01*
X198955185Y-89751815D01*
X198858494Y-89672463D01*
X198748180Y-89613498D01*
X198628482Y-89577188D01*
X198504000Y-89564928D01*
X198275772Y-89567858D01*
X198505347Y-89338283D01*
X198534422Y-89314422D01*
X198629645Y-89198392D01*
X198700402Y-89066015D01*
X198743974Y-88922378D01*
X198755000Y-88810426D01*
X198755000Y-88810424D01*
X198758686Y-88773001D01*
X198755000Y-88735578D01*
X198755000Y-88474895D01*
X198766942Y-88468512D01*
X198899623Y-88359623D01*
X199008512Y-88226942D01*
X199089423Y-88075567D01*
X199139248Y-87911316D01*
X199156072Y-87740500D01*
X199156072Y-87265500D01*
X199139248Y-87094684D01*
X199089423Y-86930433D01*
X199008512Y-86779058D01*
X198899623Y-86646377D01*
X198766942Y-86537488D01*
X198615567Y-86456577D01*
X198451316Y-86406752D01*
X198419449Y-86403613D01*
X198520645Y-86320564D01*
X198546892Y-86288582D01*
X198937582Y-85897892D01*
X198969564Y-85871645D01*
X199074309Y-85744013D01*
X199152142Y-85598398D01*
X199200071Y-85440397D01*
X199212200Y-85317251D01*
X199212200Y-85317242D01*
X199213280Y-85306281D01*
X199429134Y-85129134D01*
X199614706Y-84903014D01*
X199752599Y-84645034D01*
X199837513Y-84365111D01*
X199866185Y-84074000D01*
X199837513Y-83782889D01*
X199752599Y-83502966D01*
X199614706Y-83244986D01*
X199429134Y-83018866D01*
X199203014Y-82833294D01*
X198945034Y-82695401D01*
X198665111Y-82610487D01*
X198446950Y-82589000D01*
X198301050Y-82589000D01*
X198082889Y-82610487D01*
X197802966Y-82695401D01*
X197544986Y-82833294D01*
X197318866Y-83018866D01*
X197294393Y-83048687D01*
X197273502Y-82979820D01*
X197214537Y-82869506D01*
X197135185Y-82772815D01*
X197038494Y-82693463D01*
X196928180Y-82634498D01*
X196808482Y-82598188D01*
X196684000Y-82585928D01*
X196672200Y-82585928D01*
X196672200Y-79035072D01*
X196888000Y-79035072D01*
X197012482Y-79022812D01*
X197132180Y-78986502D01*
X197242494Y-78927537D01*
X197339185Y-78848185D01*
X197418537Y-78751494D01*
X197477502Y-78641180D01*
X197493117Y-78589702D01*
X197774903Y-78589702D01*
X197846486Y-78833671D01*
X198101996Y-78954571D01*
X198376184Y-79023300D01*
X198658512Y-79037217D01*
X198938130Y-78995787D01*
X199204292Y-78900603D01*
X199329514Y-78833671D01*
X199401097Y-78589702D01*
X198588000Y-77776605D01*
X197774903Y-78589702D01*
X197493117Y-78589702D01*
X197513812Y-78521482D01*
X197526072Y-78397000D01*
X197526072Y-78389785D01*
X197595298Y-78410097D01*
X198408395Y-77597000D01*
X198767605Y-77597000D01*
X199580702Y-78410097D01*
X199824671Y-78338514D01*
X199945571Y-78083004D01*
X200014300Y-77808816D01*
X200028217Y-77526488D01*
X199986787Y-77246870D01*
X199891603Y-76980708D01*
X199824671Y-76855486D01*
X199580702Y-76783903D01*
X198767605Y-77597000D01*
X198408395Y-77597000D01*
X197595298Y-76783903D01*
X197526072Y-76804215D01*
X197526072Y-76797000D01*
X197513812Y-76672518D01*
X197493118Y-76604298D01*
X197774903Y-76604298D01*
X198588000Y-77417395D01*
X199401097Y-76604298D01*
X199329514Y-76360329D01*
X199074004Y-76239429D01*
X198799816Y-76170700D01*
X198517488Y-76156783D01*
X198237870Y-76198213D01*
X197971708Y-76293397D01*
X197846486Y-76360329D01*
X197774903Y-76604298D01*
X197493118Y-76604298D01*
X197477502Y-76552820D01*
X197418537Y-76442506D01*
X197339185Y-76345815D01*
X197242494Y-76266463D01*
X197132180Y-76207498D01*
X197012482Y-76171188D01*
X196888000Y-76158928D01*
X195288000Y-76158928D01*
X195163518Y-76171188D01*
X195043820Y-76207498D01*
X194933506Y-76266463D01*
X194836815Y-76345815D01*
X194757463Y-76442506D01*
X194698498Y-76552820D01*
X194662188Y-76672518D01*
X194649928Y-76797000D01*
X194649928Y-78397000D01*
X194662188Y-78521482D01*
X194698498Y-78641180D01*
X194757463Y-78751494D01*
X194836815Y-78848185D01*
X194933506Y-78927537D01*
X194995801Y-78960835D01*
X194995800Y-82585928D01*
X194984000Y-82585928D01*
X194859518Y-82598188D01*
X194739820Y-82634498D01*
X194629506Y-82693463D01*
X194532815Y-82772815D01*
X194453463Y-82869506D01*
X194394498Y-82979820D01*
X194358188Y-83099518D01*
X194345928Y-83224000D01*
X194345928Y-84886800D01*
X191101194Y-84886800D01*
X190567678Y-84353284D01*
X190595185Y-84074000D01*
X190566513Y-83782889D01*
X190481599Y-83502966D01*
X190343706Y-83244986D01*
X190158134Y-83018866D01*
X189932014Y-82833294D01*
X189674034Y-82695401D01*
X189394111Y-82610487D01*
X189175950Y-82589000D01*
X189030050Y-82589000D01*
X188811889Y-82610487D01*
X188531966Y-82695401D01*
X188273986Y-82833294D01*
X188047866Y-83018866D01*
X188023393Y-83048687D01*
X188002502Y-82979820D01*
X187943537Y-82869506D01*
X187864185Y-82772815D01*
X187767494Y-82693463D01*
X187657180Y-82634498D01*
X187537482Y-82598188D01*
X187413000Y-82585928D01*
X187401200Y-82585928D01*
X187401200Y-76939991D01*
X187433482Y-76936812D01*
X187553180Y-76900502D01*
X187663494Y-76841537D01*
X187760185Y-76762185D01*
X187839537Y-76665494D01*
X187898502Y-76555180D01*
X187931496Y-76446413D01*
X190353192Y-76446413D01*
X190448956Y-76710814D01*
X190738571Y-76851704D01*
X191050108Y-76933384D01*
X191371595Y-76952718D01*
X191690675Y-76908961D01*
X191995088Y-76803795D01*
X192169044Y-76710814D01*
X192264808Y-76446413D01*
X191309000Y-75490605D01*
X190353192Y-76446413D01*
X187931496Y-76446413D01*
X187934812Y-76435482D01*
X187947072Y-76311000D01*
X187947072Y-75373595D01*
X189667282Y-75373595D01*
X189711039Y-75692675D01*
X189816205Y-75997088D01*
X189909186Y-76171044D01*
X190173587Y-76266808D01*
X191129395Y-75311000D01*
X191488605Y-75311000D01*
X192444413Y-76266808D01*
X192708814Y-76171044D01*
X192849704Y-75881429D01*
X192931384Y-75569892D01*
X192950718Y-75248405D01*
X192906961Y-74929325D01*
X192801795Y-74624912D01*
X192708814Y-74450956D01*
X192444413Y-74355192D01*
X191488605Y-75311000D01*
X191129395Y-75311000D01*
X190173587Y-74355192D01*
X189909186Y-74450956D01*
X189768296Y-74740571D01*
X189686616Y-75052108D01*
X189667282Y-75373595D01*
X187947072Y-75373595D01*
X187947072Y-74311000D01*
X187934812Y-74186518D01*
X187931497Y-74175587D01*
X190353192Y-74175587D01*
X191309000Y-75131395D01*
X192264808Y-74175587D01*
X192169044Y-73911186D01*
X191879429Y-73770296D01*
X191567892Y-73688616D01*
X191246405Y-73669282D01*
X190927325Y-73713039D01*
X190622912Y-73818205D01*
X190448956Y-73911186D01*
X190353192Y-74175587D01*
X187931497Y-74175587D01*
X187898502Y-74066820D01*
X187839537Y-73956506D01*
X187760185Y-73859815D01*
X187663494Y-73780463D01*
X187553180Y-73721498D01*
X187433482Y-73685188D01*
X187309000Y-73672928D01*
X185309000Y-73672928D01*
X185184518Y-73685188D01*
X185064820Y-73721498D01*
X184954506Y-73780463D01*
X184857815Y-73859815D01*
X184778463Y-73956506D01*
X184719498Y-74066820D01*
X184683188Y-74186518D01*
X184670928Y-74311000D01*
X184670928Y-76311000D01*
X184683188Y-76435482D01*
X184719498Y-76555180D01*
X184778463Y-76665494D01*
X184857815Y-76762185D01*
X184954506Y-76841537D01*
X185064820Y-76900502D01*
X185184518Y-76936812D01*
X185309000Y-76949072D01*
X185724801Y-76949072D01*
X185724800Y-82585928D01*
X185713000Y-82585928D01*
X185588518Y-82598188D01*
X185468820Y-82634498D01*
X185358506Y-82693463D01*
X185261815Y-82772815D01*
X185182463Y-82869506D01*
X185123498Y-82979820D01*
X185087188Y-83099518D01*
X185074928Y-83224000D01*
X185074928Y-84924000D01*
X185087188Y-85048482D01*
X185123498Y-85168180D01*
X185182463Y-85278494D01*
X185261815Y-85375185D01*
X185358506Y-85454537D01*
X185468820Y-85513502D01*
X185588518Y-85549812D01*
X185713000Y-85562072D01*
X187413000Y-85562072D01*
X187537482Y-85549812D01*
X187657180Y-85513502D01*
X187767494Y-85454537D01*
X187864185Y-85375185D01*
X187943537Y-85278494D01*
X188002502Y-85168180D01*
X188023393Y-85099313D01*
X188047866Y-85129134D01*
X188273986Y-85314706D01*
X188531966Y-85452599D01*
X188811889Y-85537513D01*
X189030050Y-85559000D01*
X189175950Y-85559000D01*
X189382284Y-85538678D01*
X190132194Y-86288587D01*
X190158436Y-86320564D01*
X190286068Y-86425309D01*
X190378999Y-86474982D01*
X190262058Y-86537488D01*
X190157447Y-86623340D01*
X190101256Y-86585795D01*
X189912898Y-86507774D01*
X189712939Y-86468000D01*
X189509061Y-86468000D01*
X189309102Y-86507774D01*
X189120744Y-86585795D01*
X188951226Y-86699063D01*
X188909289Y-86741000D01*
X185608631Y-86741000D01*
X182429284Y-83561654D01*
X182405422Y-83532578D01*
X182289392Y-83437355D01*
X182157015Y-83366598D01*
X182013378Y-83323026D01*
X181901426Y-83312000D01*
X181901423Y-83312000D01*
X181864000Y-83308314D01*
X181826577Y-83312000D01*
X181447072Y-83312000D01*
X181447072Y-83224000D01*
X181434812Y-83099518D01*
X181398502Y-82979820D01*
X181339537Y-82869506D01*
X181260185Y-82772815D01*
X181163494Y-82693463D01*
X181152855Y-82687776D01*
X181163631Y-82677000D01*
X182715577Y-82677000D01*
X182753000Y-82680686D01*
X182790423Y-82677000D01*
X182790426Y-82677000D01*
X182902378Y-82665974D01*
X183046015Y-82622402D01*
X183178392Y-82551645D01*
X183294422Y-82456422D01*
X183318284Y-82427346D01*
X184281351Y-81464279D01*
X184310422Y-81440422D01*
X184341421Y-81402649D01*
X184405645Y-81324393D01*
X184448249Y-81244686D01*
X184476402Y-81192015D01*
X184519974Y-81048378D01*
X184531000Y-80936426D01*
X184531000Y-80936423D01*
X184534686Y-80899000D01*
X184531000Y-80861577D01*
X184531000Y-72705630D01*
X185297351Y-71939279D01*
X185326422Y-71915422D01*
X185357421Y-71877649D01*
X185421645Y-71799393D01*
X185459465Y-71728636D01*
X185492402Y-71667015D01*
X185535974Y-71523378D01*
X185547000Y-71411426D01*
X185547000Y-71411423D01*
X185550686Y-71374000D01*
X185547000Y-71336577D01*
X185547000Y-70821895D01*
X185558942Y-70815512D01*
X185691623Y-70706623D01*
X185800512Y-70573942D01*
X185881423Y-70422567D01*
X185931248Y-70258316D01*
X185948072Y-70087500D01*
X185948072Y-69612500D01*
X185931248Y-69441684D01*
X185881423Y-69277433D01*
X185800512Y-69126058D01*
X185691623Y-68993377D01*
X185558942Y-68884488D01*
X185407567Y-68803577D01*
X185243316Y-68753752D01*
X185072500Y-68736928D01*
X184497500Y-68736928D01*
X184326684Y-68753752D01*
X184162433Y-68803577D01*
X184011058Y-68884488D01*
X183910000Y-68967425D01*
X183808942Y-68884488D01*
X183657567Y-68803577D01*
X183493316Y-68753752D01*
X183322500Y-68736928D01*
X182747500Y-68736928D01*
X182576684Y-68753752D01*
X182412433Y-68803577D01*
X182261058Y-68884488D01*
X182128377Y-68993377D01*
X182049080Y-69090000D01*
X181946920Y-69090000D01*
X181867623Y-68993377D01*
X181734942Y-68884488D01*
X181583567Y-68803577D01*
X181419316Y-68753752D01*
X181248500Y-68736928D01*
X180673500Y-68736928D01*
X180502684Y-68753752D01*
X180338433Y-68803577D01*
X180187058Y-68884488D01*
X180086000Y-68967425D01*
X179984942Y-68884488D01*
X179833567Y-68803577D01*
X179669316Y-68753752D01*
X179498500Y-68736928D01*
X179482703Y-68736928D01*
X179766631Y-68453000D01*
X184112577Y-68453000D01*
X184150000Y-68456686D01*
X184187423Y-68453000D01*
X184187426Y-68453000D01*
X184299378Y-68441974D01*
X184443015Y-68398402D01*
X184575392Y-68327645D01*
X184691422Y-68232422D01*
X184715284Y-68203346D01*
X185737997Y-67180633D01*
X185871286Y-67221066D01*
X186104136Y-67244000D01*
X186259864Y-67244000D01*
X186492714Y-67221066D01*
X186791488Y-67130434D01*
X187066839Y-66983256D01*
X187308187Y-66785187D01*
X187452000Y-66609950D01*
X187595813Y-66785187D01*
X187837161Y-66983256D01*
X188112512Y-67130434D01*
X188411286Y-67221066D01*
X188644136Y-67244000D01*
X188799864Y-67244000D01*
X189032714Y-67221066D01*
X189331488Y-67130434D01*
X189606839Y-66983256D01*
X189848187Y-66785187D01*
X190046256Y-66543839D01*
X190193434Y-66268488D01*
X190284066Y-65969714D01*
X190300279Y-65805098D01*
X195862000Y-65805098D01*
X195862000Y-66274902D01*
X195953654Y-66735679D01*
X196133440Y-67169721D01*
X196394450Y-67560349D01*
X196726651Y-67892550D01*
X197117279Y-68153560D01*
X197551321Y-68333346D01*
X198012098Y-68425000D01*
X198481902Y-68425000D01*
X198942679Y-68333346D01*
X199376721Y-68153560D01*
X199767349Y-67892550D01*
X200099550Y-67560349D01*
X200360560Y-67169721D01*
X200540346Y-66735679D01*
X200632000Y-66274902D01*
X200632000Y-65805098D01*
X200540346Y-65344321D01*
X200360560Y-64910279D01*
X200099550Y-64519651D01*
X199767349Y-64187450D01*
X199376721Y-63926440D01*
X198942679Y-63746654D01*
X198481902Y-63655000D01*
X198012098Y-63655000D01*
X197551321Y-63746654D01*
X197117279Y-63926440D01*
X196726651Y-64187450D01*
X196394450Y-64519651D01*
X196133440Y-64910279D01*
X195953654Y-65344321D01*
X195862000Y-65805098D01*
X190300279Y-65805098D01*
X190314669Y-65659000D01*
X190284066Y-65348286D01*
X190193434Y-65049512D01*
X190046256Y-64774161D01*
X189848187Y-64532813D01*
X189606839Y-64334744D01*
X189331488Y-64187566D01*
X189032714Y-64096934D01*
X188799864Y-64074000D01*
X188644136Y-64074000D01*
X188411286Y-64096934D01*
X188112512Y-64187566D01*
X187837161Y-64334744D01*
X187595813Y-64532813D01*
X187452000Y-64708050D01*
X187308187Y-64532813D01*
X187066839Y-64334744D01*
X186791488Y-64187566D01*
X186492714Y-64096934D01*
X186259864Y-64074000D01*
X186104136Y-64074000D01*
X185871286Y-64096934D01*
X185572512Y-64187566D01*
X185297161Y-64334744D01*
X185055813Y-64532813D01*
X184912000Y-64708050D01*
X184768187Y-64532813D01*
X184526839Y-64334744D01*
X184251488Y-64187566D01*
X183952714Y-64096934D01*
X183719864Y-64074000D01*
X183564136Y-64074000D01*
X183331286Y-64096934D01*
X183032512Y-64187566D01*
X182757161Y-64334744D01*
X182515813Y-64532813D01*
X182372000Y-64708050D01*
X182228187Y-64532813D01*
X181986839Y-64334744D01*
X181711488Y-64187566D01*
X181412714Y-64096934D01*
X181179864Y-64074000D01*
X181024136Y-64074000D01*
X180791286Y-64096934D01*
X180492512Y-64187566D01*
X180217161Y-64334744D01*
X180088440Y-64440383D01*
X180042537Y-64354506D01*
X179963185Y-64257815D01*
X179866494Y-64178463D01*
X179756180Y-64119498D01*
X179636482Y-64083188D01*
X179512000Y-64070928D01*
X177612000Y-64070928D01*
X177487518Y-64083188D01*
X177367820Y-64119498D01*
X177257506Y-64178463D01*
X177160815Y-64257815D01*
X177081463Y-64354506D01*
X177022498Y-64464820D01*
X176986188Y-64584518D01*
X176973928Y-64709000D01*
X176973928Y-66609000D01*
X176986188Y-66733482D01*
X177022498Y-66853180D01*
X177081463Y-66963494D01*
X177160815Y-67060185D01*
X177257506Y-67139537D01*
X177367820Y-67198502D01*
X177487518Y-67234812D01*
X177612000Y-67247072D01*
X178817297Y-67247072D01*
X178075207Y-67989162D01*
X178069764Y-67971219D01*
X177941157Y-67730612D01*
X177768081Y-67519719D01*
X177557188Y-67346643D01*
X177316581Y-67218036D01*
X177055507Y-67138840D01*
X176852037Y-67118800D01*
X176715963Y-67118800D01*
X176512493Y-67138840D01*
X176251419Y-67218036D01*
X176010812Y-67346643D01*
X175799919Y-67519719D01*
X175629473Y-67727408D01*
X175619812Y-67629318D01*
X175583502Y-67509620D01*
X175524537Y-67399306D01*
X175445185Y-67302615D01*
X175348494Y-67223263D01*
X175238180Y-67164298D01*
X175118482Y-67127988D01*
X174994000Y-67115728D01*
X173494000Y-67115728D01*
X173369518Y-67127988D01*
X173249820Y-67164298D01*
X173139506Y-67223263D01*
X173042815Y-67302615D01*
X172963463Y-67399306D01*
X172904498Y-67509620D01*
X172868188Y-67629318D01*
X172855928Y-67753800D01*
X172855928Y-69253800D01*
X172868188Y-69378282D01*
X172904498Y-69497980D01*
X172963463Y-69608294D01*
X173042815Y-69704985D01*
X173139506Y-69784337D01*
X173249820Y-69843302D01*
X173369518Y-69879612D01*
X173494000Y-69891872D01*
X173615135Y-69891872D01*
X173678721Y-69969351D01*
X173702579Y-69998422D01*
X173731649Y-70022279D01*
X174198720Y-70489351D01*
X174222578Y-70518422D01*
X174338608Y-70613645D01*
X174470985Y-70684402D01*
X174614622Y-70727974D01*
X174726574Y-70739000D01*
X174726576Y-70739000D01*
X174763999Y-70742686D01*
X174801422Y-70739000D01*
X177127577Y-70739000D01*
X177165000Y-70742686D01*
X177202423Y-70739000D01*
X177202426Y-70739000D01*
X177314378Y-70727974D01*
X177458015Y-70684402D01*
X177590392Y-70613645D01*
X177706422Y-70518422D01*
X177730284Y-70489346D01*
X178055478Y-70164153D01*
X178064752Y-70258316D01*
X178114577Y-70422567D01*
X178195488Y-70573942D01*
X178304377Y-70706623D01*
X178437058Y-70815512D01*
X178449000Y-70821895D01*
X178449000Y-71171369D01*
X176271649Y-73348721D01*
X176242579Y-73372578D01*
X176218722Y-73401648D01*
X176218721Y-73401649D01*
X176147355Y-73488608D01*
X176076599Y-73620985D01*
X176033027Y-73764622D01*
X176018314Y-73914000D01*
X176022001Y-73951433D01*
X176022000Y-79816910D01*
X175909518Y-79827988D01*
X175789820Y-79864298D01*
X175679506Y-79923263D01*
X175582815Y-80002615D01*
X175503463Y-80099306D01*
X175444498Y-80209620D01*
X175408188Y-80329318D01*
X175398527Y-80427408D01*
X175228081Y-80219719D01*
X175017188Y-80046643D01*
X174776581Y-79918036D01*
X174515507Y-79838840D01*
X174312037Y-79818800D01*
X174175963Y-79818800D01*
X173972493Y-79838840D01*
X173711419Y-79918036D01*
X173470812Y-80046643D01*
X173259919Y-80219719D01*
X173086843Y-80430612D01*
X172958236Y-80671219D01*
X172879040Y-80932293D01*
X172852299Y-81203800D01*
X172879040Y-81475307D01*
X172958236Y-81736381D01*
X173086843Y-81976988D01*
X173259919Y-82187881D01*
X173470812Y-82360957D01*
X173711419Y-82489564D01*
X173972493Y-82568760D01*
X174175963Y-82588800D01*
X174312037Y-82588800D01*
X174515507Y-82568760D01*
X174776581Y-82489564D01*
X175017188Y-82360957D01*
X175228081Y-82187881D01*
X175398527Y-81980192D01*
X175408188Y-82078282D01*
X175444498Y-82197980D01*
X175503463Y-82308294D01*
X175582815Y-82404985D01*
X175679506Y-82484337D01*
X175789820Y-82543302D01*
X175909518Y-82579612D01*
X176034000Y-82591872D01*
X177316890Y-82591872D01*
X177127889Y-82610487D01*
X176847966Y-82695401D01*
X176589986Y-82833294D01*
X176363866Y-83018866D01*
X176178294Y-83244986D01*
X176040401Y-83502966D01*
X175955487Y-83782889D01*
X175926815Y-84074000D01*
X175955487Y-84365111D01*
X176040401Y-84645034D01*
X176121628Y-84796999D01*
X170240002Y-84796999D01*
X170248669Y-84709000D01*
X170218066Y-84398286D01*
X170127434Y-84099512D01*
X169980256Y-83824161D01*
X169782187Y-83582813D01*
X169606950Y-83439000D01*
X169782187Y-83295187D01*
X169980256Y-83053839D01*
X170127434Y-82778488D01*
X170218066Y-82479714D01*
X170248669Y-82169000D01*
X170218066Y-81858286D01*
X170127434Y-81559512D01*
X169980256Y-81284161D01*
X169782187Y-81042813D01*
X169606950Y-80899000D01*
X169782187Y-80755187D01*
X169980256Y-80513839D01*
X170127434Y-80238488D01*
X170218066Y-79939714D01*
X170248669Y-79629000D01*
X170218066Y-79318286D01*
X170127434Y-79019512D01*
X169980256Y-78744161D01*
X169782187Y-78502813D01*
X169606950Y-78359000D01*
X169782187Y-78215187D01*
X169980256Y-77973839D01*
X170127434Y-77698488D01*
X170218066Y-77399714D01*
X170248669Y-77089000D01*
X170218066Y-76778286D01*
X170127434Y-76479512D01*
X169980256Y-76204161D01*
X169874617Y-76075440D01*
X169960494Y-76029537D01*
X170057185Y-75950185D01*
X170136537Y-75853494D01*
X170195502Y-75743180D01*
X170231812Y-75623482D01*
X170244072Y-75499000D01*
X170244072Y-73599000D01*
X170231812Y-73474518D01*
X170195502Y-73354820D01*
X170136537Y-73244506D01*
X170057185Y-73147815D01*
X169960494Y-73068463D01*
X169850180Y-73009498D01*
X169730482Y-72973188D01*
X169606000Y-72960928D01*
X167706000Y-72960928D01*
X167581518Y-72973188D01*
X167461820Y-73009498D01*
X167351506Y-73068463D01*
X167254815Y-73147815D01*
X167175463Y-73244506D01*
X167116498Y-73354820D01*
X167080188Y-73474518D01*
X167067928Y-73599000D01*
X167067928Y-75499000D01*
X167080188Y-75623482D01*
X167116498Y-75743180D01*
X167175463Y-75853494D01*
X167254815Y-75950185D01*
X167351506Y-76029537D01*
X167437383Y-76075440D01*
X167331744Y-76204161D01*
X167184566Y-76479512D01*
X167093934Y-76778286D01*
X167063331Y-77089000D01*
X165810000Y-77089000D01*
X165810000Y-65805098D01*
X166652000Y-65805098D01*
X166652000Y-66274902D01*
X166743654Y-66735679D01*
X166923440Y-67169721D01*
X167184450Y-67560349D01*
X167516651Y-67892550D01*
X167907279Y-68153560D01*
X168341321Y-68333346D01*
X168802098Y-68425000D01*
X169271902Y-68425000D01*
X169732679Y-68333346D01*
X170166721Y-68153560D01*
X170557349Y-67892550D01*
X170889550Y-67560349D01*
X171150560Y-67169721D01*
X171330346Y-66735679D01*
X171422000Y-66274902D01*
X171422000Y-65805098D01*
X171330346Y-65344321D01*
X171150560Y-64910279D01*
X170889550Y-64519651D01*
X170557349Y-64187450D01*
X170166721Y-63926440D01*
X169732679Y-63746654D01*
X169271902Y-63655000D01*
X168802098Y-63655000D01*
X168341321Y-63746654D01*
X167907279Y-63926440D01*
X167516651Y-64187450D01*
X167184450Y-64519651D01*
X166923440Y-64910279D01*
X166743654Y-65344321D01*
X166652000Y-65805098D01*
X165810000Y-65805098D01*
X165810000Y-62813000D01*
X201474000Y-62813000D01*
X201474001Y-113590000D01*
G36*
X174831749Y-97227251D02*
G01*
X174951171Y-97325258D01*
X175087418Y-97398084D01*
X175235255Y-97442929D01*
X175389000Y-97458072D01*
X177039000Y-97458072D01*
X177192745Y-97442929D01*
X177340582Y-97398084D01*
X177432036Y-97349201D01*
X177563744Y-97437205D01*
X177752102Y-97515226D01*
X177952061Y-97555000D01*
X178011369Y-97555000D01*
X178181001Y-97724632D01*
X178181000Y-100652143D01*
X178177314Y-100689566D01*
X178181000Y-100726989D01*
X178181000Y-100726991D01*
X178192026Y-100838943D01*
X178235598Y-100982580D01*
X178259439Y-101027183D01*
X178306355Y-101114958D01*
X178333845Y-101148454D01*
X178401578Y-101230988D01*
X178430654Y-101254850D01*
X181610001Y-104434198D01*
X181610000Y-110864474D01*
X181542986Y-110900294D01*
X181316866Y-111085866D01*
X181131294Y-111311986D01*
X181102000Y-111366791D01*
X181072706Y-111311986D01*
X180887134Y-111085866D01*
X180661014Y-110900294D01*
X180594000Y-110864474D01*
X180594000Y-108495423D01*
X180597686Y-108458000D01*
X180594000Y-108420574D01*
X180582974Y-108308622D01*
X180539402Y-108164985D01*
X180488447Y-108069654D01*
X180468645Y-108032607D01*
X180433857Y-107990219D01*
X180373422Y-107916578D01*
X180344346Y-107892716D01*
X174752000Y-102300370D01*
X174752000Y-101449702D01*
X175923903Y-101449702D01*
X175995486Y-101693671D01*
X176250996Y-101814571D01*
X176525184Y-101883300D01*
X176807512Y-101897217D01*
X177087130Y-101855787D01*
X177353292Y-101760603D01*
X177478514Y-101693671D01*
X177550097Y-101449702D01*
X176737000Y-100636605D01*
X175923903Y-101449702D01*
X174752000Y-101449702D01*
X174752000Y-100527512D01*
X175296783Y-100527512D01*
X175338213Y-100807130D01*
X175433397Y-101073292D01*
X175500329Y-101198514D01*
X175744298Y-101270097D01*
X176557395Y-100457000D01*
X176916605Y-100457000D01*
X177729702Y-101270097D01*
X177973671Y-101198514D01*
X178094571Y-100943004D01*
X178163300Y-100668816D01*
X178177217Y-100386488D01*
X178135787Y-100106870D01*
X178040603Y-99840708D01*
X177973671Y-99715486D01*
X177729702Y-99643903D01*
X176916605Y-100457000D01*
X176557395Y-100457000D01*
X175744298Y-99643903D01*
X175500329Y-99715486D01*
X175379429Y-99970996D01*
X175310700Y-100245184D01*
X175296783Y-100527512D01*
X174752000Y-100527512D01*
X174752000Y-99464298D01*
X175923903Y-99464298D01*
X176737000Y-100277395D01*
X177550097Y-99464298D01*
X177478514Y-99220329D01*
X177223004Y-99099429D01*
X176948816Y-99030700D01*
X176666488Y-99016783D01*
X176386870Y-99058213D01*
X176120708Y-99153397D01*
X175995486Y-99220329D01*
X175923903Y-99464298D01*
X174752000Y-99464298D01*
X174752000Y-97130076D01*
X174831749Y-97227251D01*
X174831749Y-97227251D01*
G37*
X174831749Y-97227251D02*
X174951171Y-97325258D01*
X175087418Y-97398084D01*
X175235255Y-97442929D01*
X175389000Y-97458072D01*
X177039000Y-97458072D01*
X177192745Y-97442929D01*
X177340582Y-97398084D01*
X177432036Y-97349201D01*
X177563744Y-97437205D01*
X177752102Y-97515226D01*
X177952061Y-97555000D01*
X178011369Y-97555000D01*
X178181001Y-97724632D01*
X178181000Y-100652143D01*
X178177314Y-100689566D01*
X178181000Y-100726989D01*
X178181000Y-100726991D01*
X178192026Y-100838943D01*
X178235598Y-100982580D01*
X178259439Y-101027183D01*
X178306355Y-101114958D01*
X178333845Y-101148454D01*
X178401578Y-101230988D01*
X178430654Y-101254850D01*
X181610001Y-104434198D01*
X181610000Y-110864474D01*
X181542986Y-110900294D01*
X181316866Y-111085866D01*
X181131294Y-111311986D01*
X181102000Y-111366791D01*
X181072706Y-111311986D01*
X180887134Y-111085866D01*
X180661014Y-110900294D01*
X180594000Y-110864474D01*
X180594000Y-108495423D01*
X180597686Y-108458000D01*
X180594000Y-108420574D01*
X180582974Y-108308622D01*
X180539402Y-108164985D01*
X180488447Y-108069654D01*
X180468645Y-108032607D01*
X180433857Y-107990219D01*
X180373422Y-107916578D01*
X180344346Y-107892716D01*
X174752000Y-102300370D01*
X174752000Y-101449702D01*
X175923903Y-101449702D01*
X175995486Y-101693671D01*
X176250996Y-101814571D01*
X176525184Y-101883300D01*
X176807512Y-101897217D01*
X177087130Y-101855787D01*
X177353292Y-101760603D01*
X177478514Y-101693671D01*
X177550097Y-101449702D01*
X176737000Y-100636605D01*
X175923903Y-101449702D01*
X174752000Y-101449702D01*
X174752000Y-100527512D01*
X175296783Y-100527512D01*
X175338213Y-100807130D01*
X175433397Y-101073292D01*
X175500329Y-101198514D01*
X175744298Y-101270097D01*
X176557395Y-100457000D01*
X176916605Y-100457000D01*
X177729702Y-101270097D01*
X177973671Y-101198514D01*
X178094571Y-100943004D01*
X178163300Y-100668816D01*
X178177217Y-100386488D01*
X178135787Y-100106870D01*
X178040603Y-99840708D01*
X177973671Y-99715486D01*
X177729702Y-99643903D01*
X176916605Y-100457000D01*
X176557395Y-100457000D01*
X175744298Y-99643903D01*
X175500329Y-99715486D01*
X175379429Y-99970996D01*
X175310700Y-100245184D01*
X175296783Y-100527512D01*
X174752000Y-100527512D01*
X174752000Y-99464298D01*
X175923903Y-99464298D01*
X176737000Y-100277395D01*
X177550097Y-99464298D01*
X177478514Y-99220329D01*
X177223004Y-99099429D01*
X176948816Y-99030700D01*
X176666488Y-99016783D01*
X176386870Y-99058213D01*
X176120708Y-99153397D01*
X175995486Y-99220329D01*
X175923903Y-99464298D01*
X174752000Y-99464298D01*
X174752000Y-97130076D01*
X174831749Y-97227251D01*
M02*
