M48
INCH,TZ
T1C0.0157
T2C0.0295
T3C0.0315
T4C0.0394
T5C0.0472
%
G90
G05
T1
X68050Y-44150
X68800Y-43300
X69150Y-40250
X69600Y-40250
X70100Y-37450
X70100Y-38000
X70100Y-40250
X70900Y-35850
X71750Y-35650
X72450Y-38850
X72550Y-34850
X73350Y-35600
X74450Y-35750
X74650Y-34450
X75100Y-38850
X75600Y-31550
X76050Y-28150
X76100Y-31150
X76250Y-37050
X76250Y-38550
X76450Y-28750
X77200Y-37250
X77200Y-38400
X77850Y-38950
X77950Y-36750
X78350Y-29200
X78800Y-29600
X78850Y-31500
X79000Y-30900
T2
X68600Y-26970
X68600Y-31970
X69600Y-26970
X69600Y-31970
T3
X77200Y-30550
X78184Y-30550
X69581Y-39550
X71550Y-39550
X75616Y-37800
X76600Y-37800
T4
X68800Y-44150
X69800Y-44150
X70800Y-44150
X71800Y-44150
X72800Y-44150
X73800Y-44150
X74800Y-44150
X75800Y-44150
X75800Y-40100
X75800Y-41100
X70850Y-29250
X70850Y-30250
X70850Y-31250
X73450Y-33100
X74450Y-33100
X69850Y-34850
X70850Y-34850
X73600Y-38100
X73600Y-39100
X73600Y-40100
X73600Y-41100
X77100Y-33100
X78100Y-33100
X73350Y-29650
X75319Y-29650
X69850Y-33100
X70850Y-33100
T5
X66400Y-36100
X66400Y-37100
X66400Y-38100
X66400Y-39100
X66400Y-40100
X66400Y-29350
X66400Y-30350
X66400Y-31350
X66400Y-32350
X66400Y-33350
X70300Y-25850
X71300Y-25850
X72300Y-25850
X73300Y-25850
X74300Y-25850
T0
M30
