G04 #@! TF.GenerationSoftware,KiCad,Pcbnew,(5.1.2-1)-1*
G04 #@! TF.CreationDate,2019-06-23T15:45:02-04:00*
G04 #@! TF.ProjectId,GR_555_DEV1.0,47525f35-3535-45f4-9445-56312e302e6b,rev?*
G04 #@! TF.SameCoordinates,Original*
G04 #@! TF.FileFunction,Copper,L2,Bot*
G04 #@! TF.FilePolarity,Positive*
%FSLAX46Y46*%
G04 Gerber Fmt 4.6, Leading zero omitted, Abs format (unit mm)*
G04 Created by KiCad (PCBNEW (5.1.2-1)-1) date 2019-06-23 15:45:02*
%MOMM*%
%LPD*%
G04 APERTURE LIST*
%ADD10C,2.000000*%
%ADD11R,2.000000X2.000000*%
%ADD12O,1.700000X1.700000*%
%ADD13R,1.700000X1.700000*%
%ADD14C,1.600000*%
%ADD15R,1.600000X1.600000*%
%ADD16O,1.500000X1.500000*%
%ADD17R,1.500000X1.500000*%
%ADD18O,1.900000X1.900000*%
%ADD19R,1.900000X1.900000*%
%ADD20C,0.800000*%
%ADD21C,0.406400*%
%ADD22C,0.254000*%
%ADD23C,0.250000*%
G04 APERTURE END LIST*
D10*
X191309000Y-75311000D03*
D11*
X186309000Y-75311000D03*
D12*
X177419000Y-84074000D03*
D13*
X179959000Y-84074000D03*
X177419000Y-88519000D03*
D12*
X179959000Y-88519000D03*
D13*
X186563000Y-84074000D03*
D12*
X189103000Y-84074000D03*
X198374000Y-84074000D03*
D13*
X195834000Y-84074000D03*
D12*
X192532000Y-112141000D03*
X189992000Y-112141000D03*
X187452000Y-112141000D03*
X184912000Y-112141000D03*
X182372000Y-112141000D03*
X179832000Y-112141000D03*
X177292000Y-112141000D03*
D13*
X174752000Y-112141000D03*
D14*
X181737000Y-100457000D03*
X176737000Y-100457000D03*
D15*
X196088000Y-77597000D03*
D14*
X198588000Y-77597000D03*
X194564000Y-96012000D03*
D15*
X192064000Y-96012000D03*
D13*
X192532000Y-104394000D03*
D12*
X192532000Y-101854000D03*
D16*
X174244000Y-81203800D03*
D17*
X174244000Y-68503800D03*
X176784000Y-81203800D03*
D16*
X176784000Y-68503800D03*
D13*
X186944000Y-96774000D03*
D12*
X186944000Y-99314000D03*
X186944000Y-101854000D03*
X186944000Y-104394000D03*
D13*
X179959000Y-79375000D03*
D12*
X179959000Y-76835000D03*
X179959000Y-74295000D03*
D18*
X168656000Y-84709000D03*
X168656000Y-82169000D03*
X168656000Y-79629000D03*
X168656000Y-77089000D03*
D19*
X168656000Y-74549000D03*
D18*
X168656000Y-101854000D03*
X168656000Y-99314000D03*
X168656000Y-96774000D03*
X168656000Y-94234000D03*
D19*
X168656000Y-91694000D03*
X178562000Y-65659000D03*
D18*
X181102000Y-65659000D03*
X183642000Y-65659000D03*
X186182000Y-65659000D03*
X188722000Y-65659000D03*
D20*
X189611000Y-87503000D03*
X186309000Y-90424000D03*
X184277000Y-88519000D03*
X182245000Y-90551000D03*
X196088000Y-97536000D03*
X196088000Y-94615000D03*
X193675000Y-94107000D03*
X193675000Y-97917000D03*
X178054000Y-102235000D03*
X175641000Y-102235000D03*
X176784000Y-102235000D03*
X174752000Y-109982000D03*
X172847000Y-112141000D03*
X193167000Y-71501000D03*
X194183000Y-73025000D03*
X193294000Y-79121000D03*
X192024000Y-80137000D03*
X199009000Y-74168000D03*
X200152000Y-75184000D03*
X200279000Y-80010000D03*
X200660000Y-78486000D03*
X178054000Y-95123000D03*
X189103000Y-90805000D03*
X178054000Y-96520000D03*
X184023000Y-98679000D03*
X180086000Y-91059000D03*
X190754000Y-98679000D03*
X197993000Y-93345000D03*
X197739000Y-98933000D03*
D21*
X192064000Y-96012000D02*
X192064000Y-89956000D01*
X192064000Y-89956000D02*
X189611000Y-87503000D01*
D22*
X168910000Y-76835000D02*
X168656000Y-77089000D01*
X168656000Y-74549000D02*
X168656000Y-77089000D01*
X168656000Y-79629000D02*
X168656000Y-77089000D01*
X169858081Y-79629000D02*
X170815000Y-80585919D01*
X168656000Y-79629000D02*
X169858081Y-79629000D01*
X170815000Y-80585919D02*
X170815000Y-81534000D01*
X170815000Y-81534000D02*
X171958000Y-82677000D01*
X179959000Y-82970000D02*
X179959000Y-84074000D01*
X179666000Y-82677000D02*
X179959000Y-82970000D01*
X171958000Y-82677000D02*
X179666000Y-82677000D01*
X178054000Y-95123000D02*
X178619685Y-95123000D01*
X178619685Y-95123000D02*
X184785000Y-95123000D01*
X184785000Y-95123000D02*
X189103000Y-90805000D01*
X174625000Y-93091000D02*
X178054000Y-96520000D01*
X174625000Y-85090000D02*
X174625000Y-93091000D01*
X175641000Y-84074000D02*
X174625000Y-85090000D01*
X177419000Y-84074000D02*
X175641000Y-84074000D01*
D21*
X179959000Y-88519000D02*
X182118000Y-86360000D01*
X182118000Y-86360000D02*
X187833000Y-86360000D01*
X187833000Y-86360000D02*
X188976000Y-85217000D01*
D22*
X188976000Y-84201000D02*
X189103000Y-84074000D01*
D21*
X188976000Y-85217000D02*
X188976000Y-84201000D01*
D22*
X174498000Y-99314000D02*
X175133000Y-98679000D01*
X183896000Y-98679000D02*
X184531000Y-99314000D01*
X184531000Y-99314000D02*
X184531000Y-100965000D01*
X175133000Y-98679000D02*
X183896000Y-98679000D01*
X168656000Y-99314000D02*
X174498000Y-99314000D01*
D23*
X184531000Y-101981000D02*
X186944000Y-104394000D01*
X184531000Y-100965000D02*
X184531000Y-101981000D01*
X168656000Y-101854000D02*
X168656000Y-99314000D01*
D22*
X180086000Y-91059000D02*
X179520315Y-91059000D01*
X179520315Y-91059000D02*
X176149000Y-91059000D01*
D23*
X182245000Y-84836000D02*
X182245000Y-77724000D01*
X180975000Y-86106000D02*
X182245000Y-84836000D01*
X175641000Y-87249000D02*
X176784000Y-86106000D01*
X176784000Y-86106000D02*
X180975000Y-86106000D01*
X182245000Y-77724000D02*
X181356000Y-76835000D01*
X175641000Y-90551000D02*
X175641000Y-87249000D01*
X181356000Y-76835000D02*
X179959000Y-76835000D01*
X176149000Y-91059000D02*
X175641000Y-90551000D01*
D22*
X174244000Y-76200000D02*
X176149000Y-74295000D01*
X176149000Y-74295000D02*
X179959000Y-74295000D01*
X174244000Y-81153000D02*
X174244000Y-76200000D01*
D23*
X187519919Y-65659000D02*
X186182000Y-65659000D01*
X188722000Y-65659000D02*
X187519919Y-65659000D01*
X179662000Y-65659000D02*
X181102000Y-65659000D01*
X178562000Y-65659000D02*
X179662000Y-65659000D01*
X178562000Y-66675000D02*
X178562000Y-65659000D01*
X176784000Y-68453000D02*
X178562000Y-66675000D01*
X168656000Y-84709000D02*
X168656000Y-82169000D01*
X183642000Y-79756000D02*
X183642000Y-65659000D01*
X185039000Y-81153000D02*
X183642000Y-79756000D01*
X193167000Y-85217000D02*
X193167000Y-82931000D01*
X193167000Y-82931000D02*
X191389000Y-81153000D01*
X191389000Y-81153000D02*
X185039000Y-81153000D01*
X197993000Y-90043000D02*
X193167000Y-85217000D01*
X197993000Y-93345000D02*
X197993000Y-90043000D01*
X191008000Y-98933000D02*
X197739000Y-98933000D01*
X190754000Y-98679000D02*
X191008000Y-98933000D01*
D22*
X175133000Y-97536000D02*
X183769000Y-97536000D01*
X174371000Y-96774000D02*
X175133000Y-97536000D01*
X168656000Y-96774000D02*
X174371000Y-96774000D01*
D23*
X186182000Y-99314000D02*
X186944000Y-99314000D01*
X184404000Y-97536000D02*
X186182000Y-99314000D01*
X183769000Y-97536000D02*
X184404000Y-97536000D01*
X168656000Y-92794000D02*
X168656000Y-94234000D01*
X168656000Y-91694000D02*
X168656000Y-92794000D01*
X168656000Y-96774000D02*
X168656000Y-94234000D01*
D22*
G36*
X201474001Y-113590000D02*
G01*
X192870954Y-113590000D01*
X193103034Y-113519599D01*
X193361014Y-113381706D01*
X193587134Y-113196134D01*
X193772706Y-112970014D01*
X193910599Y-112712034D01*
X193995513Y-112432111D01*
X194024185Y-112141000D01*
X193995513Y-111849889D01*
X193910599Y-111569966D01*
X193772706Y-111311986D01*
X193587134Y-111085866D01*
X193361014Y-110900294D01*
X193103034Y-110762401D01*
X192823111Y-110677487D01*
X192604950Y-110656000D01*
X192459050Y-110656000D01*
X192240889Y-110677487D01*
X191960966Y-110762401D01*
X191702986Y-110900294D01*
X191476866Y-111085866D01*
X191291294Y-111311986D01*
X191262000Y-111366791D01*
X191232706Y-111311986D01*
X191047134Y-111085866D01*
X190821014Y-110900294D01*
X190563034Y-110762401D01*
X190283111Y-110677487D01*
X190064950Y-110656000D01*
X189919050Y-110656000D01*
X189700889Y-110677487D01*
X189420966Y-110762401D01*
X189162986Y-110900294D01*
X188936866Y-111085866D01*
X188751294Y-111311986D01*
X188722000Y-111366791D01*
X188692706Y-111311986D01*
X188507134Y-111085866D01*
X188281014Y-110900294D01*
X188023034Y-110762401D01*
X187743111Y-110677487D01*
X187524950Y-110656000D01*
X187379050Y-110656000D01*
X187160889Y-110677487D01*
X186880966Y-110762401D01*
X186622986Y-110900294D01*
X186396866Y-111085866D01*
X186211294Y-111311986D01*
X186182000Y-111366791D01*
X186152706Y-111311986D01*
X185967134Y-111085866D01*
X185741014Y-110900294D01*
X185483034Y-110762401D01*
X185203111Y-110677487D01*
X184984950Y-110656000D01*
X184839050Y-110656000D01*
X184620889Y-110677487D01*
X184340966Y-110762401D01*
X184082986Y-110900294D01*
X183856866Y-111085866D01*
X183671294Y-111311986D01*
X183642000Y-111366791D01*
X183612706Y-111311986D01*
X183427134Y-111085866D01*
X183201014Y-110900294D01*
X182943034Y-110762401D01*
X182663111Y-110677487D01*
X182444950Y-110656000D01*
X182299050Y-110656000D01*
X182080889Y-110677487D01*
X181800966Y-110762401D01*
X181542986Y-110900294D01*
X181316866Y-111085866D01*
X181131294Y-111311986D01*
X181102000Y-111366791D01*
X181072706Y-111311986D01*
X180887134Y-111085866D01*
X180661014Y-110900294D01*
X180403034Y-110762401D01*
X180123111Y-110677487D01*
X179904950Y-110656000D01*
X179759050Y-110656000D01*
X179540889Y-110677487D01*
X179260966Y-110762401D01*
X179002986Y-110900294D01*
X178776866Y-111085866D01*
X178591294Y-111311986D01*
X178562000Y-111366791D01*
X178532706Y-111311986D01*
X178347134Y-111085866D01*
X178121014Y-110900294D01*
X177863034Y-110762401D01*
X177583111Y-110677487D01*
X177364950Y-110656000D01*
X177219050Y-110656000D01*
X177000889Y-110677487D01*
X176720966Y-110762401D01*
X176462986Y-110900294D01*
X176236866Y-111085866D01*
X176212393Y-111115687D01*
X176191502Y-111046820D01*
X176132537Y-110936506D01*
X176053185Y-110839815D01*
X175956494Y-110760463D01*
X175846180Y-110701498D01*
X175726482Y-110665188D01*
X175602000Y-110652928D01*
X175037750Y-110656000D01*
X174879000Y-110814750D01*
X174879000Y-112014000D01*
X174899000Y-112014000D01*
X174899000Y-112268000D01*
X174879000Y-112268000D01*
X174879000Y-112288000D01*
X174625000Y-112288000D01*
X174625000Y-112268000D01*
X173425750Y-112268000D01*
X173267000Y-112426750D01*
X173263928Y-112991000D01*
X173276188Y-113115482D01*
X173312498Y-113235180D01*
X173371463Y-113345494D01*
X173450815Y-113442185D01*
X173547506Y-113521537D01*
X173657820Y-113580502D01*
X173689131Y-113590000D01*
X165810000Y-113590000D01*
X165810000Y-110128098D01*
X166652000Y-110128098D01*
X166652000Y-110597902D01*
X166743654Y-111058679D01*
X166923440Y-111492721D01*
X167184450Y-111883349D01*
X167516651Y-112215550D01*
X167907279Y-112476560D01*
X168341321Y-112656346D01*
X168802098Y-112748000D01*
X169271902Y-112748000D01*
X169732679Y-112656346D01*
X170166721Y-112476560D01*
X170557349Y-112215550D01*
X170889550Y-111883349D01*
X171150560Y-111492721D01*
X171234115Y-111291000D01*
X173263928Y-111291000D01*
X173267000Y-111855250D01*
X173425750Y-112014000D01*
X174625000Y-112014000D01*
X174625000Y-110814750D01*
X174466250Y-110656000D01*
X173902000Y-110652928D01*
X173777518Y-110665188D01*
X173657820Y-110701498D01*
X173547506Y-110760463D01*
X173450815Y-110839815D01*
X173371463Y-110936506D01*
X173312498Y-111046820D01*
X173276188Y-111166518D01*
X173263928Y-111291000D01*
X171234115Y-111291000D01*
X171330346Y-111058679D01*
X171422000Y-110597902D01*
X171422000Y-110128098D01*
X195862000Y-110128098D01*
X195862000Y-110597902D01*
X195953654Y-111058679D01*
X196133440Y-111492721D01*
X196394450Y-111883349D01*
X196726651Y-112215550D01*
X197117279Y-112476560D01*
X197551321Y-112656346D01*
X198012098Y-112748000D01*
X198481902Y-112748000D01*
X198942679Y-112656346D01*
X199376721Y-112476560D01*
X199767349Y-112215550D01*
X200099550Y-111883349D01*
X200360560Y-111492721D01*
X200540346Y-111058679D01*
X200632000Y-110597902D01*
X200632000Y-110128098D01*
X200540346Y-109667321D01*
X200360560Y-109233279D01*
X200099550Y-108842651D01*
X199767349Y-108510450D01*
X199376721Y-108249440D01*
X198942679Y-108069654D01*
X198481902Y-107978000D01*
X198012098Y-107978000D01*
X197551321Y-108069654D01*
X197117279Y-108249440D01*
X196726651Y-108510450D01*
X196394450Y-108842651D01*
X196133440Y-109233279D01*
X195953654Y-109667321D01*
X195862000Y-110128098D01*
X171422000Y-110128098D01*
X171330346Y-109667321D01*
X171150560Y-109233279D01*
X170889550Y-108842651D01*
X170557349Y-108510450D01*
X170166721Y-108249440D01*
X169732679Y-108069654D01*
X169271902Y-107978000D01*
X168802098Y-107978000D01*
X168341321Y-108069654D01*
X167907279Y-108249440D01*
X167516651Y-108510450D01*
X167184450Y-108842651D01*
X166923440Y-109233279D01*
X166743654Y-109667321D01*
X166652000Y-110128098D01*
X165810000Y-110128098D01*
X165810000Y-77089000D01*
X167063331Y-77089000D01*
X167093934Y-77399714D01*
X167184566Y-77698488D01*
X167331744Y-77973839D01*
X167529813Y-78215187D01*
X167705050Y-78359000D01*
X167529813Y-78502813D01*
X167331744Y-78744161D01*
X167184566Y-79019512D01*
X167093934Y-79318286D01*
X167063331Y-79629000D01*
X167093934Y-79939714D01*
X167184566Y-80238488D01*
X167331744Y-80513839D01*
X167529813Y-80755187D01*
X167705050Y-80899000D01*
X167529813Y-81042813D01*
X167331744Y-81284161D01*
X167184566Y-81559512D01*
X167093934Y-81858286D01*
X167063331Y-82169000D01*
X167093934Y-82479714D01*
X167184566Y-82778488D01*
X167331744Y-83053839D01*
X167529813Y-83295187D01*
X167705050Y-83439000D01*
X167529813Y-83582813D01*
X167331744Y-83824161D01*
X167184566Y-84099512D01*
X167093934Y-84398286D01*
X167063331Y-84709000D01*
X167093934Y-85019714D01*
X167184566Y-85318488D01*
X167331744Y-85593839D01*
X167529813Y-85835187D01*
X167771161Y-86033256D01*
X168046512Y-86180434D01*
X168345286Y-86271066D01*
X168578136Y-86294000D01*
X168733864Y-86294000D01*
X168966714Y-86271066D01*
X169265488Y-86180434D01*
X169540839Y-86033256D01*
X169782187Y-85835187D01*
X169980256Y-85593839D01*
X170127434Y-85318488D01*
X170218066Y-85019714D01*
X170248669Y-84709000D01*
X170218066Y-84398286D01*
X170127434Y-84099512D01*
X169980256Y-83824161D01*
X169782187Y-83582813D01*
X169606950Y-83439000D01*
X169782187Y-83295187D01*
X169980256Y-83053839D01*
X170127434Y-82778488D01*
X170218066Y-82479714D01*
X170248669Y-82169000D01*
X170234798Y-82028167D01*
X170273579Y-82075422D01*
X170302649Y-82099279D01*
X171392720Y-83189351D01*
X171416578Y-83218422D01*
X171532608Y-83313645D01*
X171664985Y-83384402D01*
X171808622Y-83427974D01*
X171920574Y-83439000D01*
X171920576Y-83439000D01*
X171957999Y-83442686D01*
X171995422Y-83439000D01*
X175213603Y-83439000D01*
X175174610Y-83471001D01*
X175099578Y-83532578D01*
X175075721Y-83561649D01*
X174112654Y-84524716D01*
X174083578Y-84548578D01*
X174028721Y-84615422D01*
X173988355Y-84664608D01*
X173963748Y-84710645D01*
X173917598Y-84796986D01*
X173874026Y-84940623D01*
X173863403Y-85048482D01*
X173859314Y-85090000D01*
X173863000Y-85127423D01*
X173863001Y-93053567D01*
X173859314Y-93091000D01*
X173874027Y-93240378D01*
X173917599Y-93384015D01*
X173988355Y-93516392D01*
X174056172Y-93599026D01*
X174083579Y-93632422D01*
X174112649Y-93656279D01*
X177019000Y-96562631D01*
X177019000Y-96621939D01*
X177049247Y-96774000D01*
X175448631Y-96774000D01*
X174936284Y-96261653D01*
X174912422Y-96232578D01*
X174796392Y-96137355D01*
X174664015Y-96066598D01*
X174520378Y-96023026D01*
X174408426Y-96012000D01*
X174408423Y-96012000D01*
X174371000Y-96008314D01*
X174333577Y-96012000D01*
X170045915Y-96012000D01*
X169980256Y-95889161D01*
X169782187Y-95647813D01*
X169606950Y-95504000D01*
X169782187Y-95360187D01*
X169980256Y-95118839D01*
X170127434Y-94843488D01*
X170218066Y-94544714D01*
X170248669Y-94234000D01*
X170218066Y-93923286D01*
X170127434Y-93624512D01*
X169980256Y-93349161D01*
X169874617Y-93220440D01*
X169960494Y-93174537D01*
X170057185Y-93095185D01*
X170136537Y-92998494D01*
X170195502Y-92888180D01*
X170231812Y-92768482D01*
X170244072Y-92644000D01*
X170244072Y-90744000D01*
X170231812Y-90619518D01*
X170195502Y-90499820D01*
X170136537Y-90389506D01*
X170057185Y-90292815D01*
X169960494Y-90213463D01*
X169850180Y-90154498D01*
X169730482Y-90118188D01*
X169606000Y-90105928D01*
X167706000Y-90105928D01*
X167581518Y-90118188D01*
X167461820Y-90154498D01*
X167351506Y-90213463D01*
X167254815Y-90292815D01*
X167175463Y-90389506D01*
X167116498Y-90499820D01*
X167080188Y-90619518D01*
X167067928Y-90744000D01*
X167067928Y-92644000D01*
X167080188Y-92768482D01*
X167116498Y-92888180D01*
X167175463Y-92998494D01*
X167254815Y-93095185D01*
X167351506Y-93174537D01*
X167437383Y-93220440D01*
X167331744Y-93349161D01*
X167184566Y-93624512D01*
X167093934Y-93923286D01*
X167063331Y-94234000D01*
X167093934Y-94544714D01*
X167184566Y-94843488D01*
X167331744Y-95118839D01*
X167529813Y-95360187D01*
X167705050Y-95504000D01*
X167529813Y-95647813D01*
X167331744Y-95889161D01*
X167184566Y-96164512D01*
X167093934Y-96463286D01*
X167063331Y-96774000D01*
X167093934Y-97084714D01*
X167184566Y-97383488D01*
X167331744Y-97658839D01*
X167529813Y-97900187D01*
X167705050Y-98044000D01*
X167529813Y-98187813D01*
X167331744Y-98429161D01*
X167184566Y-98704512D01*
X167093934Y-99003286D01*
X167063331Y-99314000D01*
X167093934Y-99624714D01*
X167184566Y-99923488D01*
X167331744Y-100198839D01*
X167529813Y-100440187D01*
X167705050Y-100584000D01*
X167529813Y-100727813D01*
X167331744Y-100969161D01*
X167184566Y-101244512D01*
X167093934Y-101543286D01*
X167063331Y-101854000D01*
X167093934Y-102164714D01*
X167184566Y-102463488D01*
X167331744Y-102738839D01*
X167529813Y-102980187D01*
X167771161Y-103178256D01*
X168046512Y-103325434D01*
X168345286Y-103416066D01*
X168578136Y-103439000D01*
X168733864Y-103439000D01*
X168966714Y-103416066D01*
X169265488Y-103325434D01*
X169540839Y-103178256D01*
X169782187Y-102980187D01*
X169980256Y-102738839D01*
X170127434Y-102463488D01*
X170218066Y-102164714D01*
X170248669Y-101854000D01*
X170218066Y-101543286D01*
X170189678Y-101449702D01*
X175923903Y-101449702D01*
X175995486Y-101693671D01*
X176250996Y-101814571D01*
X176525184Y-101883300D01*
X176807512Y-101897217D01*
X177087130Y-101855787D01*
X177353292Y-101760603D01*
X177478514Y-101693671D01*
X177550097Y-101449702D01*
X176737000Y-100636605D01*
X175923903Y-101449702D01*
X170189678Y-101449702D01*
X170127434Y-101244512D01*
X169980256Y-100969161D01*
X169782187Y-100727813D01*
X169606950Y-100584000D01*
X169782187Y-100440187D01*
X169980256Y-100198839D01*
X170045915Y-100076000D01*
X174460577Y-100076000D01*
X174498000Y-100079686D01*
X174535423Y-100076000D01*
X174535426Y-100076000D01*
X174647378Y-100064974D01*
X174791015Y-100021402D01*
X174923392Y-99950645D01*
X175039422Y-99855422D01*
X175063284Y-99826346D01*
X175448630Y-99441000D01*
X175714653Y-99441000D01*
X175628023Y-99527630D01*
X175744296Y-99643903D01*
X175500329Y-99715486D01*
X175379429Y-99970996D01*
X175310700Y-100245184D01*
X175296783Y-100527512D01*
X175338213Y-100807130D01*
X175433397Y-101073292D01*
X175500329Y-101198514D01*
X175744298Y-101270097D01*
X176557395Y-100457000D01*
X176543253Y-100442858D01*
X176722858Y-100263253D01*
X176737000Y-100277395D01*
X176751143Y-100263253D01*
X176930748Y-100442858D01*
X176916605Y-100457000D01*
X177729702Y-101270097D01*
X177973671Y-101198514D01*
X178094571Y-100943004D01*
X178163300Y-100668816D01*
X178177217Y-100386488D01*
X178135787Y-100106870D01*
X178040603Y-99840708D01*
X177973671Y-99715486D01*
X177729704Y-99643903D01*
X177845977Y-99527630D01*
X177759347Y-99441000D01*
X180723604Y-99441000D01*
X180622363Y-99542241D01*
X180465320Y-99777273D01*
X180357147Y-100038426D01*
X180302000Y-100315665D01*
X180302000Y-100598335D01*
X180357147Y-100875574D01*
X180465320Y-101136727D01*
X180622363Y-101371759D01*
X180822241Y-101571637D01*
X181057273Y-101728680D01*
X181318426Y-101836853D01*
X181595665Y-101892000D01*
X181878335Y-101892000D01*
X182155574Y-101836853D01*
X182416727Y-101728680D01*
X182651759Y-101571637D01*
X182851637Y-101371759D01*
X183008680Y-101136727D01*
X183116853Y-100875574D01*
X183172000Y-100598335D01*
X183172000Y-100315665D01*
X183116853Y-100038426D01*
X183008680Y-99777273D01*
X182851637Y-99542241D01*
X182750396Y-99441000D01*
X183321289Y-99441000D01*
X183363226Y-99482937D01*
X183532744Y-99596205D01*
X183721102Y-99674226D01*
X183769000Y-99683753D01*
X183769001Y-101002426D01*
X183771000Y-101022724D01*
X183771001Y-101943668D01*
X183767324Y-101981000D01*
X183771001Y-102018333D01*
X183781998Y-102129986D01*
X183795180Y-102173442D01*
X183825454Y-102273246D01*
X183896026Y-102405276D01*
X183943800Y-102463488D01*
X183991000Y-102521001D01*
X184019998Y-102544799D01*
X185503203Y-104028005D01*
X185480487Y-104102889D01*
X185451815Y-104394000D01*
X185480487Y-104685111D01*
X185565401Y-104965034D01*
X185703294Y-105223014D01*
X185888866Y-105449134D01*
X186114986Y-105634706D01*
X186372966Y-105772599D01*
X186652889Y-105857513D01*
X186871050Y-105879000D01*
X187016950Y-105879000D01*
X187235111Y-105857513D01*
X187515034Y-105772599D01*
X187773014Y-105634706D01*
X187999134Y-105449134D01*
X188184706Y-105223014D01*
X188322599Y-104965034D01*
X188407513Y-104685111D01*
X188436185Y-104394000D01*
X188407513Y-104102889D01*
X188322599Y-103822966D01*
X188184706Y-103564986D01*
X187999134Y-103338866D01*
X187773014Y-103153294D01*
X187718209Y-103124000D01*
X187773014Y-103094706D01*
X187999134Y-102909134D01*
X188184706Y-102683014D01*
X188322599Y-102425034D01*
X188407513Y-102145111D01*
X188436185Y-101854000D01*
X191039815Y-101854000D01*
X191068487Y-102145111D01*
X191153401Y-102425034D01*
X191291294Y-102683014D01*
X191476866Y-102909134D01*
X191506687Y-102933607D01*
X191437820Y-102954498D01*
X191327506Y-103013463D01*
X191230815Y-103092815D01*
X191151463Y-103189506D01*
X191092498Y-103299820D01*
X191056188Y-103419518D01*
X191043928Y-103544000D01*
X191043928Y-105244000D01*
X191056188Y-105368482D01*
X191092498Y-105488180D01*
X191151463Y-105598494D01*
X191230815Y-105695185D01*
X191327506Y-105774537D01*
X191437820Y-105833502D01*
X191557518Y-105869812D01*
X191682000Y-105882072D01*
X193382000Y-105882072D01*
X193506482Y-105869812D01*
X193626180Y-105833502D01*
X193736494Y-105774537D01*
X193833185Y-105695185D01*
X193912537Y-105598494D01*
X193971502Y-105488180D01*
X194007812Y-105368482D01*
X194020072Y-105244000D01*
X194020072Y-103544000D01*
X194007812Y-103419518D01*
X193971502Y-103299820D01*
X193912537Y-103189506D01*
X193833185Y-103092815D01*
X193736494Y-103013463D01*
X193626180Y-102954498D01*
X193557313Y-102933607D01*
X193587134Y-102909134D01*
X193772706Y-102683014D01*
X193910599Y-102425034D01*
X193995513Y-102145111D01*
X194024185Y-101854000D01*
X193995513Y-101562889D01*
X193910599Y-101282966D01*
X193772706Y-101024986D01*
X193587134Y-100798866D01*
X193361014Y-100613294D01*
X193103034Y-100475401D01*
X192823111Y-100390487D01*
X192604950Y-100369000D01*
X192459050Y-100369000D01*
X192240889Y-100390487D01*
X191960966Y-100475401D01*
X191702986Y-100613294D01*
X191476866Y-100798866D01*
X191291294Y-101024986D01*
X191153401Y-101282966D01*
X191068487Y-101562889D01*
X191039815Y-101854000D01*
X188436185Y-101854000D01*
X188407513Y-101562889D01*
X188322599Y-101282966D01*
X188184706Y-101024986D01*
X187999134Y-100798866D01*
X187773014Y-100613294D01*
X187718209Y-100584000D01*
X187773014Y-100554706D01*
X187999134Y-100369134D01*
X188184706Y-100143014D01*
X188322599Y-99885034D01*
X188407513Y-99605111D01*
X188436185Y-99314000D01*
X188407513Y-99022889D01*
X188322599Y-98742966D01*
X188233922Y-98577061D01*
X189719000Y-98577061D01*
X189719000Y-98780939D01*
X189758774Y-98980898D01*
X189836795Y-99169256D01*
X189950063Y-99338774D01*
X190094226Y-99482937D01*
X190263744Y-99596205D01*
X190452102Y-99674226D01*
X190652061Y-99714000D01*
X190855939Y-99714000D01*
X190964545Y-99692397D01*
X190970667Y-99693000D01*
X190970676Y-99693000D01*
X191007999Y-99696676D01*
X191045322Y-99693000D01*
X197035289Y-99693000D01*
X197079226Y-99736937D01*
X197248744Y-99850205D01*
X197437102Y-99928226D01*
X197637061Y-99968000D01*
X197840939Y-99968000D01*
X198040898Y-99928226D01*
X198229256Y-99850205D01*
X198398774Y-99736937D01*
X198542937Y-99592774D01*
X198656205Y-99423256D01*
X198734226Y-99234898D01*
X198774000Y-99034939D01*
X198774000Y-98831061D01*
X198734226Y-98631102D01*
X198656205Y-98442744D01*
X198542937Y-98273226D01*
X198398774Y-98129063D01*
X198229256Y-98015795D01*
X198040898Y-97937774D01*
X197840939Y-97898000D01*
X197637061Y-97898000D01*
X197437102Y-97937774D01*
X197248744Y-98015795D01*
X197079226Y-98129063D01*
X197035289Y-98173000D01*
X191660685Y-98173000D01*
X191557937Y-98019226D01*
X191413774Y-97875063D01*
X191244256Y-97761795D01*
X191055898Y-97683774D01*
X190855939Y-97644000D01*
X190652061Y-97644000D01*
X190452102Y-97683774D01*
X190263744Y-97761795D01*
X190094226Y-97875063D01*
X189950063Y-98019226D01*
X189836795Y-98188744D01*
X189758774Y-98377102D01*
X189719000Y-98577061D01*
X188233922Y-98577061D01*
X188184706Y-98484986D01*
X187999134Y-98258866D01*
X187969313Y-98234393D01*
X188038180Y-98213502D01*
X188148494Y-98154537D01*
X188245185Y-98075185D01*
X188324537Y-97978494D01*
X188383502Y-97868180D01*
X188419812Y-97748482D01*
X188432072Y-97624000D01*
X188432072Y-95924000D01*
X188419812Y-95799518D01*
X188383502Y-95679820D01*
X188324537Y-95569506D01*
X188245185Y-95472815D01*
X188148494Y-95393463D01*
X188038180Y-95334498D01*
X187918482Y-95298188D01*
X187794000Y-95285928D01*
X186094000Y-95285928D01*
X185969518Y-95298188D01*
X185849820Y-95334498D01*
X185739506Y-95393463D01*
X185642815Y-95472815D01*
X185563463Y-95569506D01*
X185504498Y-95679820D01*
X185468188Y-95799518D01*
X185455928Y-95924000D01*
X185455928Y-97513127D01*
X184967804Y-97025003D01*
X184944001Y-96995999D01*
X184828276Y-96901026D01*
X184696247Y-96830454D01*
X184552986Y-96786997D01*
X184441333Y-96776000D01*
X184441322Y-96776000D01*
X184404000Y-96772324D01*
X184366678Y-96776000D01*
X183826733Y-96776000D01*
X183806426Y-96774000D01*
X179058753Y-96774000D01*
X179089000Y-96621939D01*
X179089000Y-96418061D01*
X179049226Y-96218102D01*
X178971205Y-96029744D01*
X178874490Y-95885000D01*
X184747577Y-95885000D01*
X184785000Y-95888686D01*
X184822423Y-95885000D01*
X184822426Y-95885000D01*
X184934378Y-95873974D01*
X185078015Y-95830402D01*
X185210392Y-95759645D01*
X185326422Y-95664422D01*
X185350284Y-95635346D01*
X189145631Y-91840000D01*
X189204939Y-91840000D01*
X189404898Y-91800226D01*
X189593256Y-91722205D01*
X189762774Y-91608937D01*
X189906937Y-91464774D01*
X190020205Y-91295256D01*
X190098226Y-91106898D01*
X190138000Y-90906939D01*
X190138000Y-90703061D01*
X190098226Y-90503102D01*
X190020205Y-90314744D01*
X189906937Y-90145226D01*
X189762774Y-90001063D01*
X189593256Y-89887795D01*
X189404898Y-89809774D01*
X189204939Y-89770000D01*
X189001061Y-89770000D01*
X188801102Y-89809774D01*
X188612744Y-89887795D01*
X188443226Y-90001063D01*
X188299063Y-90145226D01*
X188185795Y-90314744D01*
X188107774Y-90503102D01*
X188068000Y-90703061D01*
X188068000Y-90762369D01*
X184469370Y-94361000D01*
X178755711Y-94361000D01*
X178713774Y-94319063D01*
X178544256Y-94205795D01*
X178355898Y-94127774D01*
X178155939Y-94088000D01*
X177952061Y-94088000D01*
X177752102Y-94127774D01*
X177563744Y-94205795D01*
X177394226Y-94319063D01*
X177250063Y-94463226D01*
X177179885Y-94568255D01*
X175387000Y-92775370D01*
X175387000Y-91371802D01*
X175570773Y-91555575D01*
X175607578Y-91600422D01*
X175723608Y-91695645D01*
X175855985Y-91766402D01*
X175999622Y-91809974D01*
X176111574Y-91821000D01*
X176131982Y-91821000D01*
X176148999Y-91822676D01*
X176166016Y-91821000D01*
X179384289Y-91821000D01*
X179426226Y-91862937D01*
X179595744Y-91976205D01*
X179784102Y-92054226D01*
X179984061Y-92094000D01*
X180187939Y-92094000D01*
X180387898Y-92054226D01*
X180576256Y-91976205D01*
X180745774Y-91862937D01*
X180889937Y-91718774D01*
X181003205Y-91549256D01*
X181081226Y-91360898D01*
X181121000Y-91160939D01*
X181121000Y-90957061D01*
X181081226Y-90757102D01*
X181003205Y-90568744D01*
X180889937Y-90399226D01*
X180745774Y-90255063D01*
X180576256Y-90141795D01*
X180387898Y-90063774D01*
X180187939Y-90024000D01*
X179984061Y-90024000D01*
X179784102Y-90063774D01*
X179595744Y-90141795D01*
X179426226Y-90255063D01*
X179384289Y-90297000D01*
X176461802Y-90297000D01*
X176401000Y-90236199D01*
X176401000Y-89981611D01*
X176444518Y-89994812D01*
X176569000Y-90007072D01*
X178269000Y-90007072D01*
X178393482Y-89994812D01*
X178513180Y-89958502D01*
X178623494Y-89899537D01*
X178720185Y-89820185D01*
X178799537Y-89723494D01*
X178858502Y-89613180D01*
X178879393Y-89544313D01*
X178903866Y-89574134D01*
X179129986Y-89759706D01*
X179387966Y-89897599D01*
X179667889Y-89982513D01*
X179886050Y-90004000D01*
X180031950Y-90004000D01*
X180250111Y-89982513D01*
X180530034Y-89897599D01*
X180788014Y-89759706D01*
X181014134Y-89574134D01*
X181199706Y-89348014D01*
X181337599Y-89090034D01*
X181422513Y-88810111D01*
X181451185Y-88519000D01*
X181423678Y-88239716D01*
X182262333Y-87401061D01*
X188576000Y-87401061D01*
X188576000Y-87604939D01*
X188615774Y-87804898D01*
X188693795Y-87993256D01*
X188807063Y-88162774D01*
X188951226Y-88306937D01*
X189120744Y-88420205D01*
X189309102Y-88498226D01*
X189448576Y-88525969D01*
X191225801Y-90303195D01*
X191225800Y-94577690D01*
X191139518Y-94586188D01*
X191019820Y-94622498D01*
X190909506Y-94681463D01*
X190812815Y-94760815D01*
X190733463Y-94857506D01*
X190674498Y-94967820D01*
X190638188Y-95087518D01*
X190625928Y-95212000D01*
X190625928Y-96812000D01*
X190638188Y-96936482D01*
X190674498Y-97056180D01*
X190733463Y-97166494D01*
X190812815Y-97263185D01*
X190909506Y-97342537D01*
X191019820Y-97401502D01*
X191139518Y-97437812D01*
X191264000Y-97450072D01*
X192864000Y-97450072D01*
X192988482Y-97437812D01*
X193108180Y-97401502D01*
X193218494Y-97342537D01*
X193315185Y-97263185D01*
X193394537Y-97166494D01*
X193453502Y-97056180D01*
X193469117Y-97004702D01*
X193750903Y-97004702D01*
X193822486Y-97248671D01*
X194077996Y-97369571D01*
X194352184Y-97438300D01*
X194634512Y-97452217D01*
X194914130Y-97410787D01*
X195180292Y-97315603D01*
X195305514Y-97248671D01*
X195377097Y-97004702D01*
X194564000Y-96191605D01*
X193750903Y-97004702D01*
X193469117Y-97004702D01*
X193489812Y-96936482D01*
X193502072Y-96812000D01*
X193502072Y-96804785D01*
X193571298Y-96825097D01*
X194384395Y-96012000D01*
X194743605Y-96012000D01*
X195556702Y-96825097D01*
X195800671Y-96753514D01*
X195921571Y-96498004D01*
X195990300Y-96223816D01*
X196004217Y-95941488D01*
X195962787Y-95661870D01*
X195867603Y-95395708D01*
X195800671Y-95270486D01*
X195556702Y-95198903D01*
X194743605Y-96012000D01*
X194384395Y-96012000D01*
X193571298Y-95198903D01*
X193502072Y-95219215D01*
X193502072Y-95212000D01*
X193489812Y-95087518D01*
X193469118Y-95019298D01*
X193750903Y-95019298D01*
X194564000Y-95832395D01*
X195377097Y-95019298D01*
X195305514Y-94775329D01*
X195050004Y-94654429D01*
X194775816Y-94585700D01*
X194493488Y-94571783D01*
X194213870Y-94613213D01*
X193947708Y-94708397D01*
X193822486Y-94775329D01*
X193750903Y-95019298D01*
X193469118Y-95019298D01*
X193453502Y-94967820D01*
X193394537Y-94857506D01*
X193315185Y-94760815D01*
X193218494Y-94681463D01*
X193108180Y-94622498D01*
X192988482Y-94586188D01*
X192902200Y-94577690D01*
X192902200Y-89997163D01*
X192906254Y-89956000D01*
X192902200Y-89914837D01*
X192902200Y-89914830D01*
X192890071Y-89791684D01*
X192842142Y-89633683D01*
X192764309Y-89488068D01*
X192659564Y-89360436D01*
X192627588Y-89334194D01*
X190633969Y-87340576D01*
X190606226Y-87201102D01*
X190528205Y-87012744D01*
X190414937Y-86843226D01*
X190270774Y-86699063D01*
X190101256Y-86585795D01*
X189912898Y-86507774D01*
X189712939Y-86468000D01*
X189509061Y-86468000D01*
X189309102Y-86507774D01*
X189120744Y-86585795D01*
X188951226Y-86699063D01*
X188807063Y-86843226D01*
X188693795Y-87012744D01*
X188615774Y-87201102D01*
X188576000Y-87401061D01*
X182262333Y-87401061D01*
X182465194Y-87198200D01*
X187791837Y-87198200D01*
X187833000Y-87202254D01*
X187874163Y-87198200D01*
X187874170Y-87198200D01*
X187997316Y-87186071D01*
X188155317Y-87138142D01*
X188300932Y-87060309D01*
X188428564Y-86955564D01*
X188454811Y-86923582D01*
X189539589Y-85838805D01*
X189571564Y-85812564D01*
X189617164Y-85757001D01*
X189676309Y-85684932D01*
X189729722Y-85585003D01*
X189754142Y-85539317D01*
X189801041Y-85384713D01*
X189932014Y-85314706D01*
X190158134Y-85129134D01*
X190343706Y-84903014D01*
X190481599Y-84645034D01*
X190566513Y-84365111D01*
X190595185Y-84074000D01*
X190566513Y-83782889D01*
X190481599Y-83502966D01*
X190343706Y-83244986D01*
X190158134Y-83018866D01*
X189932014Y-82833294D01*
X189674034Y-82695401D01*
X189394111Y-82610487D01*
X189175950Y-82589000D01*
X189030050Y-82589000D01*
X188811889Y-82610487D01*
X188531966Y-82695401D01*
X188273986Y-82833294D01*
X188047866Y-83018866D01*
X188023393Y-83048687D01*
X188002502Y-82979820D01*
X187943537Y-82869506D01*
X187864185Y-82772815D01*
X187767494Y-82693463D01*
X187657180Y-82634498D01*
X187537482Y-82598188D01*
X187413000Y-82585928D01*
X185713000Y-82585928D01*
X185588518Y-82598188D01*
X185468820Y-82634498D01*
X185358506Y-82693463D01*
X185261815Y-82772815D01*
X185182463Y-82869506D01*
X185123498Y-82979820D01*
X185087188Y-83099518D01*
X185074928Y-83224000D01*
X185074928Y-84924000D01*
X185087188Y-85048482D01*
X185123498Y-85168180D01*
X185182463Y-85278494D01*
X185261815Y-85375185D01*
X185358506Y-85454537D01*
X185468820Y-85513502D01*
X185496175Y-85521800D01*
X182634002Y-85521800D01*
X182756004Y-85399798D01*
X182785001Y-85376001D01*
X182879974Y-85260276D01*
X182950546Y-85128247D01*
X182994003Y-84984986D01*
X183005000Y-84873333D01*
X183005000Y-84873324D01*
X183008676Y-84836001D01*
X183005000Y-84798678D01*
X183005000Y-80176486D01*
X183007026Y-80180276D01*
X183046871Y-80228826D01*
X183101999Y-80296001D01*
X183131003Y-80319804D01*
X184475200Y-81664002D01*
X184498999Y-81693001D01*
X184614724Y-81787974D01*
X184746753Y-81858546D01*
X184890014Y-81902003D01*
X185001667Y-81913000D01*
X185001676Y-81913000D01*
X185038999Y-81916676D01*
X185076322Y-81913000D01*
X191074199Y-81913000D01*
X192407001Y-83245803D01*
X192407000Y-85179677D01*
X192403324Y-85217000D01*
X192407000Y-85254322D01*
X192407000Y-85254332D01*
X192417997Y-85365985D01*
X192450361Y-85472677D01*
X192461454Y-85509246D01*
X192532026Y-85641276D01*
X192547139Y-85659691D01*
X192626999Y-85757001D01*
X192656003Y-85780804D01*
X197233001Y-90357803D01*
X197233000Y-92641289D01*
X197189063Y-92685226D01*
X197075795Y-92854744D01*
X196997774Y-93043102D01*
X196958000Y-93243061D01*
X196958000Y-93446939D01*
X196997774Y-93646898D01*
X197075795Y-93835256D01*
X197189063Y-94004774D01*
X197333226Y-94148937D01*
X197502744Y-94262205D01*
X197691102Y-94340226D01*
X197891061Y-94380000D01*
X198094939Y-94380000D01*
X198294898Y-94340226D01*
X198483256Y-94262205D01*
X198652774Y-94148937D01*
X198796937Y-94004774D01*
X198910205Y-93835256D01*
X198988226Y-93646898D01*
X199028000Y-93446939D01*
X199028000Y-93243061D01*
X198988226Y-93043102D01*
X198910205Y-92854744D01*
X198796937Y-92685226D01*
X198753000Y-92641289D01*
X198753000Y-90080325D01*
X198756676Y-90043000D01*
X198753000Y-90005675D01*
X198753000Y-90005667D01*
X198742003Y-89894014D01*
X198698546Y-89750753D01*
X198627974Y-89618724D01*
X198533001Y-89502999D01*
X198504003Y-89479201D01*
X193927000Y-84902199D01*
X193927000Y-83224000D01*
X194345928Y-83224000D01*
X194345928Y-84924000D01*
X194358188Y-85048482D01*
X194394498Y-85168180D01*
X194453463Y-85278494D01*
X194532815Y-85375185D01*
X194629506Y-85454537D01*
X194739820Y-85513502D01*
X194859518Y-85549812D01*
X194984000Y-85562072D01*
X196684000Y-85562072D01*
X196808482Y-85549812D01*
X196928180Y-85513502D01*
X197038494Y-85454537D01*
X197135185Y-85375185D01*
X197214537Y-85278494D01*
X197273502Y-85168180D01*
X197294393Y-85099313D01*
X197318866Y-85129134D01*
X197544986Y-85314706D01*
X197802966Y-85452599D01*
X198082889Y-85537513D01*
X198301050Y-85559000D01*
X198446950Y-85559000D01*
X198665111Y-85537513D01*
X198945034Y-85452599D01*
X199203014Y-85314706D01*
X199429134Y-85129134D01*
X199614706Y-84903014D01*
X199752599Y-84645034D01*
X199837513Y-84365111D01*
X199866185Y-84074000D01*
X199837513Y-83782889D01*
X199752599Y-83502966D01*
X199614706Y-83244986D01*
X199429134Y-83018866D01*
X199203014Y-82833294D01*
X198945034Y-82695401D01*
X198665111Y-82610487D01*
X198446950Y-82589000D01*
X198301050Y-82589000D01*
X198082889Y-82610487D01*
X197802966Y-82695401D01*
X197544986Y-82833294D01*
X197318866Y-83018866D01*
X197294393Y-83048687D01*
X197273502Y-82979820D01*
X197214537Y-82869506D01*
X197135185Y-82772815D01*
X197038494Y-82693463D01*
X196928180Y-82634498D01*
X196808482Y-82598188D01*
X196684000Y-82585928D01*
X194984000Y-82585928D01*
X194859518Y-82598188D01*
X194739820Y-82634498D01*
X194629506Y-82693463D01*
X194532815Y-82772815D01*
X194453463Y-82869506D01*
X194394498Y-82979820D01*
X194358188Y-83099518D01*
X194345928Y-83224000D01*
X193927000Y-83224000D01*
X193927000Y-82968325D01*
X193930676Y-82931000D01*
X193927000Y-82893675D01*
X193927000Y-82893667D01*
X193916003Y-82782014D01*
X193872546Y-82638753D01*
X193801974Y-82506724D01*
X193707001Y-82390999D01*
X193678003Y-82367201D01*
X191952804Y-80642003D01*
X191929001Y-80612999D01*
X191813276Y-80518026D01*
X191681247Y-80447454D01*
X191537986Y-80403997D01*
X191426333Y-80393000D01*
X191426322Y-80393000D01*
X191389000Y-80389324D01*
X191351678Y-80393000D01*
X185353802Y-80393000D01*
X184402000Y-79441199D01*
X184402000Y-74311000D01*
X184670928Y-74311000D01*
X184670928Y-76311000D01*
X184683188Y-76435482D01*
X184719498Y-76555180D01*
X184778463Y-76665494D01*
X184857815Y-76762185D01*
X184954506Y-76841537D01*
X185064820Y-76900502D01*
X185184518Y-76936812D01*
X185309000Y-76949072D01*
X187309000Y-76949072D01*
X187433482Y-76936812D01*
X187553180Y-76900502D01*
X187663494Y-76841537D01*
X187760185Y-76762185D01*
X187839537Y-76665494D01*
X187898502Y-76555180D01*
X187931496Y-76446413D01*
X190353192Y-76446413D01*
X190448956Y-76710814D01*
X190738571Y-76851704D01*
X191050108Y-76933384D01*
X191371595Y-76952718D01*
X191690675Y-76908961D01*
X191995088Y-76803795D01*
X192007800Y-76797000D01*
X194649928Y-76797000D01*
X194649928Y-78397000D01*
X194662188Y-78521482D01*
X194698498Y-78641180D01*
X194757463Y-78751494D01*
X194836815Y-78848185D01*
X194933506Y-78927537D01*
X195043820Y-78986502D01*
X195163518Y-79022812D01*
X195288000Y-79035072D01*
X196888000Y-79035072D01*
X197012482Y-79022812D01*
X197132180Y-78986502D01*
X197242494Y-78927537D01*
X197339185Y-78848185D01*
X197418537Y-78751494D01*
X197477502Y-78641180D01*
X197493117Y-78589702D01*
X197774903Y-78589702D01*
X197846486Y-78833671D01*
X198101996Y-78954571D01*
X198376184Y-79023300D01*
X198658512Y-79037217D01*
X198938130Y-78995787D01*
X199204292Y-78900603D01*
X199329514Y-78833671D01*
X199401097Y-78589702D01*
X198588000Y-77776605D01*
X197774903Y-78589702D01*
X197493117Y-78589702D01*
X197513812Y-78521482D01*
X197526072Y-78397000D01*
X197526072Y-78389785D01*
X197595298Y-78410097D01*
X198408395Y-77597000D01*
X198767605Y-77597000D01*
X199580702Y-78410097D01*
X199824671Y-78338514D01*
X199945571Y-78083004D01*
X200014300Y-77808816D01*
X200028217Y-77526488D01*
X199986787Y-77246870D01*
X199891603Y-76980708D01*
X199824671Y-76855486D01*
X199580702Y-76783903D01*
X198767605Y-77597000D01*
X198408395Y-77597000D01*
X197595298Y-76783903D01*
X197526072Y-76804215D01*
X197526072Y-76797000D01*
X197513812Y-76672518D01*
X197493118Y-76604298D01*
X197774903Y-76604298D01*
X198588000Y-77417395D01*
X199401097Y-76604298D01*
X199329514Y-76360329D01*
X199074004Y-76239429D01*
X198799816Y-76170700D01*
X198517488Y-76156783D01*
X198237870Y-76198213D01*
X197971708Y-76293397D01*
X197846486Y-76360329D01*
X197774903Y-76604298D01*
X197493118Y-76604298D01*
X197477502Y-76552820D01*
X197418537Y-76442506D01*
X197339185Y-76345815D01*
X197242494Y-76266463D01*
X197132180Y-76207498D01*
X197012482Y-76171188D01*
X196888000Y-76158928D01*
X195288000Y-76158928D01*
X195163518Y-76171188D01*
X195043820Y-76207498D01*
X194933506Y-76266463D01*
X194836815Y-76345815D01*
X194757463Y-76442506D01*
X194698498Y-76552820D01*
X194662188Y-76672518D01*
X194649928Y-76797000D01*
X192007800Y-76797000D01*
X192169044Y-76710814D01*
X192264808Y-76446413D01*
X191309000Y-75490605D01*
X190353192Y-76446413D01*
X187931496Y-76446413D01*
X187934812Y-76435482D01*
X187947072Y-76311000D01*
X187947072Y-75373595D01*
X189667282Y-75373595D01*
X189711039Y-75692675D01*
X189816205Y-75997088D01*
X189909186Y-76171044D01*
X190173587Y-76266808D01*
X191129395Y-75311000D01*
X191488605Y-75311000D01*
X192444413Y-76266808D01*
X192708814Y-76171044D01*
X192849704Y-75881429D01*
X192931384Y-75569892D01*
X192950718Y-75248405D01*
X192906961Y-74929325D01*
X192801795Y-74624912D01*
X192708814Y-74450956D01*
X192444413Y-74355192D01*
X191488605Y-75311000D01*
X191129395Y-75311000D01*
X190173587Y-74355192D01*
X189909186Y-74450956D01*
X189768296Y-74740571D01*
X189686616Y-75052108D01*
X189667282Y-75373595D01*
X187947072Y-75373595D01*
X187947072Y-74311000D01*
X187934812Y-74186518D01*
X187931497Y-74175587D01*
X190353192Y-74175587D01*
X191309000Y-75131395D01*
X192264808Y-74175587D01*
X192169044Y-73911186D01*
X191879429Y-73770296D01*
X191567892Y-73688616D01*
X191246405Y-73669282D01*
X190927325Y-73713039D01*
X190622912Y-73818205D01*
X190448956Y-73911186D01*
X190353192Y-74175587D01*
X187931497Y-74175587D01*
X187898502Y-74066820D01*
X187839537Y-73956506D01*
X187760185Y-73859815D01*
X187663494Y-73780463D01*
X187553180Y-73721498D01*
X187433482Y-73685188D01*
X187309000Y-73672928D01*
X185309000Y-73672928D01*
X185184518Y-73685188D01*
X185064820Y-73721498D01*
X184954506Y-73780463D01*
X184857815Y-73859815D01*
X184778463Y-73956506D01*
X184719498Y-74066820D01*
X184683188Y-74186518D01*
X184670928Y-74311000D01*
X184402000Y-74311000D01*
X184402000Y-67049984D01*
X184526839Y-66983256D01*
X184768187Y-66785187D01*
X184912000Y-66609950D01*
X185055813Y-66785187D01*
X185297161Y-66983256D01*
X185572512Y-67130434D01*
X185871286Y-67221066D01*
X186104136Y-67244000D01*
X186259864Y-67244000D01*
X186492714Y-67221066D01*
X186791488Y-67130434D01*
X187066839Y-66983256D01*
X187308187Y-66785187D01*
X187452000Y-66609950D01*
X187595813Y-66785187D01*
X187837161Y-66983256D01*
X188112512Y-67130434D01*
X188411286Y-67221066D01*
X188644136Y-67244000D01*
X188799864Y-67244000D01*
X189032714Y-67221066D01*
X189331488Y-67130434D01*
X189606839Y-66983256D01*
X189848187Y-66785187D01*
X190046256Y-66543839D01*
X190193434Y-66268488D01*
X190284066Y-65969714D01*
X190300279Y-65805098D01*
X195862000Y-65805098D01*
X195862000Y-66274902D01*
X195953654Y-66735679D01*
X196133440Y-67169721D01*
X196394450Y-67560349D01*
X196726651Y-67892550D01*
X197117279Y-68153560D01*
X197551321Y-68333346D01*
X198012098Y-68425000D01*
X198481902Y-68425000D01*
X198942679Y-68333346D01*
X199376721Y-68153560D01*
X199767349Y-67892550D01*
X200099550Y-67560349D01*
X200360560Y-67169721D01*
X200540346Y-66735679D01*
X200632000Y-66274902D01*
X200632000Y-65805098D01*
X200540346Y-65344321D01*
X200360560Y-64910279D01*
X200099550Y-64519651D01*
X199767349Y-64187450D01*
X199376721Y-63926440D01*
X198942679Y-63746654D01*
X198481902Y-63655000D01*
X198012098Y-63655000D01*
X197551321Y-63746654D01*
X197117279Y-63926440D01*
X196726651Y-64187450D01*
X196394450Y-64519651D01*
X196133440Y-64910279D01*
X195953654Y-65344321D01*
X195862000Y-65805098D01*
X190300279Y-65805098D01*
X190314669Y-65659000D01*
X190284066Y-65348286D01*
X190193434Y-65049512D01*
X190046256Y-64774161D01*
X189848187Y-64532813D01*
X189606839Y-64334744D01*
X189331488Y-64187566D01*
X189032714Y-64096934D01*
X188799864Y-64074000D01*
X188644136Y-64074000D01*
X188411286Y-64096934D01*
X188112512Y-64187566D01*
X187837161Y-64334744D01*
X187595813Y-64532813D01*
X187452000Y-64708050D01*
X187308187Y-64532813D01*
X187066839Y-64334744D01*
X186791488Y-64187566D01*
X186492714Y-64096934D01*
X186259864Y-64074000D01*
X186104136Y-64074000D01*
X185871286Y-64096934D01*
X185572512Y-64187566D01*
X185297161Y-64334744D01*
X185055813Y-64532813D01*
X184912000Y-64708050D01*
X184768187Y-64532813D01*
X184526839Y-64334744D01*
X184251488Y-64187566D01*
X183952714Y-64096934D01*
X183719864Y-64074000D01*
X183564136Y-64074000D01*
X183331286Y-64096934D01*
X183032512Y-64187566D01*
X182757161Y-64334744D01*
X182515813Y-64532813D01*
X182372000Y-64708050D01*
X182228187Y-64532813D01*
X181986839Y-64334744D01*
X181711488Y-64187566D01*
X181412714Y-64096934D01*
X181179864Y-64074000D01*
X181024136Y-64074000D01*
X180791286Y-64096934D01*
X180492512Y-64187566D01*
X180217161Y-64334744D01*
X180088440Y-64440383D01*
X180042537Y-64354506D01*
X179963185Y-64257815D01*
X179866494Y-64178463D01*
X179756180Y-64119498D01*
X179636482Y-64083188D01*
X179512000Y-64070928D01*
X177612000Y-64070928D01*
X177487518Y-64083188D01*
X177367820Y-64119498D01*
X177257506Y-64178463D01*
X177160815Y-64257815D01*
X177081463Y-64354506D01*
X177022498Y-64464820D01*
X176986188Y-64584518D01*
X176973928Y-64709000D01*
X176973928Y-66609000D01*
X176986188Y-66733482D01*
X177022498Y-66853180D01*
X177081463Y-66963494D01*
X177134310Y-67027888D01*
X177026241Y-67135958D01*
X176852037Y-67118800D01*
X176715963Y-67118800D01*
X176512493Y-67138840D01*
X176251419Y-67218036D01*
X176010812Y-67346643D01*
X175799919Y-67519719D01*
X175629473Y-67727408D01*
X175619812Y-67629318D01*
X175583502Y-67509620D01*
X175524537Y-67399306D01*
X175445185Y-67302615D01*
X175348494Y-67223263D01*
X175238180Y-67164298D01*
X175118482Y-67127988D01*
X174994000Y-67115728D01*
X173494000Y-67115728D01*
X173369518Y-67127988D01*
X173249820Y-67164298D01*
X173139506Y-67223263D01*
X173042815Y-67302615D01*
X172963463Y-67399306D01*
X172904498Y-67509620D01*
X172868188Y-67629318D01*
X172855928Y-67753800D01*
X172855928Y-69253800D01*
X172868188Y-69378282D01*
X172904498Y-69497980D01*
X172963463Y-69608294D01*
X173042815Y-69704985D01*
X173139506Y-69784337D01*
X173249820Y-69843302D01*
X173369518Y-69879612D01*
X173494000Y-69891872D01*
X174994000Y-69891872D01*
X175118482Y-69879612D01*
X175238180Y-69843302D01*
X175348494Y-69784337D01*
X175445185Y-69704985D01*
X175524537Y-69608294D01*
X175583502Y-69497980D01*
X175619812Y-69378282D01*
X175629473Y-69280192D01*
X175799919Y-69487881D01*
X176010812Y-69660957D01*
X176251419Y-69789564D01*
X176512493Y-69868760D01*
X176715963Y-69888800D01*
X176852037Y-69888800D01*
X177055507Y-69868760D01*
X177316581Y-69789564D01*
X177557188Y-69660957D01*
X177768081Y-69487881D01*
X177941157Y-69276988D01*
X178069764Y-69036381D01*
X178148960Y-68775307D01*
X178175701Y-68503800D01*
X178148960Y-68232293D01*
X178132796Y-68179006D01*
X179064730Y-67247072D01*
X179512000Y-67247072D01*
X179636482Y-67234812D01*
X179756180Y-67198502D01*
X179866494Y-67139537D01*
X179963185Y-67060185D01*
X180042537Y-66963494D01*
X180088440Y-66877617D01*
X180217161Y-66983256D01*
X180492512Y-67130434D01*
X180791286Y-67221066D01*
X181024136Y-67244000D01*
X181179864Y-67244000D01*
X181412714Y-67221066D01*
X181711488Y-67130434D01*
X181986839Y-66983256D01*
X182228187Y-66785187D01*
X182372000Y-66609950D01*
X182515813Y-66785187D01*
X182757161Y-66983256D01*
X182882001Y-67049984D01*
X182882000Y-77303515D01*
X182879974Y-77299724D01*
X182785001Y-77183999D01*
X182756003Y-77160201D01*
X181919803Y-76324002D01*
X181896001Y-76294999D01*
X181780276Y-76200026D01*
X181648247Y-76129454D01*
X181504986Y-76085997D01*
X181393333Y-76075000D01*
X181393322Y-76075000D01*
X181356000Y-76071324D01*
X181318678Y-76075000D01*
X181236595Y-76075000D01*
X181199706Y-76005986D01*
X181014134Y-75779866D01*
X180788014Y-75594294D01*
X180733209Y-75565000D01*
X180788014Y-75535706D01*
X181014134Y-75350134D01*
X181199706Y-75124014D01*
X181337599Y-74866034D01*
X181422513Y-74586111D01*
X181451185Y-74295000D01*
X181422513Y-74003889D01*
X181337599Y-73723966D01*
X181199706Y-73465986D01*
X181014134Y-73239866D01*
X180788014Y-73054294D01*
X180530034Y-72916401D01*
X180250111Y-72831487D01*
X180031950Y-72810000D01*
X179886050Y-72810000D01*
X179667889Y-72831487D01*
X179387966Y-72916401D01*
X179129986Y-73054294D01*
X178903866Y-73239866D01*
X178718294Y-73465986D01*
X178682474Y-73533000D01*
X176186423Y-73533000D01*
X176149000Y-73529314D01*
X176111577Y-73533000D01*
X176111574Y-73533000D01*
X175999622Y-73544026D01*
X175855985Y-73587598D01*
X175794364Y-73620535D01*
X175723607Y-73658355D01*
X175656975Y-73713039D01*
X175607578Y-73753578D01*
X175583721Y-73782648D01*
X173731649Y-75634721D01*
X173702579Y-75658578D01*
X173678722Y-75687648D01*
X173678721Y-75687649D01*
X173607355Y-75774608D01*
X173536599Y-75906985D01*
X173493027Y-76050622D01*
X173478314Y-76200000D01*
X173482001Y-76237433D01*
X173482000Y-80040663D01*
X173470812Y-80046643D01*
X173259919Y-80219719D01*
X173086843Y-80430612D01*
X172958236Y-80671219D01*
X172879040Y-80932293D01*
X172852299Y-81203800D01*
X172879040Y-81475307D01*
X172958236Y-81736381D01*
X173053710Y-81915000D01*
X172273631Y-81915000D01*
X171577000Y-81218370D01*
X171577000Y-80623342D01*
X171580686Y-80585919D01*
X171573587Y-80513839D01*
X171565974Y-80436541D01*
X171522402Y-80292904D01*
X171451646Y-80160528D01*
X171451645Y-80160526D01*
X171380279Y-80073567D01*
X171356422Y-80044497D01*
X171327353Y-80020641D01*
X170423365Y-79116654D01*
X170399503Y-79087578D01*
X170283473Y-78992355D01*
X170151096Y-78921598D01*
X170060391Y-78894083D01*
X169980256Y-78744161D01*
X169782187Y-78502813D01*
X169606950Y-78359000D01*
X169782187Y-78215187D01*
X169980256Y-77973839D01*
X170127434Y-77698488D01*
X170218066Y-77399714D01*
X170248669Y-77089000D01*
X170218066Y-76778286D01*
X170127434Y-76479512D01*
X169980256Y-76204161D01*
X169874617Y-76075440D01*
X169960494Y-76029537D01*
X170057185Y-75950185D01*
X170136537Y-75853494D01*
X170195502Y-75743180D01*
X170231812Y-75623482D01*
X170244072Y-75499000D01*
X170244072Y-73599000D01*
X170231812Y-73474518D01*
X170195502Y-73354820D01*
X170136537Y-73244506D01*
X170057185Y-73147815D01*
X169960494Y-73068463D01*
X169850180Y-73009498D01*
X169730482Y-72973188D01*
X169606000Y-72960928D01*
X167706000Y-72960928D01*
X167581518Y-72973188D01*
X167461820Y-73009498D01*
X167351506Y-73068463D01*
X167254815Y-73147815D01*
X167175463Y-73244506D01*
X167116498Y-73354820D01*
X167080188Y-73474518D01*
X167067928Y-73599000D01*
X167067928Y-75499000D01*
X167080188Y-75623482D01*
X167116498Y-75743180D01*
X167175463Y-75853494D01*
X167254815Y-75950185D01*
X167351506Y-76029537D01*
X167437383Y-76075440D01*
X167331744Y-76204161D01*
X167184566Y-76479512D01*
X167093934Y-76778286D01*
X167063331Y-77089000D01*
X165810000Y-77089000D01*
X165810000Y-65805098D01*
X166652000Y-65805098D01*
X166652000Y-66274902D01*
X166743654Y-66735679D01*
X166923440Y-67169721D01*
X167184450Y-67560349D01*
X167516651Y-67892550D01*
X167907279Y-68153560D01*
X168341321Y-68333346D01*
X168802098Y-68425000D01*
X169271902Y-68425000D01*
X169732679Y-68333346D01*
X170166721Y-68153560D01*
X170557349Y-67892550D01*
X170889550Y-67560349D01*
X171150560Y-67169721D01*
X171330346Y-66735679D01*
X171422000Y-66274902D01*
X171422000Y-65805098D01*
X171330346Y-65344321D01*
X171150560Y-64910279D01*
X170889550Y-64519651D01*
X170557349Y-64187450D01*
X170166721Y-63926440D01*
X169732679Y-63746654D01*
X169271902Y-63655000D01*
X168802098Y-63655000D01*
X168341321Y-63746654D01*
X167907279Y-63926440D01*
X167516651Y-64187450D01*
X167184450Y-64519651D01*
X166923440Y-64910279D01*
X166743654Y-65344321D01*
X166652000Y-65805098D01*
X165810000Y-65805098D01*
X165810000Y-62813000D01*
X201474000Y-62813000D01*
X201474001Y-113590000D01*
X201474001Y-113590000D01*
G37*
X201474001Y-113590000D02*
X192870954Y-113590000D01*
X193103034Y-113519599D01*
X193361014Y-113381706D01*
X193587134Y-113196134D01*
X193772706Y-112970014D01*
X193910599Y-112712034D01*
X193995513Y-112432111D01*
X194024185Y-112141000D01*
X193995513Y-111849889D01*
X193910599Y-111569966D01*
X193772706Y-111311986D01*
X193587134Y-111085866D01*
X193361014Y-110900294D01*
X193103034Y-110762401D01*
X192823111Y-110677487D01*
X192604950Y-110656000D01*
X192459050Y-110656000D01*
X192240889Y-110677487D01*
X191960966Y-110762401D01*
X191702986Y-110900294D01*
X191476866Y-111085866D01*
X191291294Y-111311986D01*
X191262000Y-111366791D01*
X191232706Y-111311986D01*
X191047134Y-111085866D01*
X190821014Y-110900294D01*
X190563034Y-110762401D01*
X190283111Y-110677487D01*
X190064950Y-110656000D01*
X189919050Y-110656000D01*
X189700889Y-110677487D01*
X189420966Y-110762401D01*
X189162986Y-110900294D01*
X188936866Y-111085866D01*
X188751294Y-111311986D01*
X188722000Y-111366791D01*
X188692706Y-111311986D01*
X188507134Y-111085866D01*
X188281014Y-110900294D01*
X188023034Y-110762401D01*
X187743111Y-110677487D01*
X187524950Y-110656000D01*
X187379050Y-110656000D01*
X187160889Y-110677487D01*
X186880966Y-110762401D01*
X186622986Y-110900294D01*
X186396866Y-111085866D01*
X186211294Y-111311986D01*
X186182000Y-111366791D01*
X186152706Y-111311986D01*
X185967134Y-111085866D01*
X185741014Y-110900294D01*
X185483034Y-110762401D01*
X185203111Y-110677487D01*
X184984950Y-110656000D01*
X184839050Y-110656000D01*
X184620889Y-110677487D01*
X184340966Y-110762401D01*
X184082986Y-110900294D01*
X183856866Y-111085866D01*
X183671294Y-111311986D01*
X183642000Y-111366791D01*
X183612706Y-111311986D01*
X183427134Y-111085866D01*
X183201014Y-110900294D01*
X182943034Y-110762401D01*
X182663111Y-110677487D01*
X182444950Y-110656000D01*
X182299050Y-110656000D01*
X182080889Y-110677487D01*
X181800966Y-110762401D01*
X181542986Y-110900294D01*
X181316866Y-111085866D01*
X181131294Y-111311986D01*
X181102000Y-111366791D01*
X181072706Y-111311986D01*
X180887134Y-111085866D01*
X180661014Y-110900294D01*
X180403034Y-110762401D01*
X180123111Y-110677487D01*
X179904950Y-110656000D01*
X179759050Y-110656000D01*
X179540889Y-110677487D01*
X179260966Y-110762401D01*
X179002986Y-110900294D01*
X178776866Y-111085866D01*
X178591294Y-111311986D01*
X178562000Y-111366791D01*
X178532706Y-111311986D01*
X178347134Y-111085866D01*
X178121014Y-110900294D01*
X177863034Y-110762401D01*
X177583111Y-110677487D01*
X177364950Y-110656000D01*
X177219050Y-110656000D01*
X177000889Y-110677487D01*
X176720966Y-110762401D01*
X176462986Y-110900294D01*
X176236866Y-111085866D01*
X176212393Y-111115687D01*
X176191502Y-111046820D01*
X176132537Y-110936506D01*
X176053185Y-110839815D01*
X175956494Y-110760463D01*
X175846180Y-110701498D01*
X175726482Y-110665188D01*
X175602000Y-110652928D01*
X175037750Y-110656000D01*
X174879000Y-110814750D01*
X174879000Y-112014000D01*
X174899000Y-112014000D01*
X174899000Y-112268000D01*
X174879000Y-112268000D01*
X174879000Y-112288000D01*
X174625000Y-112288000D01*
X174625000Y-112268000D01*
X173425750Y-112268000D01*
X173267000Y-112426750D01*
X173263928Y-112991000D01*
X173276188Y-113115482D01*
X173312498Y-113235180D01*
X173371463Y-113345494D01*
X173450815Y-113442185D01*
X173547506Y-113521537D01*
X173657820Y-113580502D01*
X173689131Y-113590000D01*
X165810000Y-113590000D01*
X165810000Y-110128098D01*
X166652000Y-110128098D01*
X166652000Y-110597902D01*
X166743654Y-111058679D01*
X166923440Y-111492721D01*
X167184450Y-111883349D01*
X167516651Y-112215550D01*
X167907279Y-112476560D01*
X168341321Y-112656346D01*
X168802098Y-112748000D01*
X169271902Y-112748000D01*
X169732679Y-112656346D01*
X170166721Y-112476560D01*
X170557349Y-112215550D01*
X170889550Y-111883349D01*
X171150560Y-111492721D01*
X171234115Y-111291000D01*
X173263928Y-111291000D01*
X173267000Y-111855250D01*
X173425750Y-112014000D01*
X174625000Y-112014000D01*
X174625000Y-110814750D01*
X174466250Y-110656000D01*
X173902000Y-110652928D01*
X173777518Y-110665188D01*
X173657820Y-110701498D01*
X173547506Y-110760463D01*
X173450815Y-110839815D01*
X173371463Y-110936506D01*
X173312498Y-111046820D01*
X173276188Y-111166518D01*
X173263928Y-111291000D01*
X171234115Y-111291000D01*
X171330346Y-111058679D01*
X171422000Y-110597902D01*
X171422000Y-110128098D01*
X195862000Y-110128098D01*
X195862000Y-110597902D01*
X195953654Y-111058679D01*
X196133440Y-111492721D01*
X196394450Y-111883349D01*
X196726651Y-112215550D01*
X197117279Y-112476560D01*
X197551321Y-112656346D01*
X198012098Y-112748000D01*
X198481902Y-112748000D01*
X198942679Y-112656346D01*
X199376721Y-112476560D01*
X199767349Y-112215550D01*
X200099550Y-111883349D01*
X200360560Y-111492721D01*
X200540346Y-111058679D01*
X200632000Y-110597902D01*
X200632000Y-110128098D01*
X200540346Y-109667321D01*
X200360560Y-109233279D01*
X200099550Y-108842651D01*
X199767349Y-108510450D01*
X199376721Y-108249440D01*
X198942679Y-108069654D01*
X198481902Y-107978000D01*
X198012098Y-107978000D01*
X197551321Y-108069654D01*
X197117279Y-108249440D01*
X196726651Y-108510450D01*
X196394450Y-108842651D01*
X196133440Y-109233279D01*
X195953654Y-109667321D01*
X195862000Y-110128098D01*
X171422000Y-110128098D01*
X171330346Y-109667321D01*
X171150560Y-109233279D01*
X170889550Y-108842651D01*
X170557349Y-108510450D01*
X170166721Y-108249440D01*
X169732679Y-108069654D01*
X169271902Y-107978000D01*
X168802098Y-107978000D01*
X168341321Y-108069654D01*
X167907279Y-108249440D01*
X167516651Y-108510450D01*
X167184450Y-108842651D01*
X166923440Y-109233279D01*
X166743654Y-109667321D01*
X166652000Y-110128098D01*
X165810000Y-110128098D01*
X165810000Y-77089000D01*
X167063331Y-77089000D01*
X167093934Y-77399714D01*
X167184566Y-77698488D01*
X167331744Y-77973839D01*
X167529813Y-78215187D01*
X167705050Y-78359000D01*
X167529813Y-78502813D01*
X167331744Y-78744161D01*
X167184566Y-79019512D01*
X167093934Y-79318286D01*
X167063331Y-79629000D01*
X167093934Y-79939714D01*
X167184566Y-80238488D01*
X167331744Y-80513839D01*
X167529813Y-80755187D01*
X167705050Y-80899000D01*
X167529813Y-81042813D01*
X167331744Y-81284161D01*
X167184566Y-81559512D01*
X167093934Y-81858286D01*
X167063331Y-82169000D01*
X167093934Y-82479714D01*
X167184566Y-82778488D01*
X167331744Y-83053839D01*
X167529813Y-83295187D01*
X167705050Y-83439000D01*
X167529813Y-83582813D01*
X167331744Y-83824161D01*
X167184566Y-84099512D01*
X167093934Y-84398286D01*
X167063331Y-84709000D01*
X167093934Y-85019714D01*
X167184566Y-85318488D01*
X167331744Y-85593839D01*
X167529813Y-85835187D01*
X167771161Y-86033256D01*
X168046512Y-86180434D01*
X168345286Y-86271066D01*
X168578136Y-86294000D01*
X168733864Y-86294000D01*
X168966714Y-86271066D01*
X169265488Y-86180434D01*
X169540839Y-86033256D01*
X169782187Y-85835187D01*
X169980256Y-85593839D01*
X170127434Y-85318488D01*
X170218066Y-85019714D01*
X170248669Y-84709000D01*
X170218066Y-84398286D01*
X170127434Y-84099512D01*
X169980256Y-83824161D01*
X169782187Y-83582813D01*
X169606950Y-83439000D01*
X169782187Y-83295187D01*
X169980256Y-83053839D01*
X170127434Y-82778488D01*
X170218066Y-82479714D01*
X170248669Y-82169000D01*
X170234798Y-82028167D01*
X170273579Y-82075422D01*
X170302649Y-82099279D01*
X171392720Y-83189351D01*
X171416578Y-83218422D01*
X171532608Y-83313645D01*
X171664985Y-83384402D01*
X171808622Y-83427974D01*
X171920574Y-83439000D01*
X171920576Y-83439000D01*
X171957999Y-83442686D01*
X171995422Y-83439000D01*
X175213603Y-83439000D01*
X175174610Y-83471001D01*
X175099578Y-83532578D01*
X175075721Y-83561649D01*
X174112654Y-84524716D01*
X174083578Y-84548578D01*
X174028721Y-84615422D01*
X173988355Y-84664608D01*
X173963748Y-84710645D01*
X173917598Y-84796986D01*
X173874026Y-84940623D01*
X173863403Y-85048482D01*
X173859314Y-85090000D01*
X173863000Y-85127423D01*
X173863001Y-93053567D01*
X173859314Y-93091000D01*
X173874027Y-93240378D01*
X173917599Y-93384015D01*
X173988355Y-93516392D01*
X174056172Y-93599026D01*
X174083579Y-93632422D01*
X174112649Y-93656279D01*
X177019000Y-96562631D01*
X177019000Y-96621939D01*
X177049247Y-96774000D01*
X175448631Y-96774000D01*
X174936284Y-96261653D01*
X174912422Y-96232578D01*
X174796392Y-96137355D01*
X174664015Y-96066598D01*
X174520378Y-96023026D01*
X174408426Y-96012000D01*
X174408423Y-96012000D01*
X174371000Y-96008314D01*
X174333577Y-96012000D01*
X170045915Y-96012000D01*
X169980256Y-95889161D01*
X169782187Y-95647813D01*
X169606950Y-95504000D01*
X169782187Y-95360187D01*
X169980256Y-95118839D01*
X170127434Y-94843488D01*
X170218066Y-94544714D01*
X170248669Y-94234000D01*
X170218066Y-93923286D01*
X170127434Y-93624512D01*
X169980256Y-93349161D01*
X169874617Y-93220440D01*
X169960494Y-93174537D01*
X170057185Y-93095185D01*
X170136537Y-92998494D01*
X170195502Y-92888180D01*
X170231812Y-92768482D01*
X170244072Y-92644000D01*
X170244072Y-90744000D01*
X170231812Y-90619518D01*
X170195502Y-90499820D01*
X170136537Y-90389506D01*
X170057185Y-90292815D01*
X169960494Y-90213463D01*
X169850180Y-90154498D01*
X169730482Y-90118188D01*
X169606000Y-90105928D01*
X167706000Y-90105928D01*
X167581518Y-90118188D01*
X167461820Y-90154498D01*
X167351506Y-90213463D01*
X167254815Y-90292815D01*
X167175463Y-90389506D01*
X167116498Y-90499820D01*
X167080188Y-90619518D01*
X167067928Y-90744000D01*
X167067928Y-92644000D01*
X167080188Y-92768482D01*
X167116498Y-92888180D01*
X167175463Y-92998494D01*
X167254815Y-93095185D01*
X167351506Y-93174537D01*
X167437383Y-93220440D01*
X167331744Y-93349161D01*
X167184566Y-93624512D01*
X167093934Y-93923286D01*
X167063331Y-94234000D01*
X167093934Y-94544714D01*
X167184566Y-94843488D01*
X167331744Y-95118839D01*
X167529813Y-95360187D01*
X167705050Y-95504000D01*
X167529813Y-95647813D01*
X167331744Y-95889161D01*
X167184566Y-96164512D01*
X167093934Y-96463286D01*
X167063331Y-96774000D01*
X167093934Y-97084714D01*
X167184566Y-97383488D01*
X167331744Y-97658839D01*
X167529813Y-97900187D01*
X167705050Y-98044000D01*
X167529813Y-98187813D01*
X167331744Y-98429161D01*
X167184566Y-98704512D01*
X167093934Y-99003286D01*
X167063331Y-99314000D01*
X167093934Y-99624714D01*
X167184566Y-99923488D01*
X167331744Y-100198839D01*
X167529813Y-100440187D01*
X167705050Y-100584000D01*
X167529813Y-100727813D01*
X167331744Y-100969161D01*
X167184566Y-101244512D01*
X167093934Y-101543286D01*
X167063331Y-101854000D01*
X167093934Y-102164714D01*
X167184566Y-102463488D01*
X167331744Y-102738839D01*
X167529813Y-102980187D01*
X167771161Y-103178256D01*
X168046512Y-103325434D01*
X168345286Y-103416066D01*
X168578136Y-103439000D01*
X168733864Y-103439000D01*
X168966714Y-103416066D01*
X169265488Y-103325434D01*
X169540839Y-103178256D01*
X169782187Y-102980187D01*
X169980256Y-102738839D01*
X170127434Y-102463488D01*
X170218066Y-102164714D01*
X170248669Y-101854000D01*
X170218066Y-101543286D01*
X170189678Y-101449702D01*
X175923903Y-101449702D01*
X175995486Y-101693671D01*
X176250996Y-101814571D01*
X176525184Y-101883300D01*
X176807512Y-101897217D01*
X177087130Y-101855787D01*
X177353292Y-101760603D01*
X177478514Y-101693671D01*
X177550097Y-101449702D01*
X176737000Y-100636605D01*
X175923903Y-101449702D01*
X170189678Y-101449702D01*
X170127434Y-101244512D01*
X169980256Y-100969161D01*
X169782187Y-100727813D01*
X169606950Y-100584000D01*
X169782187Y-100440187D01*
X169980256Y-100198839D01*
X170045915Y-100076000D01*
X174460577Y-100076000D01*
X174498000Y-100079686D01*
X174535423Y-100076000D01*
X174535426Y-100076000D01*
X174647378Y-100064974D01*
X174791015Y-100021402D01*
X174923392Y-99950645D01*
X175039422Y-99855422D01*
X175063284Y-99826346D01*
X175448630Y-99441000D01*
X175714653Y-99441000D01*
X175628023Y-99527630D01*
X175744296Y-99643903D01*
X175500329Y-99715486D01*
X175379429Y-99970996D01*
X175310700Y-100245184D01*
X175296783Y-100527512D01*
X175338213Y-100807130D01*
X175433397Y-101073292D01*
X175500329Y-101198514D01*
X175744298Y-101270097D01*
X176557395Y-100457000D01*
X176543253Y-100442858D01*
X176722858Y-100263253D01*
X176737000Y-100277395D01*
X176751143Y-100263253D01*
X176930748Y-100442858D01*
X176916605Y-100457000D01*
X177729702Y-101270097D01*
X177973671Y-101198514D01*
X178094571Y-100943004D01*
X178163300Y-100668816D01*
X178177217Y-100386488D01*
X178135787Y-100106870D01*
X178040603Y-99840708D01*
X177973671Y-99715486D01*
X177729704Y-99643903D01*
X177845977Y-99527630D01*
X177759347Y-99441000D01*
X180723604Y-99441000D01*
X180622363Y-99542241D01*
X180465320Y-99777273D01*
X180357147Y-100038426D01*
X180302000Y-100315665D01*
X180302000Y-100598335D01*
X180357147Y-100875574D01*
X180465320Y-101136727D01*
X180622363Y-101371759D01*
X180822241Y-101571637D01*
X181057273Y-101728680D01*
X181318426Y-101836853D01*
X181595665Y-101892000D01*
X181878335Y-101892000D01*
X182155574Y-101836853D01*
X182416727Y-101728680D01*
X182651759Y-101571637D01*
X182851637Y-101371759D01*
X183008680Y-101136727D01*
X183116853Y-100875574D01*
X183172000Y-100598335D01*
X183172000Y-100315665D01*
X183116853Y-100038426D01*
X183008680Y-99777273D01*
X182851637Y-99542241D01*
X182750396Y-99441000D01*
X183321289Y-99441000D01*
X183363226Y-99482937D01*
X183532744Y-99596205D01*
X183721102Y-99674226D01*
X183769000Y-99683753D01*
X183769001Y-101002426D01*
X183771000Y-101022724D01*
X183771001Y-101943668D01*
X183767324Y-101981000D01*
X183771001Y-102018333D01*
X183781998Y-102129986D01*
X183795180Y-102173442D01*
X183825454Y-102273246D01*
X183896026Y-102405276D01*
X183943800Y-102463488D01*
X183991000Y-102521001D01*
X184019998Y-102544799D01*
X185503203Y-104028005D01*
X185480487Y-104102889D01*
X185451815Y-104394000D01*
X185480487Y-104685111D01*
X185565401Y-104965034D01*
X185703294Y-105223014D01*
X185888866Y-105449134D01*
X186114986Y-105634706D01*
X186372966Y-105772599D01*
X186652889Y-105857513D01*
X186871050Y-105879000D01*
X187016950Y-105879000D01*
X187235111Y-105857513D01*
X187515034Y-105772599D01*
X187773014Y-105634706D01*
X187999134Y-105449134D01*
X188184706Y-105223014D01*
X188322599Y-104965034D01*
X188407513Y-104685111D01*
X188436185Y-104394000D01*
X188407513Y-104102889D01*
X188322599Y-103822966D01*
X188184706Y-103564986D01*
X187999134Y-103338866D01*
X187773014Y-103153294D01*
X187718209Y-103124000D01*
X187773014Y-103094706D01*
X187999134Y-102909134D01*
X188184706Y-102683014D01*
X188322599Y-102425034D01*
X188407513Y-102145111D01*
X188436185Y-101854000D01*
X191039815Y-101854000D01*
X191068487Y-102145111D01*
X191153401Y-102425034D01*
X191291294Y-102683014D01*
X191476866Y-102909134D01*
X191506687Y-102933607D01*
X191437820Y-102954498D01*
X191327506Y-103013463D01*
X191230815Y-103092815D01*
X191151463Y-103189506D01*
X191092498Y-103299820D01*
X191056188Y-103419518D01*
X191043928Y-103544000D01*
X191043928Y-105244000D01*
X191056188Y-105368482D01*
X191092498Y-105488180D01*
X191151463Y-105598494D01*
X191230815Y-105695185D01*
X191327506Y-105774537D01*
X191437820Y-105833502D01*
X191557518Y-105869812D01*
X191682000Y-105882072D01*
X193382000Y-105882072D01*
X193506482Y-105869812D01*
X193626180Y-105833502D01*
X193736494Y-105774537D01*
X193833185Y-105695185D01*
X193912537Y-105598494D01*
X193971502Y-105488180D01*
X194007812Y-105368482D01*
X194020072Y-105244000D01*
X194020072Y-103544000D01*
X194007812Y-103419518D01*
X193971502Y-103299820D01*
X193912537Y-103189506D01*
X193833185Y-103092815D01*
X193736494Y-103013463D01*
X193626180Y-102954498D01*
X193557313Y-102933607D01*
X193587134Y-102909134D01*
X193772706Y-102683014D01*
X193910599Y-102425034D01*
X193995513Y-102145111D01*
X194024185Y-101854000D01*
X193995513Y-101562889D01*
X193910599Y-101282966D01*
X193772706Y-101024986D01*
X193587134Y-100798866D01*
X193361014Y-100613294D01*
X193103034Y-100475401D01*
X192823111Y-100390487D01*
X192604950Y-100369000D01*
X192459050Y-100369000D01*
X192240889Y-100390487D01*
X191960966Y-100475401D01*
X191702986Y-100613294D01*
X191476866Y-100798866D01*
X191291294Y-101024986D01*
X191153401Y-101282966D01*
X191068487Y-101562889D01*
X191039815Y-101854000D01*
X188436185Y-101854000D01*
X188407513Y-101562889D01*
X188322599Y-101282966D01*
X188184706Y-101024986D01*
X187999134Y-100798866D01*
X187773014Y-100613294D01*
X187718209Y-100584000D01*
X187773014Y-100554706D01*
X187999134Y-100369134D01*
X188184706Y-100143014D01*
X188322599Y-99885034D01*
X188407513Y-99605111D01*
X188436185Y-99314000D01*
X188407513Y-99022889D01*
X188322599Y-98742966D01*
X188233922Y-98577061D01*
X189719000Y-98577061D01*
X189719000Y-98780939D01*
X189758774Y-98980898D01*
X189836795Y-99169256D01*
X189950063Y-99338774D01*
X190094226Y-99482937D01*
X190263744Y-99596205D01*
X190452102Y-99674226D01*
X190652061Y-99714000D01*
X190855939Y-99714000D01*
X190964545Y-99692397D01*
X190970667Y-99693000D01*
X190970676Y-99693000D01*
X191007999Y-99696676D01*
X191045322Y-99693000D01*
X197035289Y-99693000D01*
X197079226Y-99736937D01*
X197248744Y-99850205D01*
X197437102Y-99928226D01*
X197637061Y-99968000D01*
X197840939Y-99968000D01*
X198040898Y-99928226D01*
X198229256Y-99850205D01*
X198398774Y-99736937D01*
X198542937Y-99592774D01*
X198656205Y-99423256D01*
X198734226Y-99234898D01*
X198774000Y-99034939D01*
X198774000Y-98831061D01*
X198734226Y-98631102D01*
X198656205Y-98442744D01*
X198542937Y-98273226D01*
X198398774Y-98129063D01*
X198229256Y-98015795D01*
X198040898Y-97937774D01*
X197840939Y-97898000D01*
X197637061Y-97898000D01*
X197437102Y-97937774D01*
X197248744Y-98015795D01*
X197079226Y-98129063D01*
X197035289Y-98173000D01*
X191660685Y-98173000D01*
X191557937Y-98019226D01*
X191413774Y-97875063D01*
X191244256Y-97761795D01*
X191055898Y-97683774D01*
X190855939Y-97644000D01*
X190652061Y-97644000D01*
X190452102Y-97683774D01*
X190263744Y-97761795D01*
X190094226Y-97875063D01*
X189950063Y-98019226D01*
X189836795Y-98188744D01*
X189758774Y-98377102D01*
X189719000Y-98577061D01*
X188233922Y-98577061D01*
X188184706Y-98484986D01*
X187999134Y-98258866D01*
X187969313Y-98234393D01*
X188038180Y-98213502D01*
X188148494Y-98154537D01*
X188245185Y-98075185D01*
X188324537Y-97978494D01*
X188383502Y-97868180D01*
X188419812Y-97748482D01*
X188432072Y-97624000D01*
X188432072Y-95924000D01*
X188419812Y-95799518D01*
X188383502Y-95679820D01*
X188324537Y-95569506D01*
X188245185Y-95472815D01*
X188148494Y-95393463D01*
X188038180Y-95334498D01*
X187918482Y-95298188D01*
X187794000Y-95285928D01*
X186094000Y-95285928D01*
X185969518Y-95298188D01*
X185849820Y-95334498D01*
X185739506Y-95393463D01*
X185642815Y-95472815D01*
X185563463Y-95569506D01*
X185504498Y-95679820D01*
X185468188Y-95799518D01*
X185455928Y-95924000D01*
X185455928Y-97513127D01*
X184967804Y-97025003D01*
X184944001Y-96995999D01*
X184828276Y-96901026D01*
X184696247Y-96830454D01*
X184552986Y-96786997D01*
X184441333Y-96776000D01*
X184441322Y-96776000D01*
X184404000Y-96772324D01*
X184366678Y-96776000D01*
X183826733Y-96776000D01*
X183806426Y-96774000D01*
X179058753Y-96774000D01*
X179089000Y-96621939D01*
X179089000Y-96418061D01*
X179049226Y-96218102D01*
X178971205Y-96029744D01*
X178874490Y-95885000D01*
X184747577Y-95885000D01*
X184785000Y-95888686D01*
X184822423Y-95885000D01*
X184822426Y-95885000D01*
X184934378Y-95873974D01*
X185078015Y-95830402D01*
X185210392Y-95759645D01*
X185326422Y-95664422D01*
X185350284Y-95635346D01*
X189145631Y-91840000D01*
X189204939Y-91840000D01*
X189404898Y-91800226D01*
X189593256Y-91722205D01*
X189762774Y-91608937D01*
X189906937Y-91464774D01*
X190020205Y-91295256D01*
X190098226Y-91106898D01*
X190138000Y-90906939D01*
X190138000Y-90703061D01*
X190098226Y-90503102D01*
X190020205Y-90314744D01*
X189906937Y-90145226D01*
X189762774Y-90001063D01*
X189593256Y-89887795D01*
X189404898Y-89809774D01*
X189204939Y-89770000D01*
X189001061Y-89770000D01*
X188801102Y-89809774D01*
X188612744Y-89887795D01*
X188443226Y-90001063D01*
X188299063Y-90145226D01*
X188185795Y-90314744D01*
X188107774Y-90503102D01*
X188068000Y-90703061D01*
X188068000Y-90762369D01*
X184469370Y-94361000D01*
X178755711Y-94361000D01*
X178713774Y-94319063D01*
X178544256Y-94205795D01*
X178355898Y-94127774D01*
X178155939Y-94088000D01*
X177952061Y-94088000D01*
X177752102Y-94127774D01*
X177563744Y-94205795D01*
X177394226Y-94319063D01*
X177250063Y-94463226D01*
X177179885Y-94568255D01*
X175387000Y-92775370D01*
X175387000Y-91371802D01*
X175570773Y-91555575D01*
X175607578Y-91600422D01*
X175723608Y-91695645D01*
X175855985Y-91766402D01*
X175999622Y-91809974D01*
X176111574Y-91821000D01*
X176131982Y-91821000D01*
X176148999Y-91822676D01*
X176166016Y-91821000D01*
X179384289Y-91821000D01*
X179426226Y-91862937D01*
X179595744Y-91976205D01*
X179784102Y-92054226D01*
X179984061Y-92094000D01*
X180187939Y-92094000D01*
X180387898Y-92054226D01*
X180576256Y-91976205D01*
X180745774Y-91862937D01*
X180889937Y-91718774D01*
X181003205Y-91549256D01*
X181081226Y-91360898D01*
X181121000Y-91160939D01*
X181121000Y-90957061D01*
X181081226Y-90757102D01*
X181003205Y-90568744D01*
X180889937Y-90399226D01*
X180745774Y-90255063D01*
X180576256Y-90141795D01*
X180387898Y-90063774D01*
X180187939Y-90024000D01*
X179984061Y-90024000D01*
X179784102Y-90063774D01*
X179595744Y-90141795D01*
X179426226Y-90255063D01*
X179384289Y-90297000D01*
X176461802Y-90297000D01*
X176401000Y-90236199D01*
X176401000Y-89981611D01*
X176444518Y-89994812D01*
X176569000Y-90007072D01*
X178269000Y-90007072D01*
X178393482Y-89994812D01*
X178513180Y-89958502D01*
X178623494Y-89899537D01*
X178720185Y-89820185D01*
X178799537Y-89723494D01*
X178858502Y-89613180D01*
X178879393Y-89544313D01*
X178903866Y-89574134D01*
X179129986Y-89759706D01*
X179387966Y-89897599D01*
X179667889Y-89982513D01*
X179886050Y-90004000D01*
X180031950Y-90004000D01*
X180250111Y-89982513D01*
X180530034Y-89897599D01*
X180788014Y-89759706D01*
X181014134Y-89574134D01*
X181199706Y-89348014D01*
X181337599Y-89090034D01*
X181422513Y-88810111D01*
X181451185Y-88519000D01*
X181423678Y-88239716D01*
X182262333Y-87401061D01*
X188576000Y-87401061D01*
X188576000Y-87604939D01*
X188615774Y-87804898D01*
X188693795Y-87993256D01*
X188807063Y-88162774D01*
X188951226Y-88306937D01*
X189120744Y-88420205D01*
X189309102Y-88498226D01*
X189448576Y-88525969D01*
X191225801Y-90303195D01*
X191225800Y-94577690D01*
X191139518Y-94586188D01*
X191019820Y-94622498D01*
X190909506Y-94681463D01*
X190812815Y-94760815D01*
X190733463Y-94857506D01*
X190674498Y-94967820D01*
X190638188Y-95087518D01*
X190625928Y-95212000D01*
X190625928Y-96812000D01*
X190638188Y-96936482D01*
X190674498Y-97056180D01*
X190733463Y-97166494D01*
X190812815Y-97263185D01*
X190909506Y-97342537D01*
X191019820Y-97401502D01*
X191139518Y-97437812D01*
X191264000Y-97450072D01*
X192864000Y-97450072D01*
X192988482Y-97437812D01*
X193108180Y-97401502D01*
X193218494Y-97342537D01*
X193315185Y-97263185D01*
X193394537Y-97166494D01*
X193453502Y-97056180D01*
X193469117Y-97004702D01*
X193750903Y-97004702D01*
X193822486Y-97248671D01*
X194077996Y-97369571D01*
X194352184Y-97438300D01*
X194634512Y-97452217D01*
X194914130Y-97410787D01*
X195180292Y-97315603D01*
X195305514Y-97248671D01*
X195377097Y-97004702D01*
X194564000Y-96191605D01*
X193750903Y-97004702D01*
X193469117Y-97004702D01*
X193489812Y-96936482D01*
X193502072Y-96812000D01*
X193502072Y-96804785D01*
X193571298Y-96825097D01*
X194384395Y-96012000D01*
X194743605Y-96012000D01*
X195556702Y-96825097D01*
X195800671Y-96753514D01*
X195921571Y-96498004D01*
X195990300Y-96223816D01*
X196004217Y-95941488D01*
X195962787Y-95661870D01*
X195867603Y-95395708D01*
X195800671Y-95270486D01*
X195556702Y-95198903D01*
X194743605Y-96012000D01*
X194384395Y-96012000D01*
X193571298Y-95198903D01*
X193502072Y-95219215D01*
X193502072Y-95212000D01*
X193489812Y-95087518D01*
X193469118Y-95019298D01*
X193750903Y-95019298D01*
X194564000Y-95832395D01*
X195377097Y-95019298D01*
X195305514Y-94775329D01*
X195050004Y-94654429D01*
X194775816Y-94585700D01*
X194493488Y-94571783D01*
X194213870Y-94613213D01*
X193947708Y-94708397D01*
X193822486Y-94775329D01*
X193750903Y-95019298D01*
X193469118Y-95019298D01*
X193453502Y-94967820D01*
X193394537Y-94857506D01*
X193315185Y-94760815D01*
X193218494Y-94681463D01*
X193108180Y-94622498D01*
X192988482Y-94586188D01*
X192902200Y-94577690D01*
X192902200Y-89997163D01*
X192906254Y-89956000D01*
X192902200Y-89914837D01*
X192902200Y-89914830D01*
X192890071Y-89791684D01*
X192842142Y-89633683D01*
X192764309Y-89488068D01*
X192659564Y-89360436D01*
X192627588Y-89334194D01*
X190633969Y-87340576D01*
X190606226Y-87201102D01*
X190528205Y-87012744D01*
X190414937Y-86843226D01*
X190270774Y-86699063D01*
X190101256Y-86585795D01*
X189912898Y-86507774D01*
X189712939Y-86468000D01*
X189509061Y-86468000D01*
X189309102Y-86507774D01*
X189120744Y-86585795D01*
X188951226Y-86699063D01*
X188807063Y-86843226D01*
X188693795Y-87012744D01*
X188615774Y-87201102D01*
X188576000Y-87401061D01*
X182262333Y-87401061D01*
X182465194Y-87198200D01*
X187791837Y-87198200D01*
X187833000Y-87202254D01*
X187874163Y-87198200D01*
X187874170Y-87198200D01*
X187997316Y-87186071D01*
X188155317Y-87138142D01*
X188300932Y-87060309D01*
X188428564Y-86955564D01*
X188454811Y-86923582D01*
X189539589Y-85838805D01*
X189571564Y-85812564D01*
X189617164Y-85757001D01*
X189676309Y-85684932D01*
X189729722Y-85585003D01*
X189754142Y-85539317D01*
X189801041Y-85384713D01*
X189932014Y-85314706D01*
X190158134Y-85129134D01*
X190343706Y-84903014D01*
X190481599Y-84645034D01*
X190566513Y-84365111D01*
X190595185Y-84074000D01*
X190566513Y-83782889D01*
X190481599Y-83502966D01*
X190343706Y-83244986D01*
X190158134Y-83018866D01*
X189932014Y-82833294D01*
X189674034Y-82695401D01*
X189394111Y-82610487D01*
X189175950Y-82589000D01*
X189030050Y-82589000D01*
X188811889Y-82610487D01*
X188531966Y-82695401D01*
X188273986Y-82833294D01*
X188047866Y-83018866D01*
X188023393Y-83048687D01*
X188002502Y-82979820D01*
X187943537Y-82869506D01*
X187864185Y-82772815D01*
X187767494Y-82693463D01*
X187657180Y-82634498D01*
X187537482Y-82598188D01*
X187413000Y-82585928D01*
X185713000Y-82585928D01*
X185588518Y-82598188D01*
X185468820Y-82634498D01*
X185358506Y-82693463D01*
X185261815Y-82772815D01*
X185182463Y-82869506D01*
X185123498Y-82979820D01*
X185087188Y-83099518D01*
X185074928Y-83224000D01*
X185074928Y-84924000D01*
X185087188Y-85048482D01*
X185123498Y-85168180D01*
X185182463Y-85278494D01*
X185261815Y-85375185D01*
X185358506Y-85454537D01*
X185468820Y-85513502D01*
X185496175Y-85521800D01*
X182634002Y-85521800D01*
X182756004Y-85399798D01*
X182785001Y-85376001D01*
X182879974Y-85260276D01*
X182950546Y-85128247D01*
X182994003Y-84984986D01*
X183005000Y-84873333D01*
X183005000Y-84873324D01*
X183008676Y-84836001D01*
X183005000Y-84798678D01*
X183005000Y-80176486D01*
X183007026Y-80180276D01*
X183046871Y-80228826D01*
X183101999Y-80296001D01*
X183131003Y-80319804D01*
X184475200Y-81664002D01*
X184498999Y-81693001D01*
X184614724Y-81787974D01*
X184746753Y-81858546D01*
X184890014Y-81902003D01*
X185001667Y-81913000D01*
X185001676Y-81913000D01*
X185038999Y-81916676D01*
X185076322Y-81913000D01*
X191074199Y-81913000D01*
X192407001Y-83245803D01*
X192407000Y-85179677D01*
X192403324Y-85217000D01*
X192407000Y-85254322D01*
X192407000Y-85254332D01*
X192417997Y-85365985D01*
X192450361Y-85472677D01*
X192461454Y-85509246D01*
X192532026Y-85641276D01*
X192547139Y-85659691D01*
X192626999Y-85757001D01*
X192656003Y-85780804D01*
X197233001Y-90357803D01*
X197233000Y-92641289D01*
X197189063Y-92685226D01*
X197075795Y-92854744D01*
X196997774Y-93043102D01*
X196958000Y-93243061D01*
X196958000Y-93446939D01*
X196997774Y-93646898D01*
X197075795Y-93835256D01*
X197189063Y-94004774D01*
X197333226Y-94148937D01*
X197502744Y-94262205D01*
X197691102Y-94340226D01*
X197891061Y-94380000D01*
X198094939Y-94380000D01*
X198294898Y-94340226D01*
X198483256Y-94262205D01*
X198652774Y-94148937D01*
X198796937Y-94004774D01*
X198910205Y-93835256D01*
X198988226Y-93646898D01*
X199028000Y-93446939D01*
X199028000Y-93243061D01*
X198988226Y-93043102D01*
X198910205Y-92854744D01*
X198796937Y-92685226D01*
X198753000Y-92641289D01*
X198753000Y-90080325D01*
X198756676Y-90043000D01*
X198753000Y-90005675D01*
X198753000Y-90005667D01*
X198742003Y-89894014D01*
X198698546Y-89750753D01*
X198627974Y-89618724D01*
X198533001Y-89502999D01*
X198504003Y-89479201D01*
X193927000Y-84902199D01*
X193927000Y-83224000D01*
X194345928Y-83224000D01*
X194345928Y-84924000D01*
X194358188Y-85048482D01*
X194394498Y-85168180D01*
X194453463Y-85278494D01*
X194532815Y-85375185D01*
X194629506Y-85454537D01*
X194739820Y-85513502D01*
X194859518Y-85549812D01*
X194984000Y-85562072D01*
X196684000Y-85562072D01*
X196808482Y-85549812D01*
X196928180Y-85513502D01*
X197038494Y-85454537D01*
X197135185Y-85375185D01*
X197214537Y-85278494D01*
X197273502Y-85168180D01*
X197294393Y-85099313D01*
X197318866Y-85129134D01*
X197544986Y-85314706D01*
X197802966Y-85452599D01*
X198082889Y-85537513D01*
X198301050Y-85559000D01*
X198446950Y-85559000D01*
X198665111Y-85537513D01*
X198945034Y-85452599D01*
X199203014Y-85314706D01*
X199429134Y-85129134D01*
X199614706Y-84903014D01*
X199752599Y-84645034D01*
X199837513Y-84365111D01*
X199866185Y-84074000D01*
X199837513Y-83782889D01*
X199752599Y-83502966D01*
X199614706Y-83244986D01*
X199429134Y-83018866D01*
X199203014Y-82833294D01*
X198945034Y-82695401D01*
X198665111Y-82610487D01*
X198446950Y-82589000D01*
X198301050Y-82589000D01*
X198082889Y-82610487D01*
X197802966Y-82695401D01*
X197544986Y-82833294D01*
X197318866Y-83018866D01*
X197294393Y-83048687D01*
X197273502Y-82979820D01*
X197214537Y-82869506D01*
X197135185Y-82772815D01*
X197038494Y-82693463D01*
X196928180Y-82634498D01*
X196808482Y-82598188D01*
X196684000Y-82585928D01*
X194984000Y-82585928D01*
X194859518Y-82598188D01*
X194739820Y-82634498D01*
X194629506Y-82693463D01*
X194532815Y-82772815D01*
X194453463Y-82869506D01*
X194394498Y-82979820D01*
X194358188Y-83099518D01*
X194345928Y-83224000D01*
X193927000Y-83224000D01*
X193927000Y-82968325D01*
X193930676Y-82931000D01*
X193927000Y-82893675D01*
X193927000Y-82893667D01*
X193916003Y-82782014D01*
X193872546Y-82638753D01*
X193801974Y-82506724D01*
X193707001Y-82390999D01*
X193678003Y-82367201D01*
X191952804Y-80642003D01*
X191929001Y-80612999D01*
X191813276Y-80518026D01*
X191681247Y-80447454D01*
X191537986Y-80403997D01*
X191426333Y-80393000D01*
X191426322Y-80393000D01*
X191389000Y-80389324D01*
X191351678Y-80393000D01*
X185353802Y-80393000D01*
X184402000Y-79441199D01*
X184402000Y-74311000D01*
X184670928Y-74311000D01*
X184670928Y-76311000D01*
X184683188Y-76435482D01*
X184719498Y-76555180D01*
X184778463Y-76665494D01*
X184857815Y-76762185D01*
X184954506Y-76841537D01*
X185064820Y-76900502D01*
X185184518Y-76936812D01*
X185309000Y-76949072D01*
X187309000Y-76949072D01*
X187433482Y-76936812D01*
X187553180Y-76900502D01*
X187663494Y-76841537D01*
X187760185Y-76762185D01*
X187839537Y-76665494D01*
X187898502Y-76555180D01*
X187931496Y-76446413D01*
X190353192Y-76446413D01*
X190448956Y-76710814D01*
X190738571Y-76851704D01*
X191050108Y-76933384D01*
X191371595Y-76952718D01*
X191690675Y-76908961D01*
X191995088Y-76803795D01*
X192007800Y-76797000D01*
X194649928Y-76797000D01*
X194649928Y-78397000D01*
X194662188Y-78521482D01*
X194698498Y-78641180D01*
X194757463Y-78751494D01*
X194836815Y-78848185D01*
X194933506Y-78927537D01*
X195043820Y-78986502D01*
X195163518Y-79022812D01*
X195288000Y-79035072D01*
X196888000Y-79035072D01*
X197012482Y-79022812D01*
X197132180Y-78986502D01*
X197242494Y-78927537D01*
X197339185Y-78848185D01*
X197418537Y-78751494D01*
X197477502Y-78641180D01*
X197493117Y-78589702D01*
X197774903Y-78589702D01*
X197846486Y-78833671D01*
X198101996Y-78954571D01*
X198376184Y-79023300D01*
X198658512Y-79037217D01*
X198938130Y-78995787D01*
X199204292Y-78900603D01*
X199329514Y-78833671D01*
X199401097Y-78589702D01*
X198588000Y-77776605D01*
X197774903Y-78589702D01*
X197493117Y-78589702D01*
X197513812Y-78521482D01*
X197526072Y-78397000D01*
X197526072Y-78389785D01*
X197595298Y-78410097D01*
X198408395Y-77597000D01*
X198767605Y-77597000D01*
X199580702Y-78410097D01*
X199824671Y-78338514D01*
X199945571Y-78083004D01*
X200014300Y-77808816D01*
X200028217Y-77526488D01*
X199986787Y-77246870D01*
X199891603Y-76980708D01*
X199824671Y-76855486D01*
X199580702Y-76783903D01*
X198767605Y-77597000D01*
X198408395Y-77597000D01*
X197595298Y-76783903D01*
X197526072Y-76804215D01*
X197526072Y-76797000D01*
X197513812Y-76672518D01*
X197493118Y-76604298D01*
X197774903Y-76604298D01*
X198588000Y-77417395D01*
X199401097Y-76604298D01*
X199329514Y-76360329D01*
X199074004Y-76239429D01*
X198799816Y-76170700D01*
X198517488Y-76156783D01*
X198237870Y-76198213D01*
X197971708Y-76293397D01*
X197846486Y-76360329D01*
X197774903Y-76604298D01*
X197493118Y-76604298D01*
X197477502Y-76552820D01*
X197418537Y-76442506D01*
X197339185Y-76345815D01*
X197242494Y-76266463D01*
X197132180Y-76207498D01*
X197012482Y-76171188D01*
X196888000Y-76158928D01*
X195288000Y-76158928D01*
X195163518Y-76171188D01*
X195043820Y-76207498D01*
X194933506Y-76266463D01*
X194836815Y-76345815D01*
X194757463Y-76442506D01*
X194698498Y-76552820D01*
X194662188Y-76672518D01*
X194649928Y-76797000D01*
X192007800Y-76797000D01*
X192169044Y-76710814D01*
X192264808Y-76446413D01*
X191309000Y-75490605D01*
X190353192Y-76446413D01*
X187931496Y-76446413D01*
X187934812Y-76435482D01*
X187947072Y-76311000D01*
X187947072Y-75373595D01*
X189667282Y-75373595D01*
X189711039Y-75692675D01*
X189816205Y-75997088D01*
X189909186Y-76171044D01*
X190173587Y-76266808D01*
X191129395Y-75311000D01*
X191488605Y-75311000D01*
X192444413Y-76266808D01*
X192708814Y-76171044D01*
X192849704Y-75881429D01*
X192931384Y-75569892D01*
X192950718Y-75248405D01*
X192906961Y-74929325D01*
X192801795Y-74624912D01*
X192708814Y-74450956D01*
X192444413Y-74355192D01*
X191488605Y-75311000D01*
X191129395Y-75311000D01*
X190173587Y-74355192D01*
X189909186Y-74450956D01*
X189768296Y-74740571D01*
X189686616Y-75052108D01*
X189667282Y-75373595D01*
X187947072Y-75373595D01*
X187947072Y-74311000D01*
X187934812Y-74186518D01*
X187931497Y-74175587D01*
X190353192Y-74175587D01*
X191309000Y-75131395D01*
X192264808Y-74175587D01*
X192169044Y-73911186D01*
X191879429Y-73770296D01*
X191567892Y-73688616D01*
X191246405Y-73669282D01*
X190927325Y-73713039D01*
X190622912Y-73818205D01*
X190448956Y-73911186D01*
X190353192Y-74175587D01*
X187931497Y-74175587D01*
X187898502Y-74066820D01*
X187839537Y-73956506D01*
X187760185Y-73859815D01*
X187663494Y-73780463D01*
X187553180Y-73721498D01*
X187433482Y-73685188D01*
X187309000Y-73672928D01*
X185309000Y-73672928D01*
X185184518Y-73685188D01*
X185064820Y-73721498D01*
X184954506Y-73780463D01*
X184857815Y-73859815D01*
X184778463Y-73956506D01*
X184719498Y-74066820D01*
X184683188Y-74186518D01*
X184670928Y-74311000D01*
X184402000Y-74311000D01*
X184402000Y-67049984D01*
X184526839Y-66983256D01*
X184768187Y-66785187D01*
X184912000Y-66609950D01*
X185055813Y-66785187D01*
X185297161Y-66983256D01*
X185572512Y-67130434D01*
X185871286Y-67221066D01*
X186104136Y-67244000D01*
X186259864Y-67244000D01*
X186492714Y-67221066D01*
X186791488Y-67130434D01*
X187066839Y-66983256D01*
X187308187Y-66785187D01*
X187452000Y-66609950D01*
X187595813Y-66785187D01*
X187837161Y-66983256D01*
X188112512Y-67130434D01*
X188411286Y-67221066D01*
X188644136Y-67244000D01*
X188799864Y-67244000D01*
X189032714Y-67221066D01*
X189331488Y-67130434D01*
X189606839Y-66983256D01*
X189848187Y-66785187D01*
X190046256Y-66543839D01*
X190193434Y-66268488D01*
X190284066Y-65969714D01*
X190300279Y-65805098D01*
X195862000Y-65805098D01*
X195862000Y-66274902D01*
X195953654Y-66735679D01*
X196133440Y-67169721D01*
X196394450Y-67560349D01*
X196726651Y-67892550D01*
X197117279Y-68153560D01*
X197551321Y-68333346D01*
X198012098Y-68425000D01*
X198481902Y-68425000D01*
X198942679Y-68333346D01*
X199376721Y-68153560D01*
X199767349Y-67892550D01*
X200099550Y-67560349D01*
X200360560Y-67169721D01*
X200540346Y-66735679D01*
X200632000Y-66274902D01*
X200632000Y-65805098D01*
X200540346Y-65344321D01*
X200360560Y-64910279D01*
X200099550Y-64519651D01*
X199767349Y-64187450D01*
X199376721Y-63926440D01*
X198942679Y-63746654D01*
X198481902Y-63655000D01*
X198012098Y-63655000D01*
X197551321Y-63746654D01*
X197117279Y-63926440D01*
X196726651Y-64187450D01*
X196394450Y-64519651D01*
X196133440Y-64910279D01*
X195953654Y-65344321D01*
X195862000Y-65805098D01*
X190300279Y-65805098D01*
X190314669Y-65659000D01*
X190284066Y-65348286D01*
X190193434Y-65049512D01*
X190046256Y-64774161D01*
X189848187Y-64532813D01*
X189606839Y-64334744D01*
X189331488Y-64187566D01*
X189032714Y-64096934D01*
X188799864Y-64074000D01*
X188644136Y-64074000D01*
X188411286Y-64096934D01*
X188112512Y-64187566D01*
X187837161Y-64334744D01*
X187595813Y-64532813D01*
X187452000Y-64708050D01*
X187308187Y-64532813D01*
X187066839Y-64334744D01*
X186791488Y-64187566D01*
X186492714Y-64096934D01*
X186259864Y-64074000D01*
X186104136Y-64074000D01*
X185871286Y-64096934D01*
X185572512Y-64187566D01*
X185297161Y-64334744D01*
X185055813Y-64532813D01*
X184912000Y-64708050D01*
X184768187Y-64532813D01*
X184526839Y-64334744D01*
X184251488Y-64187566D01*
X183952714Y-64096934D01*
X183719864Y-64074000D01*
X183564136Y-64074000D01*
X183331286Y-64096934D01*
X183032512Y-64187566D01*
X182757161Y-64334744D01*
X182515813Y-64532813D01*
X182372000Y-64708050D01*
X182228187Y-64532813D01*
X181986839Y-64334744D01*
X181711488Y-64187566D01*
X181412714Y-64096934D01*
X181179864Y-64074000D01*
X181024136Y-64074000D01*
X180791286Y-64096934D01*
X180492512Y-64187566D01*
X180217161Y-64334744D01*
X180088440Y-64440383D01*
X180042537Y-64354506D01*
X179963185Y-64257815D01*
X179866494Y-64178463D01*
X179756180Y-64119498D01*
X179636482Y-64083188D01*
X179512000Y-64070928D01*
X177612000Y-64070928D01*
X177487518Y-64083188D01*
X177367820Y-64119498D01*
X177257506Y-64178463D01*
X177160815Y-64257815D01*
X177081463Y-64354506D01*
X177022498Y-64464820D01*
X176986188Y-64584518D01*
X176973928Y-64709000D01*
X176973928Y-66609000D01*
X176986188Y-66733482D01*
X177022498Y-66853180D01*
X177081463Y-66963494D01*
X177134310Y-67027888D01*
X177026241Y-67135958D01*
X176852037Y-67118800D01*
X176715963Y-67118800D01*
X176512493Y-67138840D01*
X176251419Y-67218036D01*
X176010812Y-67346643D01*
X175799919Y-67519719D01*
X175629473Y-67727408D01*
X175619812Y-67629318D01*
X175583502Y-67509620D01*
X175524537Y-67399306D01*
X175445185Y-67302615D01*
X175348494Y-67223263D01*
X175238180Y-67164298D01*
X175118482Y-67127988D01*
X174994000Y-67115728D01*
X173494000Y-67115728D01*
X173369518Y-67127988D01*
X173249820Y-67164298D01*
X173139506Y-67223263D01*
X173042815Y-67302615D01*
X172963463Y-67399306D01*
X172904498Y-67509620D01*
X172868188Y-67629318D01*
X172855928Y-67753800D01*
X172855928Y-69253800D01*
X172868188Y-69378282D01*
X172904498Y-69497980D01*
X172963463Y-69608294D01*
X173042815Y-69704985D01*
X173139506Y-69784337D01*
X173249820Y-69843302D01*
X173369518Y-69879612D01*
X173494000Y-69891872D01*
X174994000Y-69891872D01*
X175118482Y-69879612D01*
X175238180Y-69843302D01*
X175348494Y-69784337D01*
X175445185Y-69704985D01*
X175524537Y-69608294D01*
X175583502Y-69497980D01*
X175619812Y-69378282D01*
X175629473Y-69280192D01*
X175799919Y-69487881D01*
X176010812Y-69660957D01*
X176251419Y-69789564D01*
X176512493Y-69868760D01*
X176715963Y-69888800D01*
X176852037Y-69888800D01*
X177055507Y-69868760D01*
X177316581Y-69789564D01*
X177557188Y-69660957D01*
X177768081Y-69487881D01*
X177941157Y-69276988D01*
X178069764Y-69036381D01*
X178148960Y-68775307D01*
X178175701Y-68503800D01*
X178148960Y-68232293D01*
X178132796Y-68179006D01*
X179064730Y-67247072D01*
X179512000Y-67247072D01*
X179636482Y-67234812D01*
X179756180Y-67198502D01*
X179866494Y-67139537D01*
X179963185Y-67060185D01*
X180042537Y-66963494D01*
X180088440Y-66877617D01*
X180217161Y-66983256D01*
X180492512Y-67130434D01*
X180791286Y-67221066D01*
X181024136Y-67244000D01*
X181179864Y-67244000D01*
X181412714Y-67221066D01*
X181711488Y-67130434D01*
X181986839Y-66983256D01*
X182228187Y-66785187D01*
X182372000Y-66609950D01*
X182515813Y-66785187D01*
X182757161Y-66983256D01*
X182882001Y-67049984D01*
X182882000Y-77303515D01*
X182879974Y-77299724D01*
X182785001Y-77183999D01*
X182756003Y-77160201D01*
X181919803Y-76324002D01*
X181896001Y-76294999D01*
X181780276Y-76200026D01*
X181648247Y-76129454D01*
X181504986Y-76085997D01*
X181393333Y-76075000D01*
X181393322Y-76075000D01*
X181356000Y-76071324D01*
X181318678Y-76075000D01*
X181236595Y-76075000D01*
X181199706Y-76005986D01*
X181014134Y-75779866D01*
X180788014Y-75594294D01*
X180733209Y-75565000D01*
X180788014Y-75535706D01*
X181014134Y-75350134D01*
X181199706Y-75124014D01*
X181337599Y-74866034D01*
X181422513Y-74586111D01*
X181451185Y-74295000D01*
X181422513Y-74003889D01*
X181337599Y-73723966D01*
X181199706Y-73465986D01*
X181014134Y-73239866D01*
X180788014Y-73054294D01*
X180530034Y-72916401D01*
X180250111Y-72831487D01*
X180031950Y-72810000D01*
X179886050Y-72810000D01*
X179667889Y-72831487D01*
X179387966Y-72916401D01*
X179129986Y-73054294D01*
X178903866Y-73239866D01*
X178718294Y-73465986D01*
X178682474Y-73533000D01*
X176186423Y-73533000D01*
X176149000Y-73529314D01*
X176111577Y-73533000D01*
X176111574Y-73533000D01*
X175999622Y-73544026D01*
X175855985Y-73587598D01*
X175794364Y-73620535D01*
X175723607Y-73658355D01*
X175656975Y-73713039D01*
X175607578Y-73753578D01*
X175583721Y-73782648D01*
X173731649Y-75634721D01*
X173702579Y-75658578D01*
X173678722Y-75687648D01*
X173678721Y-75687649D01*
X173607355Y-75774608D01*
X173536599Y-75906985D01*
X173493027Y-76050622D01*
X173478314Y-76200000D01*
X173482001Y-76237433D01*
X173482000Y-80040663D01*
X173470812Y-80046643D01*
X173259919Y-80219719D01*
X173086843Y-80430612D01*
X172958236Y-80671219D01*
X172879040Y-80932293D01*
X172852299Y-81203800D01*
X172879040Y-81475307D01*
X172958236Y-81736381D01*
X173053710Y-81915000D01*
X172273631Y-81915000D01*
X171577000Y-81218370D01*
X171577000Y-80623342D01*
X171580686Y-80585919D01*
X171573587Y-80513839D01*
X171565974Y-80436541D01*
X171522402Y-80292904D01*
X171451646Y-80160528D01*
X171451645Y-80160526D01*
X171380279Y-80073567D01*
X171356422Y-80044497D01*
X171327353Y-80020641D01*
X170423365Y-79116654D01*
X170399503Y-79087578D01*
X170283473Y-78992355D01*
X170151096Y-78921598D01*
X170060391Y-78894083D01*
X169980256Y-78744161D01*
X169782187Y-78502813D01*
X169606950Y-78359000D01*
X169782187Y-78215187D01*
X169980256Y-77973839D01*
X170127434Y-77698488D01*
X170218066Y-77399714D01*
X170248669Y-77089000D01*
X170218066Y-76778286D01*
X170127434Y-76479512D01*
X169980256Y-76204161D01*
X169874617Y-76075440D01*
X169960494Y-76029537D01*
X170057185Y-75950185D01*
X170136537Y-75853494D01*
X170195502Y-75743180D01*
X170231812Y-75623482D01*
X170244072Y-75499000D01*
X170244072Y-73599000D01*
X170231812Y-73474518D01*
X170195502Y-73354820D01*
X170136537Y-73244506D01*
X170057185Y-73147815D01*
X169960494Y-73068463D01*
X169850180Y-73009498D01*
X169730482Y-72973188D01*
X169606000Y-72960928D01*
X167706000Y-72960928D01*
X167581518Y-72973188D01*
X167461820Y-73009498D01*
X167351506Y-73068463D01*
X167254815Y-73147815D01*
X167175463Y-73244506D01*
X167116498Y-73354820D01*
X167080188Y-73474518D01*
X167067928Y-73599000D01*
X167067928Y-75499000D01*
X167080188Y-75623482D01*
X167116498Y-75743180D01*
X167175463Y-75853494D01*
X167254815Y-75950185D01*
X167351506Y-76029537D01*
X167437383Y-76075440D01*
X167331744Y-76204161D01*
X167184566Y-76479512D01*
X167093934Y-76778286D01*
X167063331Y-77089000D01*
X165810000Y-77089000D01*
X165810000Y-65805098D01*
X166652000Y-65805098D01*
X166652000Y-66274902D01*
X166743654Y-66735679D01*
X166923440Y-67169721D01*
X167184450Y-67560349D01*
X167516651Y-67892550D01*
X167907279Y-68153560D01*
X168341321Y-68333346D01*
X168802098Y-68425000D01*
X169271902Y-68425000D01*
X169732679Y-68333346D01*
X170166721Y-68153560D01*
X170557349Y-67892550D01*
X170889550Y-67560349D01*
X171150560Y-67169721D01*
X171330346Y-66735679D01*
X171422000Y-66274902D01*
X171422000Y-65805098D01*
X171330346Y-65344321D01*
X171150560Y-64910279D01*
X170889550Y-64519651D01*
X170557349Y-64187450D01*
X170166721Y-63926440D01*
X169732679Y-63746654D01*
X169271902Y-63655000D01*
X168802098Y-63655000D01*
X168341321Y-63746654D01*
X167907279Y-63926440D01*
X167516651Y-64187450D01*
X167184450Y-64519651D01*
X166923440Y-64910279D01*
X166743654Y-65344321D01*
X166652000Y-65805098D01*
X165810000Y-65805098D01*
X165810000Y-62813000D01*
X201474000Y-62813000D01*
X201474001Y-113590000D01*
M02*
