G04 #@! TF.GenerationSoftware,KiCad,Pcbnew,(5.1.2-1)-1*
G04 #@! TF.CreationDate,2019-06-23T15:45:02-04:00*
G04 #@! TF.ProjectId,GR_555_DEV1.0,47525f35-3535-45f4-9445-56312e302e6b,rev?*
G04 #@! TF.SameCoordinates,Original*
G04 #@! TF.FileFunction,Soldermask,Bot*
G04 #@! TF.FilePolarity,Negative*
%FSLAX46Y46*%
G04 Gerber Fmt 4.6, Leading zero omitted, Abs format (unit mm)*
G04 Created by KiCad (PCBNEW (5.1.2-1)-1) date 2019-06-23 15:45:02*
%MOMM*%
%LPD*%
G04 APERTURE LIST*
%ADD10C,0.100000*%
G04 APERTURE END LIST*
D10*
G36*
X192698633Y-111303300D02*
G01*
X192826810Y-111342182D01*
X192858855Y-111351903D01*
X192898319Y-111372997D01*
X193006518Y-111430830D01*
X193135948Y-111537052D01*
X193242170Y-111666482D01*
X193272012Y-111722314D01*
X193321097Y-111814145D01*
X193321097Y-111814146D01*
X193369700Y-111974367D01*
X193386112Y-112141000D01*
X193369700Y-112307633D01*
X193330818Y-112435810D01*
X193321097Y-112467855D01*
X193300003Y-112507319D01*
X193242170Y-112615518D01*
X193135948Y-112744948D01*
X193006518Y-112851170D01*
X192898319Y-112909003D01*
X192858855Y-112930097D01*
X192826810Y-112939818D01*
X192698633Y-112978700D01*
X192573753Y-112991000D01*
X192490247Y-112991000D01*
X192365367Y-112978700D01*
X192237190Y-112939818D01*
X192205145Y-112930097D01*
X192165681Y-112909003D01*
X192057482Y-112851170D01*
X191928052Y-112744948D01*
X191821830Y-112615518D01*
X191763997Y-112507319D01*
X191742903Y-112467855D01*
X191733182Y-112435810D01*
X191694300Y-112307633D01*
X191677888Y-112141000D01*
X191694300Y-111974367D01*
X191742903Y-111814146D01*
X191742903Y-111814145D01*
X191791988Y-111722314D01*
X191821830Y-111666482D01*
X191928052Y-111537052D01*
X192057482Y-111430830D01*
X192165681Y-111372997D01*
X192205145Y-111351903D01*
X192237190Y-111342182D01*
X192365367Y-111303300D01*
X192490247Y-111291000D01*
X192573753Y-111291000D01*
X192698633Y-111303300D01*
X192698633Y-111303300D01*
G37*
G36*
X190158633Y-111303300D02*
G01*
X190286810Y-111342182D01*
X190318855Y-111351903D01*
X190358319Y-111372997D01*
X190466518Y-111430830D01*
X190595948Y-111537052D01*
X190702170Y-111666482D01*
X190732012Y-111722314D01*
X190781097Y-111814145D01*
X190781097Y-111814146D01*
X190829700Y-111974367D01*
X190846112Y-112141000D01*
X190829700Y-112307633D01*
X190790818Y-112435810D01*
X190781097Y-112467855D01*
X190760003Y-112507319D01*
X190702170Y-112615518D01*
X190595948Y-112744948D01*
X190466518Y-112851170D01*
X190358319Y-112909003D01*
X190318855Y-112930097D01*
X190286810Y-112939818D01*
X190158633Y-112978700D01*
X190033753Y-112991000D01*
X189950247Y-112991000D01*
X189825367Y-112978700D01*
X189697190Y-112939818D01*
X189665145Y-112930097D01*
X189625681Y-112909003D01*
X189517482Y-112851170D01*
X189388052Y-112744948D01*
X189281830Y-112615518D01*
X189223997Y-112507319D01*
X189202903Y-112467855D01*
X189193182Y-112435810D01*
X189154300Y-112307633D01*
X189137888Y-112141000D01*
X189154300Y-111974367D01*
X189202903Y-111814146D01*
X189202903Y-111814145D01*
X189251988Y-111722314D01*
X189281830Y-111666482D01*
X189388052Y-111537052D01*
X189517482Y-111430830D01*
X189625681Y-111372997D01*
X189665145Y-111351903D01*
X189697190Y-111342182D01*
X189825367Y-111303300D01*
X189950247Y-111291000D01*
X190033753Y-111291000D01*
X190158633Y-111303300D01*
X190158633Y-111303300D01*
G37*
G36*
X187618633Y-111303300D02*
G01*
X187746810Y-111342182D01*
X187778855Y-111351903D01*
X187818319Y-111372997D01*
X187926518Y-111430830D01*
X188055948Y-111537052D01*
X188162170Y-111666482D01*
X188192012Y-111722314D01*
X188241097Y-111814145D01*
X188241097Y-111814146D01*
X188289700Y-111974367D01*
X188306112Y-112141000D01*
X188289700Y-112307633D01*
X188250818Y-112435810D01*
X188241097Y-112467855D01*
X188220003Y-112507319D01*
X188162170Y-112615518D01*
X188055948Y-112744948D01*
X187926518Y-112851170D01*
X187818319Y-112909003D01*
X187778855Y-112930097D01*
X187746810Y-112939818D01*
X187618633Y-112978700D01*
X187493753Y-112991000D01*
X187410247Y-112991000D01*
X187285367Y-112978700D01*
X187157190Y-112939818D01*
X187125145Y-112930097D01*
X187085681Y-112909003D01*
X186977482Y-112851170D01*
X186848052Y-112744948D01*
X186741830Y-112615518D01*
X186683997Y-112507319D01*
X186662903Y-112467855D01*
X186653182Y-112435810D01*
X186614300Y-112307633D01*
X186597888Y-112141000D01*
X186614300Y-111974367D01*
X186662903Y-111814146D01*
X186662903Y-111814145D01*
X186711988Y-111722314D01*
X186741830Y-111666482D01*
X186848052Y-111537052D01*
X186977482Y-111430830D01*
X187085681Y-111372997D01*
X187125145Y-111351903D01*
X187157190Y-111342182D01*
X187285367Y-111303300D01*
X187410247Y-111291000D01*
X187493753Y-111291000D01*
X187618633Y-111303300D01*
X187618633Y-111303300D01*
G37*
G36*
X185078633Y-111303300D02*
G01*
X185206810Y-111342182D01*
X185238855Y-111351903D01*
X185278319Y-111372997D01*
X185386518Y-111430830D01*
X185515948Y-111537052D01*
X185622170Y-111666482D01*
X185652012Y-111722314D01*
X185701097Y-111814145D01*
X185701097Y-111814146D01*
X185749700Y-111974367D01*
X185766112Y-112141000D01*
X185749700Y-112307633D01*
X185710818Y-112435810D01*
X185701097Y-112467855D01*
X185680003Y-112507319D01*
X185622170Y-112615518D01*
X185515948Y-112744948D01*
X185386518Y-112851170D01*
X185278319Y-112909003D01*
X185238855Y-112930097D01*
X185206810Y-112939818D01*
X185078633Y-112978700D01*
X184953753Y-112991000D01*
X184870247Y-112991000D01*
X184745367Y-112978700D01*
X184617190Y-112939818D01*
X184585145Y-112930097D01*
X184545681Y-112909003D01*
X184437482Y-112851170D01*
X184308052Y-112744948D01*
X184201830Y-112615518D01*
X184143997Y-112507319D01*
X184122903Y-112467855D01*
X184113182Y-112435810D01*
X184074300Y-112307633D01*
X184057888Y-112141000D01*
X184074300Y-111974367D01*
X184122903Y-111814146D01*
X184122903Y-111814145D01*
X184171988Y-111722314D01*
X184201830Y-111666482D01*
X184308052Y-111537052D01*
X184437482Y-111430830D01*
X184545681Y-111372997D01*
X184585145Y-111351903D01*
X184617190Y-111342182D01*
X184745367Y-111303300D01*
X184870247Y-111291000D01*
X184953753Y-111291000D01*
X185078633Y-111303300D01*
X185078633Y-111303300D01*
G37*
G36*
X182538633Y-111303300D02*
G01*
X182666810Y-111342182D01*
X182698855Y-111351903D01*
X182738319Y-111372997D01*
X182846518Y-111430830D01*
X182975948Y-111537052D01*
X183082170Y-111666482D01*
X183112012Y-111722314D01*
X183161097Y-111814145D01*
X183161097Y-111814146D01*
X183209700Y-111974367D01*
X183226112Y-112141000D01*
X183209700Y-112307633D01*
X183170818Y-112435810D01*
X183161097Y-112467855D01*
X183140003Y-112507319D01*
X183082170Y-112615518D01*
X182975948Y-112744948D01*
X182846518Y-112851170D01*
X182738319Y-112909003D01*
X182698855Y-112930097D01*
X182666810Y-112939818D01*
X182538633Y-112978700D01*
X182413753Y-112991000D01*
X182330247Y-112991000D01*
X182205367Y-112978700D01*
X182077190Y-112939818D01*
X182045145Y-112930097D01*
X182005681Y-112909003D01*
X181897482Y-112851170D01*
X181768052Y-112744948D01*
X181661830Y-112615518D01*
X181603997Y-112507319D01*
X181582903Y-112467855D01*
X181573182Y-112435810D01*
X181534300Y-112307633D01*
X181517888Y-112141000D01*
X181534300Y-111974367D01*
X181582903Y-111814146D01*
X181582903Y-111814145D01*
X181631988Y-111722314D01*
X181661830Y-111666482D01*
X181768052Y-111537052D01*
X181897482Y-111430830D01*
X182005681Y-111372997D01*
X182045145Y-111351903D01*
X182077190Y-111342182D01*
X182205367Y-111303300D01*
X182330247Y-111291000D01*
X182413753Y-111291000D01*
X182538633Y-111303300D01*
X182538633Y-111303300D01*
G37*
G36*
X179998633Y-111303300D02*
G01*
X180126810Y-111342182D01*
X180158855Y-111351903D01*
X180198319Y-111372997D01*
X180306518Y-111430830D01*
X180435948Y-111537052D01*
X180542170Y-111666482D01*
X180572012Y-111722314D01*
X180621097Y-111814145D01*
X180621097Y-111814146D01*
X180669700Y-111974367D01*
X180686112Y-112141000D01*
X180669700Y-112307633D01*
X180630818Y-112435810D01*
X180621097Y-112467855D01*
X180600003Y-112507319D01*
X180542170Y-112615518D01*
X180435948Y-112744948D01*
X180306518Y-112851170D01*
X180198319Y-112909003D01*
X180158855Y-112930097D01*
X180126810Y-112939818D01*
X179998633Y-112978700D01*
X179873753Y-112991000D01*
X179790247Y-112991000D01*
X179665367Y-112978700D01*
X179537190Y-112939818D01*
X179505145Y-112930097D01*
X179465681Y-112909003D01*
X179357482Y-112851170D01*
X179228052Y-112744948D01*
X179121830Y-112615518D01*
X179063997Y-112507319D01*
X179042903Y-112467855D01*
X179033182Y-112435810D01*
X178994300Y-112307633D01*
X178977888Y-112141000D01*
X178994300Y-111974367D01*
X179042903Y-111814146D01*
X179042903Y-111814145D01*
X179091988Y-111722314D01*
X179121830Y-111666482D01*
X179228052Y-111537052D01*
X179357482Y-111430830D01*
X179465681Y-111372997D01*
X179505145Y-111351903D01*
X179537190Y-111342182D01*
X179665367Y-111303300D01*
X179790247Y-111291000D01*
X179873753Y-111291000D01*
X179998633Y-111303300D01*
X179998633Y-111303300D01*
G37*
G36*
X177458633Y-111303300D02*
G01*
X177586810Y-111342182D01*
X177618855Y-111351903D01*
X177658319Y-111372997D01*
X177766518Y-111430830D01*
X177895948Y-111537052D01*
X178002170Y-111666482D01*
X178032012Y-111722314D01*
X178081097Y-111814145D01*
X178081097Y-111814146D01*
X178129700Y-111974367D01*
X178146112Y-112141000D01*
X178129700Y-112307633D01*
X178090818Y-112435810D01*
X178081097Y-112467855D01*
X178060003Y-112507319D01*
X178002170Y-112615518D01*
X177895948Y-112744948D01*
X177766518Y-112851170D01*
X177658319Y-112909003D01*
X177618855Y-112930097D01*
X177586810Y-112939818D01*
X177458633Y-112978700D01*
X177333753Y-112991000D01*
X177250247Y-112991000D01*
X177125367Y-112978700D01*
X176997190Y-112939818D01*
X176965145Y-112930097D01*
X176925681Y-112909003D01*
X176817482Y-112851170D01*
X176688052Y-112744948D01*
X176581830Y-112615518D01*
X176523997Y-112507319D01*
X176502903Y-112467855D01*
X176493182Y-112435810D01*
X176454300Y-112307633D01*
X176437888Y-112141000D01*
X176454300Y-111974367D01*
X176502903Y-111814146D01*
X176502903Y-111814145D01*
X176551988Y-111722314D01*
X176581830Y-111666482D01*
X176688052Y-111537052D01*
X176817482Y-111430830D01*
X176925681Y-111372997D01*
X176965145Y-111351903D01*
X176997190Y-111342182D01*
X177125367Y-111303300D01*
X177250247Y-111291000D01*
X177333753Y-111291000D01*
X177458633Y-111303300D01*
X177458633Y-111303300D01*
G37*
G36*
X175602000Y-112991000D02*
G01*
X173902000Y-112991000D01*
X173902000Y-111291000D01*
X175602000Y-111291000D01*
X175602000Y-112991000D01*
X175602000Y-112991000D01*
G37*
G36*
X198757456Y-108680251D02*
G01*
X199075937Y-108812170D01*
X199362561Y-109003687D01*
X199606313Y-109247439D01*
X199797830Y-109534063D01*
X199929749Y-109852544D01*
X199997000Y-110190641D01*
X199997000Y-110535359D01*
X199929749Y-110873456D01*
X199797830Y-111191937D01*
X199606313Y-111478561D01*
X199362561Y-111722313D01*
X199075937Y-111913830D01*
X198757456Y-112045749D01*
X198419360Y-112113000D01*
X198074640Y-112113000D01*
X197736544Y-112045749D01*
X197418063Y-111913830D01*
X197131439Y-111722313D01*
X196887687Y-111478561D01*
X196696170Y-111191937D01*
X196564251Y-110873456D01*
X196497000Y-110535359D01*
X196497000Y-110190641D01*
X196564251Y-109852544D01*
X196696170Y-109534063D01*
X196887687Y-109247439D01*
X197131439Y-109003687D01*
X197418063Y-108812170D01*
X197736544Y-108680251D01*
X198074640Y-108613000D01*
X198419360Y-108613000D01*
X198757456Y-108680251D01*
X198757456Y-108680251D01*
G37*
G36*
X169547456Y-108680251D02*
G01*
X169865937Y-108812170D01*
X170152561Y-109003687D01*
X170396313Y-109247439D01*
X170587830Y-109534063D01*
X170719749Y-109852544D01*
X170787000Y-110190641D01*
X170787000Y-110535359D01*
X170719749Y-110873456D01*
X170587830Y-111191937D01*
X170396313Y-111478561D01*
X170152561Y-111722313D01*
X169865937Y-111913830D01*
X169547456Y-112045749D01*
X169209360Y-112113000D01*
X168864640Y-112113000D01*
X168526544Y-112045749D01*
X168208063Y-111913830D01*
X167921439Y-111722313D01*
X167677687Y-111478561D01*
X167486170Y-111191937D01*
X167354251Y-110873456D01*
X167287000Y-110535359D01*
X167287000Y-110190641D01*
X167354251Y-109852544D01*
X167486170Y-109534063D01*
X167677687Y-109247439D01*
X167921439Y-109003687D01*
X168208063Y-108812170D01*
X168526544Y-108680251D01*
X168864640Y-108613000D01*
X169209360Y-108613000D01*
X169547456Y-108680251D01*
X169547456Y-108680251D01*
G37*
G36*
X187110633Y-103556300D02*
G01*
X187238810Y-103595182D01*
X187270855Y-103604903D01*
X187310319Y-103625997D01*
X187418518Y-103683830D01*
X187547948Y-103790052D01*
X187654170Y-103919482D01*
X187712003Y-104027682D01*
X187733097Y-104067145D01*
X187733097Y-104067146D01*
X187781700Y-104227367D01*
X187798112Y-104394000D01*
X187781700Y-104560633D01*
X187742818Y-104688810D01*
X187733097Y-104720855D01*
X187712003Y-104760319D01*
X187654170Y-104868518D01*
X187547948Y-104997948D01*
X187418518Y-105104170D01*
X187310319Y-105162003D01*
X187270855Y-105183097D01*
X187238810Y-105192818D01*
X187110633Y-105231700D01*
X186985753Y-105244000D01*
X186902247Y-105244000D01*
X186777367Y-105231700D01*
X186649190Y-105192818D01*
X186617145Y-105183097D01*
X186577681Y-105162003D01*
X186469482Y-105104170D01*
X186340052Y-104997948D01*
X186233830Y-104868518D01*
X186175997Y-104760319D01*
X186154903Y-104720855D01*
X186145182Y-104688810D01*
X186106300Y-104560633D01*
X186089888Y-104394000D01*
X186106300Y-104227367D01*
X186154903Y-104067146D01*
X186154903Y-104067145D01*
X186175997Y-104027681D01*
X186233830Y-103919482D01*
X186340052Y-103790052D01*
X186469482Y-103683830D01*
X186577682Y-103625997D01*
X186617145Y-103604903D01*
X186649190Y-103595182D01*
X186777367Y-103556300D01*
X186902247Y-103544000D01*
X186985753Y-103544000D01*
X187110633Y-103556300D01*
X187110633Y-103556300D01*
G37*
G36*
X193382000Y-105244000D02*
G01*
X191682000Y-105244000D01*
X191682000Y-103544000D01*
X193382000Y-103544000D01*
X193382000Y-105244000D01*
X193382000Y-105244000D01*
G37*
G36*
X168842232Y-100917746D02*
G01*
X168940960Y-100947695D01*
X169021306Y-100972067D01*
X169021308Y-100972068D01*
X169186345Y-101060282D01*
X169331001Y-101178999D01*
X169449718Y-101323655D01*
X169537932Y-101488692D01*
X169592254Y-101667768D01*
X169610596Y-101854000D01*
X169592254Y-102040232D01*
X169537932Y-102219308D01*
X169449718Y-102384345D01*
X169331001Y-102529001D01*
X169186345Y-102647718D01*
X169186343Y-102647719D01*
X169021306Y-102735933D01*
X168940960Y-102760305D01*
X168842232Y-102790254D01*
X168702665Y-102804000D01*
X168609335Y-102804000D01*
X168469768Y-102790254D01*
X168371040Y-102760305D01*
X168290694Y-102735933D01*
X168125657Y-102647719D01*
X168125655Y-102647718D01*
X167980999Y-102529001D01*
X167862282Y-102384345D01*
X167774068Y-102219308D01*
X167719746Y-102040232D01*
X167701404Y-101854000D01*
X167719746Y-101667768D01*
X167774068Y-101488692D01*
X167862282Y-101323655D01*
X167980999Y-101178999D01*
X168125655Y-101060282D01*
X168290692Y-100972068D01*
X168290694Y-100972067D01*
X168371040Y-100947695D01*
X168469768Y-100917746D01*
X168609335Y-100904000D01*
X168702665Y-100904000D01*
X168842232Y-100917746D01*
X168842232Y-100917746D01*
G37*
G36*
X187110633Y-101016300D02*
G01*
X187238810Y-101055182D01*
X187270855Y-101064903D01*
X187310319Y-101085997D01*
X187418518Y-101143830D01*
X187547948Y-101250052D01*
X187654170Y-101379482D01*
X187712003Y-101487682D01*
X187733097Y-101527145D01*
X187733097Y-101527146D01*
X187781700Y-101687367D01*
X187798112Y-101854000D01*
X187781700Y-102020633D01*
X187742818Y-102148810D01*
X187733097Y-102180855D01*
X187712544Y-102219306D01*
X187654170Y-102328518D01*
X187547948Y-102457948D01*
X187418518Y-102564170D01*
X187310319Y-102622003D01*
X187270855Y-102643097D01*
X187238810Y-102652818D01*
X187110633Y-102691700D01*
X186985753Y-102704000D01*
X186902247Y-102704000D01*
X186777367Y-102691700D01*
X186649190Y-102652818D01*
X186617145Y-102643097D01*
X186577681Y-102622003D01*
X186469482Y-102564170D01*
X186340052Y-102457948D01*
X186233830Y-102328518D01*
X186175456Y-102219306D01*
X186154903Y-102180855D01*
X186145182Y-102148810D01*
X186106300Y-102020633D01*
X186089888Y-101854000D01*
X186106300Y-101687367D01*
X186154903Y-101527146D01*
X186154903Y-101527145D01*
X186175997Y-101487682D01*
X186233830Y-101379482D01*
X186340052Y-101250052D01*
X186469482Y-101143830D01*
X186577681Y-101085997D01*
X186617145Y-101064903D01*
X186649190Y-101055182D01*
X186777367Y-101016300D01*
X186902247Y-101004000D01*
X186985753Y-101004000D01*
X187110633Y-101016300D01*
X187110633Y-101016300D01*
G37*
G36*
X192698633Y-101016300D02*
G01*
X192826810Y-101055182D01*
X192858855Y-101064903D01*
X192898319Y-101085997D01*
X193006518Y-101143830D01*
X193135948Y-101250052D01*
X193242170Y-101379482D01*
X193300003Y-101487682D01*
X193321097Y-101527145D01*
X193321097Y-101527146D01*
X193369700Y-101687367D01*
X193386112Y-101854000D01*
X193369700Y-102020633D01*
X193330818Y-102148810D01*
X193321097Y-102180855D01*
X193300544Y-102219306D01*
X193242170Y-102328518D01*
X193135948Y-102457948D01*
X193006518Y-102564170D01*
X192898319Y-102622003D01*
X192858855Y-102643097D01*
X192826810Y-102652818D01*
X192698633Y-102691700D01*
X192573753Y-102704000D01*
X192490247Y-102704000D01*
X192365367Y-102691700D01*
X192237190Y-102652818D01*
X192205145Y-102643097D01*
X192165681Y-102622003D01*
X192057482Y-102564170D01*
X191928052Y-102457948D01*
X191821830Y-102328518D01*
X191763456Y-102219306D01*
X191742903Y-102180855D01*
X191733182Y-102148810D01*
X191694300Y-102020633D01*
X191677888Y-101854000D01*
X191694300Y-101687367D01*
X191742903Y-101527146D01*
X191742903Y-101527145D01*
X191763997Y-101487682D01*
X191821830Y-101379482D01*
X191928052Y-101250052D01*
X192057482Y-101143830D01*
X192165681Y-101085997D01*
X192205145Y-101064903D01*
X192237190Y-101055182D01*
X192365367Y-101016300D01*
X192490247Y-101004000D01*
X192573753Y-101004000D01*
X192698633Y-101016300D01*
X192698633Y-101016300D01*
G37*
G36*
X176970351Y-99687743D02*
G01*
X177073300Y-99730386D01*
X177115943Y-99748049D01*
X177246971Y-99835600D01*
X177358400Y-99947029D01*
X177445951Y-100078057D01*
X177445951Y-100078058D01*
X177506257Y-100223649D01*
X177537000Y-100378207D01*
X177537000Y-100535793D01*
X177506257Y-100690351D01*
X177463614Y-100793300D01*
X177445951Y-100835943D01*
X177358400Y-100966971D01*
X177246971Y-101078400D01*
X177115943Y-101165951D01*
X177084439Y-101179000D01*
X176970351Y-101226257D01*
X176815793Y-101257000D01*
X176658207Y-101257000D01*
X176503649Y-101226257D01*
X176389561Y-101179000D01*
X176358057Y-101165951D01*
X176227029Y-101078400D01*
X176115600Y-100966971D01*
X176028049Y-100835943D01*
X176010386Y-100793300D01*
X175967743Y-100690351D01*
X175937000Y-100535793D01*
X175937000Y-100378207D01*
X175967743Y-100223649D01*
X176028049Y-100078058D01*
X176028049Y-100078057D01*
X176115600Y-99947029D01*
X176227029Y-99835600D01*
X176358057Y-99748049D01*
X176400700Y-99730386D01*
X176503649Y-99687743D01*
X176658207Y-99657000D01*
X176815793Y-99657000D01*
X176970351Y-99687743D01*
X176970351Y-99687743D01*
G37*
G36*
X181970351Y-99687743D02*
G01*
X182073300Y-99730386D01*
X182115943Y-99748049D01*
X182246971Y-99835600D01*
X182358400Y-99947029D01*
X182445951Y-100078057D01*
X182445951Y-100078058D01*
X182506257Y-100223649D01*
X182537000Y-100378207D01*
X182537000Y-100535793D01*
X182506257Y-100690351D01*
X182463614Y-100793300D01*
X182445951Y-100835943D01*
X182358400Y-100966971D01*
X182246971Y-101078400D01*
X182115943Y-101165951D01*
X182084439Y-101179000D01*
X181970351Y-101226257D01*
X181815793Y-101257000D01*
X181658207Y-101257000D01*
X181503649Y-101226257D01*
X181389561Y-101179000D01*
X181358057Y-101165951D01*
X181227029Y-101078400D01*
X181115600Y-100966971D01*
X181028049Y-100835943D01*
X181010386Y-100793300D01*
X180967743Y-100690351D01*
X180937000Y-100535793D01*
X180937000Y-100378207D01*
X180967743Y-100223649D01*
X181028049Y-100078058D01*
X181028049Y-100078057D01*
X181115600Y-99947029D01*
X181227029Y-99835600D01*
X181358057Y-99748049D01*
X181400700Y-99730386D01*
X181503649Y-99687743D01*
X181658207Y-99657000D01*
X181815793Y-99657000D01*
X181970351Y-99687743D01*
X181970351Y-99687743D01*
G37*
G36*
X168842232Y-98377746D02*
G01*
X168940960Y-98407695D01*
X169021306Y-98432067D01*
X169021308Y-98432068D01*
X169186345Y-98520282D01*
X169331001Y-98638999D01*
X169449718Y-98783655D01*
X169537932Y-98948692D01*
X169592254Y-99127768D01*
X169610596Y-99314000D01*
X169592254Y-99500232D01*
X169537932Y-99679308D01*
X169449718Y-99844345D01*
X169331001Y-99989001D01*
X169186345Y-100107718D01*
X169186343Y-100107719D01*
X169021306Y-100195933D01*
X168940960Y-100220305D01*
X168842232Y-100250254D01*
X168702665Y-100264000D01*
X168609335Y-100264000D01*
X168469768Y-100250254D01*
X168371040Y-100220305D01*
X168290694Y-100195933D01*
X168125657Y-100107719D01*
X168125655Y-100107718D01*
X167980999Y-99989001D01*
X167862282Y-99844345D01*
X167774068Y-99679308D01*
X167719746Y-99500232D01*
X167701404Y-99314000D01*
X167719746Y-99127768D01*
X167774068Y-98948692D01*
X167862282Y-98783655D01*
X167980999Y-98638999D01*
X168125655Y-98520282D01*
X168290692Y-98432068D01*
X168290694Y-98432067D01*
X168371040Y-98407695D01*
X168469768Y-98377746D01*
X168609335Y-98364000D01*
X168702665Y-98364000D01*
X168842232Y-98377746D01*
X168842232Y-98377746D01*
G37*
G36*
X187110633Y-98476300D02*
G01*
X187238810Y-98515182D01*
X187270855Y-98524903D01*
X187310319Y-98545997D01*
X187418518Y-98603830D01*
X187547948Y-98710052D01*
X187654170Y-98839482D01*
X187712003Y-98947682D01*
X187733097Y-98987145D01*
X187733097Y-98987146D01*
X187781700Y-99147367D01*
X187798112Y-99314000D01*
X187781700Y-99480633D01*
X187742818Y-99608810D01*
X187733097Y-99640855D01*
X187724467Y-99657000D01*
X187654170Y-99788518D01*
X187547948Y-99917948D01*
X187418518Y-100024170D01*
X187317701Y-100078057D01*
X187270855Y-100103097D01*
X187238810Y-100112818D01*
X187110633Y-100151700D01*
X186985753Y-100164000D01*
X186902247Y-100164000D01*
X186777367Y-100151700D01*
X186649190Y-100112818D01*
X186617145Y-100103097D01*
X186570299Y-100078057D01*
X186469482Y-100024170D01*
X186340052Y-99917948D01*
X186233830Y-99788518D01*
X186163533Y-99657000D01*
X186154903Y-99640855D01*
X186145182Y-99608810D01*
X186106300Y-99480633D01*
X186089888Y-99314000D01*
X186106300Y-99147367D01*
X186154903Y-98987146D01*
X186154903Y-98987145D01*
X186175997Y-98947682D01*
X186233830Y-98839482D01*
X186340052Y-98710052D01*
X186469482Y-98603830D01*
X186577681Y-98545997D01*
X186617145Y-98524903D01*
X186649190Y-98515182D01*
X186777367Y-98476300D01*
X186902247Y-98464000D01*
X186985753Y-98464000D01*
X187110633Y-98476300D01*
X187110633Y-98476300D01*
G37*
G36*
X168842232Y-95837746D02*
G01*
X168940960Y-95867695D01*
X169021306Y-95892067D01*
X169021308Y-95892068D01*
X169186345Y-95980282D01*
X169331001Y-96098999D01*
X169449718Y-96243655D01*
X169537932Y-96408692D01*
X169592254Y-96587768D01*
X169610596Y-96774000D01*
X169592254Y-96960232D01*
X169537932Y-97139308D01*
X169449718Y-97304345D01*
X169331001Y-97449001D01*
X169186345Y-97567718D01*
X169186343Y-97567719D01*
X169021306Y-97655933D01*
X168940960Y-97680305D01*
X168842232Y-97710254D01*
X168702665Y-97724000D01*
X168609335Y-97724000D01*
X168469768Y-97710254D01*
X168371040Y-97680305D01*
X168290694Y-97655933D01*
X168125657Y-97567719D01*
X168125655Y-97567718D01*
X167980999Y-97449001D01*
X167862282Y-97304345D01*
X167774068Y-97139308D01*
X167719746Y-96960232D01*
X167701404Y-96774000D01*
X167719746Y-96587768D01*
X167774068Y-96408692D01*
X167862282Y-96243655D01*
X167980999Y-96098999D01*
X168125655Y-95980282D01*
X168290692Y-95892068D01*
X168290694Y-95892067D01*
X168371040Y-95867695D01*
X168469768Y-95837746D01*
X168609335Y-95824000D01*
X168702665Y-95824000D01*
X168842232Y-95837746D01*
X168842232Y-95837746D01*
G37*
G36*
X187794000Y-97624000D02*
G01*
X186094000Y-97624000D01*
X186094000Y-95924000D01*
X187794000Y-95924000D01*
X187794000Y-97624000D01*
X187794000Y-97624000D01*
G37*
G36*
X192864000Y-96812000D02*
G01*
X191264000Y-96812000D01*
X191264000Y-95212000D01*
X192864000Y-95212000D01*
X192864000Y-96812000D01*
X192864000Y-96812000D01*
G37*
G36*
X194797351Y-95242743D02*
G01*
X194900300Y-95285386D01*
X194942943Y-95303049D01*
X195073971Y-95390600D01*
X195185400Y-95502029D01*
X195272951Y-95633057D01*
X195272951Y-95633058D01*
X195333257Y-95778649D01*
X195364000Y-95933207D01*
X195364000Y-96090793D01*
X195333257Y-96245351D01*
X195290614Y-96348300D01*
X195272951Y-96390943D01*
X195185400Y-96521971D01*
X195073971Y-96633400D01*
X194942943Y-96720951D01*
X194900300Y-96738614D01*
X194797351Y-96781257D01*
X194642793Y-96812000D01*
X194485207Y-96812000D01*
X194330649Y-96781257D01*
X194227700Y-96738614D01*
X194185057Y-96720951D01*
X194054029Y-96633400D01*
X193942600Y-96521971D01*
X193855049Y-96390943D01*
X193837386Y-96348300D01*
X193794743Y-96245351D01*
X193764000Y-96090793D01*
X193764000Y-95933207D01*
X193794743Y-95778649D01*
X193855049Y-95633058D01*
X193855049Y-95633057D01*
X193942600Y-95502029D01*
X194054029Y-95390600D01*
X194185057Y-95303049D01*
X194227700Y-95285386D01*
X194330649Y-95242743D01*
X194485207Y-95212000D01*
X194642793Y-95212000D01*
X194797351Y-95242743D01*
X194797351Y-95242743D01*
G37*
G36*
X168842232Y-93297746D02*
G01*
X168940960Y-93327695D01*
X169021306Y-93352067D01*
X169021308Y-93352068D01*
X169186345Y-93440282D01*
X169331001Y-93558999D01*
X169449718Y-93703655D01*
X169537932Y-93868692D01*
X169592254Y-94047768D01*
X169610596Y-94234000D01*
X169592254Y-94420232D01*
X169537932Y-94599308D01*
X169449718Y-94764345D01*
X169331001Y-94909001D01*
X169186345Y-95027718D01*
X169186343Y-95027719D01*
X169021306Y-95115933D01*
X168940960Y-95140305D01*
X168842232Y-95170254D01*
X168702665Y-95184000D01*
X168609335Y-95184000D01*
X168469768Y-95170254D01*
X168371040Y-95140305D01*
X168290694Y-95115933D01*
X168125657Y-95027719D01*
X168125655Y-95027718D01*
X167980999Y-94909001D01*
X167862282Y-94764345D01*
X167774068Y-94599308D01*
X167719746Y-94420232D01*
X167701404Y-94234000D01*
X167719746Y-94047768D01*
X167774068Y-93868692D01*
X167862282Y-93703655D01*
X167980999Y-93558999D01*
X168125655Y-93440282D01*
X168290692Y-93352068D01*
X168290694Y-93352067D01*
X168371040Y-93327695D01*
X168469768Y-93297746D01*
X168609335Y-93284000D01*
X168702665Y-93284000D01*
X168842232Y-93297746D01*
X168842232Y-93297746D01*
G37*
G36*
X169606000Y-92644000D02*
G01*
X167706000Y-92644000D01*
X167706000Y-90744000D01*
X169606000Y-90744000D01*
X169606000Y-92644000D01*
X169606000Y-92644000D01*
G37*
G36*
X178269000Y-89369000D02*
G01*
X176569000Y-89369000D01*
X176569000Y-87669000D01*
X178269000Y-87669000D01*
X178269000Y-89369000D01*
X178269000Y-89369000D01*
G37*
G36*
X180125633Y-87681300D02*
G01*
X180253810Y-87720182D01*
X180285855Y-87729903D01*
X180325319Y-87750997D01*
X180433518Y-87808830D01*
X180562948Y-87915052D01*
X180669170Y-88044482D01*
X180727003Y-88152681D01*
X180748097Y-88192145D01*
X180748097Y-88192146D01*
X180796700Y-88352367D01*
X180813112Y-88519000D01*
X180796700Y-88685633D01*
X180757818Y-88813810D01*
X180748097Y-88845855D01*
X180727003Y-88885319D01*
X180669170Y-88993518D01*
X180562948Y-89122948D01*
X180433518Y-89229170D01*
X180325318Y-89287003D01*
X180285855Y-89308097D01*
X180253810Y-89317818D01*
X180125633Y-89356700D01*
X180000753Y-89369000D01*
X179917247Y-89369000D01*
X179792367Y-89356700D01*
X179664190Y-89317818D01*
X179632145Y-89308097D01*
X179592681Y-89287003D01*
X179484482Y-89229170D01*
X179355052Y-89122948D01*
X179248830Y-88993518D01*
X179190997Y-88885319D01*
X179169903Y-88845855D01*
X179160182Y-88813810D01*
X179121300Y-88685633D01*
X179104888Y-88519000D01*
X179121300Y-88352367D01*
X179169903Y-88192146D01*
X179169903Y-88192145D01*
X179190997Y-88152682D01*
X179248830Y-88044482D01*
X179355052Y-87915052D01*
X179484482Y-87808830D01*
X179592682Y-87750997D01*
X179632145Y-87729903D01*
X179664190Y-87720182D01*
X179792367Y-87681300D01*
X179917247Y-87669000D01*
X180000753Y-87669000D01*
X180125633Y-87681300D01*
X180125633Y-87681300D01*
G37*
G36*
X168842232Y-83772746D02*
G01*
X168940960Y-83802695D01*
X169021306Y-83827067D01*
X169021308Y-83827068D01*
X169186345Y-83915282D01*
X169331001Y-84033999D01*
X169449718Y-84178655D01*
X169537932Y-84343692D01*
X169592254Y-84522768D01*
X169610596Y-84709000D01*
X169592254Y-84895232D01*
X169537932Y-85074308D01*
X169449718Y-85239345D01*
X169331001Y-85384001D01*
X169186345Y-85502718D01*
X169186343Y-85502719D01*
X169021306Y-85590933D01*
X168940960Y-85615305D01*
X168842232Y-85645254D01*
X168702665Y-85659000D01*
X168609335Y-85659000D01*
X168469768Y-85645254D01*
X168371040Y-85615305D01*
X168290694Y-85590933D01*
X168125657Y-85502719D01*
X168125655Y-85502718D01*
X167980999Y-85384001D01*
X167862282Y-85239345D01*
X167774068Y-85074308D01*
X167719746Y-84895232D01*
X167701404Y-84709000D01*
X167719746Y-84522768D01*
X167774068Y-84343692D01*
X167862282Y-84178655D01*
X167980999Y-84033999D01*
X168125655Y-83915282D01*
X168290692Y-83827068D01*
X168290694Y-83827067D01*
X168371040Y-83802695D01*
X168469768Y-83772746D01*
X168609335Y-83759000D01*
X168702665Y-83759000D01*
X168842232Y-83772746D01*
X168842232Y-83772746D01*
G37*
G36*
X196684000Y-84924000D02*
G01*
X194984000Y-84924000D01*
X194984000Y-83224000D01*
X196684000Y-83224000D01*
X196684000Y-84924000D01*
X196684000Y-84924000D01*
G37*
G36*
X198540633Y-83236300D02*
G01*
X198668810Y-83275182D01*
X198700855Y-83284903D01*
X198740319Y-83305997D01*
X198848518Y-83363830D01*
X198977948Y-83470052D01*
X199084170Y-83599482D01*
X199142003Y-83707681D01*
X199163097Y-83747145D01*
X199163097Y-83747146D01*
X199211700Y-83907367D01*
X199228112Y-84074000D01*
X199211700Y-84240633D01*
X199180437Y-84343692D01*
X199163097Y-84400855D01*
X199142003Y-84440318D01*
X199084170Y-84548518D01*
X198977948Y-84677948D01*
X198848518Y-84784170D01*
X198740319Y-84842003D01*
X198700855Y-84863097D01*
X198668810Y-84872818D01*
X198540633Y-84911700D01*
X198415753Y-84924000D01*
X198332247Y-84924000D01*
X198207367Y-84911700D01*
X198079190Y-84872818D01*
X198047145Y-84863097D01*
X198007681Y-84842003D01*
X197899482Y-84784170D01*
X197770052Y-84677948D01*
X197663830Y-84548518D01*
X197605997Y-84440318D01*
X197584903Y-84400855D01*
X197567563Y-84343692D01*
X197536300Y-84240633D01*
X197519888Y-84074000D01*
X197536300Y-83907367D01*
X197584903Y-83747146D01*
X197584903Y-83747145D01*
X197605997Y-83707681D01*
X197663830Y-83599482D01*
X197770052Y-83470052D01*
X197899482Y-83363830D01*
X198007681Y-83305997D01*
X198047145Y-83284903D01*
X198079190Y-83275182D01*
X198207367Y-83236300D01*
X198332247Y-83224000D01*
X198415753Y-83224000D01*
X198540633Y-83236300D01*
X198540633Y-83236300D01*
G37*
G36*
X189269633Y-83236300D02*
G01*
X189397810Y-83275182D01*
X189429855Y-83284903D01*
X189469319Y-83305997D01*
X189577518Y-83363830D01*
X189706948Y-83470052D01*
X189813170Y-83599482D01*
X189871003Y-83707681D01*
X189892097Y-83747145D01*
X189892097Y-83747146D01*
X189940700Y-83907367D01*
X189957112Y-84074000D01*
X189940700Y-84240633D01*
X189909437Y-84343692D01*
X189892097Y-84400855D01*
X189871003Y-84440318D01*
X189813170Y-84548518D01*
X189706948Y-84677948D01*
X189577518Y-84784170D01*
X189469319Y-84842003D01*
X189429855Y-84863097D01*
X189397810Y-84872818D01*
X189269633Y-84911700D01*
X189144753Y-84924000D01*
X189061247Y-84924000D01*
X188936367Y-84911700D01*
X188808190Y-84872818D01*
X188776145Y-84863097D01*
X188736681Y-84842003D01*
X188628482Y-84784170D01*
X188499052Y-84677948D01*
X188392830Y-84548518D01*
X188334997Y-84440318D01*
X188313903Y-84400855D01*
X188296563Y-84343692D01*
X188265300Y-84240633D01*
X188248888Y-84074000D01*
X188265300Y-83907367D01*
X188313903Y-83747146D01*
X188313903Y-83747145D01*
X188334997Y-83707681D01*
X188392830Y-83599482D01*
X188499052Y-83470052D01*
X188628482Y-83363830D01*
X188736681Y-83305997D01*
X188776145Y-83284903D01*
X188808190Y-83275182D01*
X188936367Y-83236300D01*
X189061247Y-83224000D01*
X189144753Y-83224000D01*
X189269633Y-83236300D01*
X189269633Y-83236300D01*
G37*
G36*
X187413000Y-84924000D02*
G01*
X185713000Y-84924000D01*
X185713000Y-83224000D01*
X187413000Y-83224000D01*
X187413000Y-84924000D01*
X187413000Y-84924000D01*
G37*
G36*
X177585633Y-83236300D02*
G01*
X177713810Y-83275182D01*
X177745855Y-83284903D01*
X177785319Y-83305997D01*
X177893518Y-83363830D01*
X178022948Y-83470052D01*
X178129170Y-83599482D01*
X178187003Y-83707681D01*
X178208097Y-83747145D01*
X178208097Y-83747146D01*
X178256700Y-83907367D01*
X178273112Y-84074000D01*
X178256700Y-84240633D01*
X178225437Y-84343692D01*
X178208097Y-84400855D01*
X178187003Y-84440318D01*
X178129170Y-84548518D01*
X178022948Y-84677948D01*
X177893518Y-84784170D01*
X177785319Y-84842003D01*
X177745855Y-84863097D01*
X177713810Y-84872818D01*
X177585633Y-84911700D01*
X177460753Y-84924000D01*
X177377247Y-84924000D01*
X177252367Y-84911700D01*
X177124190Y-84872818D01*
X177092145Y-84863097D01*
X177052681Y-84842003D01*
X176944482Y-84784170D01*
X176815052Y-84677948D01*
X176708830Y-84548518D01*
X176650997Y-84440319D01*
X176629903Y-84400855D01*
X176612563Y-84343692D01*
X176581300Y-84240633D01*
X176564888Y-84074000D01*
X176581300Y-83907367D01*
X176629903Y-83747146D01*
X176629903Y-83747145D01*
X176650997Y-83707681D01*
X176708830Y-83599482D01*
X176815052Y-83470052D01*
X176944482Y-83363830D01*
X177052681Y-83305997D01*
X177092145Y-83284903D01*
X177124190Y-83275182D01*
X177252367Y-83236300D01*
X177377247Y-83224000D01*
X177460753Y-83224000D01*
X177585633Y-83236300D01*
X177585633Y-83236300D01*
G37*
G36*
X180809000Y-84924000D02*
G01*
X179109000Y-84924000D01*
X179109000Y-83224000D01*
X180809000Y-83224000D01*
X180809000Y-84924000D01*
X180809000Y-84924000D01*
G37*
G36*
X168842232Y-81232746D02*
G01*
X168940960Y-81262695D01*
X169021306Y-81287067D01*
X169021308Y-81287068D01*
X169186345Y-81375282D01*
X169331001Y-81493999D01*
X169449718Y-81638655D01*
X169537932Y-81803692D01*
X169592254Y-81982768D01*
X169610596Y-82169000D01*
X169592254Y-82355232D01*
X169537932Y-82534308D01*
X169449718Y-82699345D01*
X169331001Y-82844001D01*
X169186345Y-82962718D01*
X169186343Y-82962719D01*
X169021306Y-83050933D01*
X168940960Y-83075305D01*
X168842232Y-83105254D01*
X168702665Y-83119000D01*
X168609335Y-83119000D01*
X168469768Y-83105254D01*
X168371040Y-83075305D01*
X168290694Y-83050933D01*
X168125657Y-82962719D01*
X168125655Y-82962718D01*
X167980999Y-82844001D01*
X167862282Y-82699345D01*
X167774068Y-82534308D01*
X167719746Y-82355232D01*
X167701404Y-82169000D01*
X167719746Y-81982768D01*
X167774068Y-81803692D01*
X167862282Y-81638655D01*
X167980999Y-81493999D01*
X168125655Y-81375282D01*
X168290692Y-81287068D01*
X168290694Y-81287067D01*
X168371040Y-81262695D01*
X168469768Y-81232746D01*
X168609335Y-81219000D01*
X168702665Y-81219000D01*
X168842232Y-81232746D01*
X168842232Y-81232746D01*
G37*
G36*
X177534000Y-81953800D02*
G01*
X176034000Y-81953800D01*
X176034000Y-80453800D01*
X177534000Y-80453800D01*
X177534000Y-81953800D01*
X177534000Y-81953800D01*
G37*
G36*
X174391029Y-80464653D02*
G01*
X174532401Y-80507538D01*
X174662692Y-80577179D01*
X174776895Y-80670905D01*
X174870621Y-80785108D01*
X174940262Y-80915399D01*
X174983147Y-81056771D01*
X174997628Y-81203800D01*
X174983147Y-81350829D01*
X174940262Y-81492201D01*
X174870621Y-81622492D01*
X174776895Y-81736695D01*
X174662692Y-81830421D01*
X174532401Y-81900062D01*
X174391029Y-81942947D01*
X174280839Y-81953800D01*
X174207161Y-81953800D01*
X174096971Y-81942947D01*
X173955599Y-81900062D01*
X173825308Y-81830421D01*
X173711105Y-81736695D01*
X173617379Y-81622492D01*
X173547738Y-81492201D01*
X173504853Y-81350829D01*
X173490372Y-81203800D01*
X173504853Y-81056771D01*
X173547738Y-80915399D01*
X173617379Y-80785108D01*
X173711105Y-80670905D01*
X173825308Y-80577179D01*
X173955599Y-80507538D01*
X174096971Y-80464653D01*
X174207161Y-80453800D01*
X174280839Y-80453800D01*
X174391029Y-80464653D01*
X174391029Y-80464653D01*
G37*
G36*
X168842232Y-78692746D02*
G01*
X168940960Y-78722695D01*
X169021306Y-78747067D01*
X169021308Y-78747068D01*
X169186345Y-78835282D01*
X169331001Y-78953999D01*
X169449718Y-79098655D01*
X169537932Y-79263692D01*
X169592254Y-79442768D01*
X169610596Y-79629000D01*
X169592254Y-79815232D01*
X169537932Y-79994308D01*
X169449718Y-80159345D01*
X169331001Y-80304001D01*
X169186345Y-80422718D01*
X169107890Y-80464653D01*
X169021306Y-80510933D01*
X168940960Y-80535305D01*
X168842232Y-80565254D01*
X168702665Y-80579000D01*
X168609335Y-80579000D01*
X168469768Y-80565254D01*
X168371040Y-80535305D01*
X168290694Y-80510933D01*
X168204110Y-80464653D01*
X168125655Y-80422718D01*
X167980999Y-80304001D01*
X167862282Y-80159345D01*
X167774068Y-79994308D01*
X167719746Y-79815232D01*
X167701404Y-79629000D01*
X167719746Y-79442768D01*
X167774068Y-79263692D01*
X167862282Y-79098655D01*
X167980999Y-78953999D01*
X168125655Y-78835282D01*
X168290692Y-78747068D01*
X168290694Y-78747067D01*
X168371040Y-78722695D01*
X168469768Y-78692746D01*
X168609335Y-78679000D01*
X168702665Y-78679000D01*
X168842232Y-78692746D01*
X168842232Y-78692746D01*
G37*
G36*
X180809000Y-80225000D02*
G01*
X179109000Y-80225000D01*
X179109000Y-78525000D01*
X180809000Y-78525000D01*
X180809000Y-80225000D01*
X180809000Y-80225000D01*
G37*
G36*
X196888000Y-78397000D02*
G01*
X195288000Y-78397000D01*
X195288000Y-76797000D01*
X196888000Y-76797000D01*
X196888000Y-78397000D01*
X196888000Y-78397000D01*
G37*
G36*
X198821351Y-76827743D02*
G01*
X198924300Y-76870386D01*
X198966943Y-76888049D01*
X199097971Y-76975600D01*
X199209400Y-77087029D01*
X199296951Y-77218057D01*
X199296951Y-77218058D01*
X199357257Y-77363649D01*
X199388000Y-77518207D01*
X199388000Y-77675793D01*
X199357257Y-77830351D01*
X199335565Y-77882719D01*
X199296951Y-77975943D01*
X199209400Y-78106971D01*
X199097971Y-78218400D01*
X198966943Y-78305951D01*
X198924300Y-78323614D01*
X198821351Y-78366257D01*
X198666793Y-78397000D01*
X198509207Y-78397000D01*
X198354649Y-78366257D01*
X198251700Y-78323614D01*
X198209057Y-78305951D01*
X198078029Y-78218400D01*
X197966600Y-78106971D01*
X197879049Y-77975943D01*
X197840435Y-77882719D01*
X197818743Y-77830351D01*
X197788000Y-77675793D01*
X197788000Y-77518207D01*
X197818743Y-77363649D01*
X197879049Y-77218058D01*
X197879049Y-77218057D01*
X197966600Y-77087029D01*
X198078029Y-76975600D01*
X198209057Y-76888049D01*
X198251700Y-76870386D01*
X198354649Y-76827743D01*
X198509207Y-76797000D01*
X198666793Y-76797000D01*
X198821351Y-76827743D01*
X198821351Y-76827743D01*
G37*
G36*
X168842232Y-76152746D02*
G01*
X168940960Y-76182695D01*
X169021306Y-76207067D01*
X169021308Y-76207068D01*
X169186345Y-76295282D01*
X169331001Y-76413999D01*
X169449718Y-76558655D01*
X169537932Y-76723692D01*
X169592254Y-76902768D01*
X169610596Y-77089000D01*
X169592254Y-77275232D01*
X169592252Y-77275237D01*
X169542592Y-77438948D01*
X169537932Y-77454308D01*
X169449718Y-77619345D01*
X169331001Y-77764001D01*
X169186345Y-77882718D01*
X169186343Y-77882719D01*
X169021306Y-77970933D01*
X168940960Y-77995305D01*
X168842232Y-78025254D01*
X168702665Y-78039000D01*
X168609335Y-78039000D01*
X168469768Y-78025254D01*
X168371040Y-77995305D01*
X168290694Y-77970933D01*
X168125657Y-77882719D01*
X168125655Y-77882718D01*
X167980999Y-77764001D01*
X167862282Y-77619345D01*
X167774068Y-77454308D01*
X167769409Y-77438948D01*
X167719748Y-77275237D01*
X167719746Y-77275232D01*
X167701404Y-77089000D01*
X167719746Y-76902768D01*
X167774068Y-76723692D01*
X167862282Y-76558655D01*
X167980999Y-76413999D01*
X168125655Y-76295282D01*
X168290692Y-76207068D01*
X168290694Y-76207067D01*
X168371040Y-76182695D01*
X168469768Y-76152746D01*
X168609335Y-76139000D01*
X168702665Y-76139000D01*
X168842232Y-76152746D01*
X168842232Y-76152746D01*
G37*
G36*
X180125633Y-75997300D02*
G01*
X180253810Y-76036182D01*
X180285855Y-76045903D01*
X180325318Y-76066997D01*
X180433518Y-76124830D01*
X180562948Y-76231052D01*
X180669170Y-76360482D01*
X180727003Y-76468681D01*
X180748097Y-76508145D01*
X180748097Y-76508146D01*
X180796700Y-76668367D01*
X180813112Y-76835000D01*
X180796700Y-77001633D01*
X180770197Y-77089000D01*
X180748097Y-77161855D01*
X180727003Y-77201319D01*
X180669170Y-77309518D01*
X180562948Y-77438948D01*
X180433518Y-77545170D01*
X180325318Y-77603003D01*
X180285855Y-77624097D01*
X180253810Y-77633818D01*
X180125633Y-77672700D01*
X180000753Y-77685000D01*
X179917247Y-77685000D01*
X179792367Y-77672700D01*
X179664190Y-77633818D01*
X179632145Y-77624097D01*
X179592682Y-77603003D01*
X179484482Y-77545170D01*
X179355052Y-77438948D01*
X179248830Y-77309518D01*
X179190997Y-77201319D01*
X179169903Y-77161855D01*
X179147803Y-77089000D01*
X179121300Y-77001633D01*
X179104888Y-76835000D01*
X179121300Y-76668367D01*
X179169903Y-76508146D01*
X179169903Y-76508145D01*
X179190997Y-76468681D01*
X179248830Y-76360482D01*
X179355052Y-76231052D01*
X179484482Y-76124830D01*
X179592682Y-76066997D01*
X179632145Y-76045903D01*
X179664190Y-76036182D01*
X179792367Y-75997300D01*
X179917247Y-75985000D01*
X180000753Y-75985000D01*
X180125633Y-75997300D01*
X180125633Y-75997300D01*
G37*
G36*
X191600689Y-74349429D02*
G01*
X191782678Y-74424811D01*
X191946463Y-74534249D01*
X192085751Y-74673537D01*
X192195189Y-74837322D01*
X192270571Y-75019311D01*
X192309000Y-75212509D01*
X192309000Y-75409491D01*
X192270571Y-75602689D01*
X192195189Y-75784678D01*
X192085751Y-75948463D01*
X191946463Y-76087751D01*
X191782678Y-76197189D01*
X191600689Y-76272571D01*
X191407491Y-76311000D01*
X191210509Y-76311000D01*
X191017311Y-76272571D01*
X190835322Y-76197189D01*
X190671537Y-76087751D01*
X190532249Y-75948463D01*
X190422811Y-75784678D01*
X190347429Y-75602689D01*
X190309000Y-75409491D01*
X190309000Y-75212509D01*
X190347429Y-75019311D01*
X190422811Y-74837322D01*
X190532249Y-74673537D01*
X190671537Y-74534249D01*
X190835322Y-74424811D01*
X191017311Y-74349429D01*
X191210509Y-74311000D01*
X191407491Y-74311000D01*
X191600689Y-74349429D01*
X191600689Y-74349429D01*
G37*
G36*
X187309000Y-76311000D02*
G01*
X185309000Y-76311000D01*
X185309000Y-74311000D01*
X187309000Y-74311000D01*
X187309000Y-76311000D01*
X187309000Y-76311000D01*
G37*
G36*
X169606000Y-75499000D02*
G01*
X167706000Y-75499000D01*
X167706000Y-73599000D01*
X169606000Y-73599000D01*
X169606000Y-75499000D01*
X169606000Y-75499000D01*
G37*
G36*
X180125633Y-73457300D02*
G01*
X180253810Y-73496182D01*
X180285855Y-73505903D01*
X180325318Y-73526997D01*
X180433518Y-73584830D01*
X180562948Y-73691052D01*
X180669170Y-73820482D01*
X180727003Y-73928682D01*
X180748097Y-73968145D01*
X180748097Y-73968146D01*
X180796700Y-74128367D01*
X180813112Y-74295000D01*
X180796700Y-74461633D01*
X180757818Y-74589810D01*
X180748097Y-74621855D01*
X180727003Y-74661318D01*
X180669170Y-74769518D01*
X180562948Y-74898948D01*
X180433518Y-75005170D01*
X180325319Y-75063003D01*
X180285855Y-75084097D01*
X180253810Y-75093818D01*
X180125633Y-75132700D01*
X180000753Y-75145000D01*
X179917247Y-75145000D01*
X179792367Y-75132700D01*
X179664190Y-75093818D01*
X179632145Y-75084097D01*
X179592682Y-75063003D01*
X179484482Y-75005170D01*
X179355052Y-74898948D01*
X179248830Y-74769518D01*
X179190997Y-74661318D01*
X179169903Y-74621855D01*
X179160182Y-74589810D01*
X179121300Y-74461633D01*
X179104888Y-74295000D01*
X179121300Y-74128367D01*
X179169903Y-73968146D01*
X179169903Y-73968145D01*
X179190997Y-73928682D01*
X179248830Y-73820482D01*
X179355052Y-73691052D01*
X179484482Y-73584830D01*
X179592682Y-73526997D01*
X179632145Y-73505903D01*
X179664190Y-73496182D01*
X179792367Y-73457300D01*
X179917247Y-73445000D01*
X180000753Y-73445000D01*
X180125633Y-73457300D01*
X180125633Y-73457300D01*
G37*
G36*
X174994000Y-69253800D02*
G01*
X173494000Y-69253800D01*
X173494000Y-67753800D01*
X174994000Y-67753800D01*
X174994000Y-69253800D01*
X174994000Y-69253800D01*
G37*
G36*
X176931029Y-67764653D02*
G01*
X177072401Y-67807538D01*
X177202692Y-67877179D01*
X177316895Y-67970905D01*
X177410621Y-68085108D01*
X177480262Y-68215399D01*
X177523147Y-68356771D01*
X177537628Y-68503800D01*
X177523147Y-68650829D01*
X177480262Y-68792201D01*
X177410621Y-68922492D01*
X177316895Y-69036695D01*
X177202692Y-69130421D01*
X177072401Y-69200062D01*
X176931029Y-69242947D01*
X176820839Y-69253800D01*
X176747161Y-69253800D01*
X176636971Y-69242947D01*
X176495599Y-69200062D01*
X176365308Y-69130421D01*
X176251105Y-69036695D01*
X176157379Y-68922492D01*
X176087738Y-68792201D01*
X176044853Y-68650829D01*
X176030372Y-68503800D01*
X176044853Y-68356771D01*
X176087738Y-68215399D01*
X176157379Y-68085108D01*
X176251105Y-67970905D01*
X176365308Y-67877179D01*
X176495599Y-67807538D01*
X176636971Y-67764653D01*
X176747161Y-67753800D01*
X176820839Y-67753800D01*
X176931029Y-67764653D01*
X176931029Y-67764653D01*
G37*
G36*
X169547456Y-64357251D02*
G01*
X169865937Y-64489170D01*
X170152561Y-64680687D01*
X170396313Y-64924439D01*
X170587830Y-65211063D01*
X170719749Y-65529544D01*
X170787000Y-65867641D01*
X170787000Y-66212359D01*
X170719749Y-66550456D01*
X170587830Y-66868937D01*
X170396313Y-67155561D01*
X170152561Y-67399313D01*
X169865937Y-67590830D01*
X169547456Y-67722749D01*
X169209360Y-67790000D01*
X168864640Y-67790000D01*
X168526544Y-67722749D01*
X168208063Y-67590830D01*
X167921439Y-67399313D01*
X167677687Y-67155561D01*
X167486170Y-66868937D01*
X167354251Y-66550456D01*
X167287000Y-66212359D01*
X167287000Y-65867641D01*
X167354251Y-65529544D01*
X167486170Y-65211063D01*
X167677687Y-64924439D01*
X167921439Y-64680687D01*
X168208063Y-64489170D01*
X168526544Y-64357251D01*
X168864640Y-64290000D01*
X169209360Y-64290000D01*
X169547456Y-64357251D01*
X169547456Y-64357251D01*
G37*
G36*
X198757456Y-64357251D02*
G01*
X199075937Y-64489170D01*
X199362561Y-64680687D01*
X199606313Y-64924439D01*
X199797830Y-65211063D01*
X199929749Y-65529544D01*
X199997000Y-65867641D01*
X199997000Y-66212359D01*
X199929749Y-66550456D01*
X199797830Y-66868937D01*
X199606313Y-67155561D01*
X199362561Y-67399313D01*
X199075937Y-67590830D01*
X198757456Y-67722749D01*
X198419360Y-67790000D01*
X198074640Y-67790000D01*
X197736544Y-67722749D01*
X197418063Y-67590830D01*
X197131439Y-67399313D01*
X196887687Y-67155561D01*
X196696170Y-66868937D01*
X196564251Y-66550456D01*
X196497000Y-66212359D01*
X196497000Y-65867641D01*
X196564251Y-65529544D01*
X196696170Y-65211063D01*
X196887687Y-64924439D01*
X197131439Y-64680687D01*
X197418063Y-64489170D01*
X197736544Y-64357251D01*
X198074640Y-64290000D01*
X198419360Y-64290000D01*
X198757456Y-64357251D01*
X198757456Y-64357251D01*
G37*
G36*
X188908232Y-64722746D02*
G01*
X189006960Y-64752695D01*
X189087306Y-64777067D01*
X189087308Y-64777068D01*
X189252345Y-64865282D01*
X189397001Y-64983999D01*
X189515718Y-65128655D01*
X189603932Y-65293692D01*
X189658254Y-65472768D01*
X189676596Y-65659000D01*
X189658254Y-65845232D01*
X189603932Y-66024308D01*
X189515718Y-66189345D01*
X189397001Y-66334001D01*
X189252345Y-66452718D01*
X189252343Y-66452719D01*
X189087306Y-66540933D01*
X189055912Y-66550456D01*
X188908232Y-66595254D01*
X188768665Y-66609000D01*
X188675335Y-66609000D01*
X188535768Y-66595254D01*
X188388088Y-66550456D01*
X188356694Y-66540933D01*
X188191657Y-66452719D01*
X188191655Y-66452718D01*
X188046999Y-66334001D01*
X187928282Y-66189345D01*
X187840068Y-66024308D01*
X187785746Y-65845232D01*
X187767404Y-65659000D01*
X187785746Y-65472768D01*
X187840068Y-65293692D01*
X187928282Y-65128655D01*
X188046999Y-64983999D01*
X188191655Y-64865282D01*
X188356692Y-64777068D01*
X188356694Y-64777067D01*
X188437040Y-64752695D01*
X188535768Y-64722746D01*
X188675335Y-64709000D01*
X188768665Y-64709000D01*
X188908232Y-64722746D01*
X188908232Y-64722746D01*
G37*
G36*
X179512000Y-66609000D02*
G01*
X177612000Y-66609000D01*
X177612000Y-64709000D01*
X179512000Y-64709000D01*
X179512000Y-66609000D01*
X179512000Y-66609000D01*
G37*
G36*
X181288232Y-64722746D02*
G01*
X181386960Y-64752695D01*
X181467306Y-64777067D01*
X181467308Y-64777068D01*
X181632345Y-64865282D01*
X181777001Y-64983999D01*
X181895718Y-65128655D01*
X181983932Y-65293692D01*
X182038254Y-65472768D01*
X182056596Y-65659000D01*
X182038254Y-65845232D01*
X181983932Y-66024308D01*
X181895718Y-66189345D01*
X181777001Y-66334001D01*
X181632345Y-66452718D01*
X181632343Y-66452719D01*
X181467306Y-66540933D01*
X181435912Y-66550456D01*
X181288232Y-66595254D01*
X181148665Y-66609000D01*
X181055335Y-66609000D01*
X180915768Y-66595254D01*
X180768088Y-66550456D01*
X180736694Y-66540933D01*
X180571657Y-66452719D01*
X180571655Y-66452718D01*
X180426999Y-66334001D01*
X180308282Y-66189345D01*
X180220068Y-66024308D01*
X180165746Y-65845232D01*
X180147404Y-65659000D01*
X180165746Y-65472768D01*
X180220068Y-65293692D01*
X180308282Y-65128655D01*
X180426999Y-64983999D01*
X180571655Y-64865282D01*
X180736692Y-64777068D01*
X180736694Y-64777067D01*
X180817040Y-64752695D01*
X180915768Y-64722746D01*
X181055335Y-64709000D01*
X181148665Y-64709000D01*
X181288232Y-64722746D01*
X181288232Y-64722746D01*
G37*
G36*
X183828232Y-64722746D02*
G01*
X183926960Y-64752695D01*
X184007306Y-64777067D01*
X184007308Y-64777068D01*
X184172345Y-64865282D01*
X184317001Y-64983999D01*
X184435718Y-65128655D01*
X184523932Y-65293692D01*
X184578254Y-65472768D01*
X184596596Y-65659000D01*
X184578254Y-65845232D01*
X184523932Y-66024308D01*
X184435718Y-66189345D01*
X184317001Y-66334001D01*
X184172345Y-66452718D01*
X184172343Y-66452719D01*
X184007306Y-66540933D01*
X183975912Y-66550456D01*
X183828232Y-66595254D01*
X183688665Y-66609000D01*
X183595335Y-66609000D01*
X183455768Y-66595254D01*
X183308088Y-66550456D01*
X183276694Y-66540933D01*
X183111657Y-66452719D01*
X183111655Y-66452718D01*
X182966999Y-66334001D01*
X182848282Y-66189345D01*
X182760068Y-66024308D01*
X182705746Y-65845232D01*
X182687404Y-65659000D01*
X182705746Y-65472768D01*
X182760068Y-65293692D01*
X182848282Y-65128655D01*
X182966999Y-64983999D01*
X183111655Y-64865282D01*
X183276692Y-64777068D01*
X183276694Y-64777067D01*
X183357040Y-64752695D01*
X183455768Y-64722746D01*
X183595335Y-64709000D01*
X183688665Y-64709000D01*
X183828232Y-64722746D01*
X183828232Y-64722746D01*
G37*
G36*
X186368232Y-64722746D02*
G01*
X186466960Y-64752695D01*
X186547306Y-64777067D01*
X186547308Y-64777068D01*
X186712345Y-64865282D01*
X186857001Y-64983999D01*
X186975718Y-65128655D01*
X187063932Y-65293692D01*
X187118254Y-65472768D01*
X187136596Y-65659000D01*
X187118254Y-65845232D01*
X187063932Y-66024308D01*
X186975718Y-66189345D01*
X186857001Y-66334001D01*
X186712345Y-66452718D01*
X186712343Y-66452719D01*
X186547306Y-66540933D01*
X186515912Y-66550456D01*
X186368232Y-66595254D01*
X186228665Y-66609000D01*
X186135335Y-66609000D01*
X185995768Y-66595254D01*
X185848088Y-66550456D01*
X185816694Y-66540933D01*
X185651657Y-66452719D01*
X185651655Y-66452718D01*
X185506999Y-66334001D01*
X185388282Y-66189345D01*
X185300068Y-66024308D01*
X185245746Y-65845232D01*
X185227404Y-65659000D01*
X185245746Y-65472768D01*
X185300068Y-65293692D01*
X185388282Y-65128655D01*
X185506999Y-64983999D01*
X185651655Y-64865282D01*
X185816692Y-64777068D01*
X185816694Y-64777067D01*
X185897040Y-64752695D01*
X185995768Y-64722746D01*
X186135335Y-64709000D01*
X186228665Y-64709000D01*
X186368232Y-64722746D01*
X186368232Y-64722746D01*
G37*
M02*
